<svg xmlns="http://www.w3.org/2000/svg" viewBox="0 0 200 89.25"><defs><style>.cls-1{fill:#fff;}</style></defs><g id="Layer_1" data-name="Layer 1"><path class="cls-1" d="M176,1H150a4.81,4.81,0,0,0-4.82,4.81v32.4h0a2.21,2.21,0,0,0,2.21,2.12,1.77,1.77,0,0,0,1.41-.51l9-10.73H176a4.81,4.81,0,0,0,4.82-4.81V5.77A4.81,4.81,0,0,0,176,1Z"></path><path class="cls-1" d="M.49,89.21V66.09a21.94,21.94,0,0,1,.7-6,13.15,13.15,0,0,1,2-4.26,13.1,13.1,0,0,1,5.24-4.11,17.78,17.78,0,0,1,7.08-1.4,16.34,16.34,0,0,1,5.94,1,14.85,14.85,0,0,1,4.7,3,13.12,13.12,0,0,1,3.14,4.58,15.23,15.23,0,0,1,1.13,5.94,15.8,15.8,0,0,1-1,5.94,13.74,13.74,0,0,1-2.86,4.53,13.8,13.8,0,0,1-4.27,2.92,12.91,12.91,0,0,1-5.18,1,11.11,11.11,0,0,1-5-1,9.51,9.51,0,0,1-3-1.89V89.21Zm14.8-17.78a6,6,0,0,0,4.49-1.88,6.8,6.8,0,0,0,1.73-4.75,6.55,6.55,0,0,0-1.73-4.7,6.11,6.11,0,0,0-4.49-1.78,6.06,6.06,0,0,0-4.43,1.73A6.33,6.33,0,0,0,9.08,64.8a6.82,6.82,0,0,0,.49,2.59,5.29,5.29,0,0,0,1.29,2.1,5.47,5.47,0,0,0,2,1.4A5.37,5.37,0,0,0,15.29,71.43Z"></path><path class="cls-1" d="M40.74,68.47a2.42,2.42,0,0,0,.59,1.24,4,4,0,0,0,1.3,1.18,6.35,6.35,0,0,0,2.11.87,13.28,13.28,0,0,0,3.13.32,13.91,13.91,0,0,0,2.65-.27c.81-.16,1.56-.32,2.16-.48a13.87,13.87,0,0,0,1.51-.54,3.65,3.65,0,0,0,.7-.38l3,6c-.27.17-.76.44-1.41.76a21.24,21.24,0,0,1-2.53,1,24.25,24.25,0,0,1-3.52.81,23.1,23.1,0,0,1-4.48.38,16.64,16.64,0,0,1-5.67-1A13.47,13.47,0,0,1,32.58,71a15.73,15.73,0,0,1-1.13-6.15,15.23,15.23,0,0,1,1.13-5.94,13,13,0,0,1,3.14-4.58,14.85,14.85,0,0,1,4.7-3,15.57,15.57,0,0,1,5.83-1,17.39,17.39,0,0,1,5.24.76,11.92,11.92,0,0,1,3.94,2.16,10.7,10.7,0,0,1,2.43,3.07A8.69,8.69,0,0,1,58,63.45a5.86,5.86,0,0,1-2.48,2.69,14.32,14.32,0,0,1-4.92,1.73,45.56,45.56,0,0,1-7.94.6Zm-.43-5.62a46.69,46.69,0,0,0,5.62-.27,11.35,11.35,0,0,0,3-.7,2.05,2.05,0,0,0,1.19-1,2.6,2.6,0,0,0,.21-1.08,2.54,2.54,0,0,0-1-2A5,5,0,0,0,46.2,57a6.12,6.12,0,0,0-2.54.49,6.48,6.48,0,0,0-1.79,1.35,5.92,5.92,0,0,0-1.13,1.83A7.6,7.6,0,0,0,40.31,62.85Z"></path><path class="cls-1" d="M85.09,76.24c-.38.27-.92.54-1.56.92a14,14,0,0,1-2.33,1A21,21,0,0,1,78,79a18.77,18.77,0,0,1-9.57-.54,13.3,13.3,0,0,1-8.1-7.29,16.42,16.42,0,0,1,0-12.52,13.19,13.19,0,0,1,3.3-4.53,13.59,13.59,0,0,1,4.86-2.81,17.41,17.41,0,0,1,5.89-1,19.73,19.73,0,0,1,5.4.7,8.71,8.71,0,0,1,3.73,2,7.56,7.56,0,0,1,1,1.24,4.07,4.07,0,0,1,.32,1.62,4.29,4.29,0,0,1-.32,1.67,5.63,5.63,0,0,1-.81,1.35,9.79,9.79,0,0,1-1,1,7.24,7.24,0,0,1-.92.7,11.1,11.1,0,0,0-2.7-1.83A9.48,9.48,0,0,0,75,58a8.51,8.51,0,0,0-2.65.43,5.37,5.37,0,0,0-2.21,1.29,6.19,6.19,0,0,0-1.51,2.16,7.28,7.28,0,0,0-.6,3,7.12,7.12,0,0,0,.6,3A5.42,5.42,0,0,0,70.13,70a5.79,5.79,0,0,0,2.21,1.18,9.25,9.25,0,0,0,2.76.38,10.62,10.62,0,0,0,2.32-.27,11.93,11.93,0,0,0,1.84-.54,10.81,10.81,0,0,0,1.35-.64,2.34,2.34,0,0,0,.7-.44Z"></path><path class="cls-1" d="M111,78.45a9.55,9.55,0,0,1-1.46.22c-.75.11-1.67.21-2.81.32s-2.43.22-3.89.27-3,.11-4.64.11a26.12,26.12,0,0,1-6.81-.76A12.75,12.75,0,0,1,87,76.67a6.53,6.53,0,0,1-2.27-2.91,9.22,9.22,0,0,1-.65-3.46c0-3.29,1.08-5.67,3.19-7.12s5.51-2.11,10.1-2.11c1.14,0,2.11,0,2.92.06s1.4.1,1.89.16a3.42,3.42,0,0,0-1.51-3,9.47,9.47,0,0,0-5.14-1.08,22.1,22.1,0,0,0-2.91.16c-.87.16-1.57.33-2.16.49a9.35,9.35,0,0,0-1.46.54,3.8,3.8,0,0,0-.76.43l-.43-.43a4.09,4.09,0,0,1-.65-.87,5.21,5.21,0,0,1-.59-1.13,3.87,3.87,0,0,1-.27-1.4c0-3.13,3.18-4.7,9.61-4.7a29,29,0,0,1,5.89.54,13.4,13.4,0,0,1,4.81,1.94,10.07,10.07,0,0,1,3.19,3.67A12.72,12.72,0,0,1,111,62.15Zm-8.7-11.28c-.32,0-.81-.16-1.4-.21S99.25,66.9,98,66.9a11.81,11.81,0,0,0-2.65.27,4.26,4.26,0,0,0-1.57.7A3,3,0,0,0,93,69a3.2,3.2,0,0,0-.21,1.24,3.6,3.6,0,0,0,.16,1,1.69,1.69,0,0,0,.7,1,4.55,4.55,0,0,0,1.62.7,10,10,0,0,0,2.86.32c.92,0,1.79,0,2.6-.1S102,73,102.27,73Z"></path><path class="cls-1" d="M68.89,78.16a1.35,1.35,0,0,0,.43.23c.23.09.54.18.9.32a4.36,4.36,0,0,0,1.09.28,5.09,5.09,0,0,0,1.13.13,2,2,0,0,0,1.17-.27.93.93,0,0,0,.31-.78,1.05,1.05,0,0,0-.74-1,3.82,3.82,0,0,0-1.56-.32l.66-2.71a11.51,11.51,0,0,1,2.07.18,6.52,6.52,0,0,1,1.9.69,4.05,4.05,0,0,1,1.41,1.24,3.31,3.31,0,0,1,.54,1.93,4,4,0,0,1-1.4,3.25,5.78,5.78,0,0,1-3.9,1.24,10.16,10.16,0,0,1-3.5-.51,5.27,5.27,0,0,1-1.64-.82Z"></path><path class="cls-1" d="M116,44.63a1.93,1.93,0,0,1-1.23-.4,1.51,1.51,0,0,1-.5-1.25,2.43,2.43,0,0,1,.19-1,4,4,0,0,1,.28-.58h26.18a4,4,0,0,1,2.49.62,2.19,2.19,0,0,1,.76,1.81,4.24,4.24,0,0,1-.86,2.38c-.58.83-1.46,1.93-2.65,3.3s-2.48,2.84-3.87,4.4-2.84,3.17-4.32,4.79L128,63.55q-2.25,2.45-4.29,4.6l-3.75,4-2.85,3.06H144v3.23H113.22V74.2q7-7.24,13.87-14.81t13.14-14.76Z"></path><path class="cls-1" d="M155.7,53.91a12.84,12.84,0,0,0-4.78.75,8.69,8.69,0,0,0-2.52,1.41,2.35,2.35,0,0,1-.65-.76,2,2,0,0,1-.29-1.08,1.69,1.69,0,0,1,.29-1,3.07,3.07,0,0,1,.7-.74,7.71,7.71,0,0,1,2.32-.95,17.36,17.36,0,0,1,4.84-.53q6.25,0,9.74,2.64c2.31,1.76,3.47,4.61,3.47,8.53V78.31c-1,.18-2.48.36-4.38.56a62.77,62.77,0,0,1-6.48.3,24.22,24.22,0,0,1-6.75-.76,10.77,10.77,0,0,1-4-2,6.08,6.08,0,0,1-1.89-2.74,10.59,10.59,0,0,1,.11-6.58,6.25,6.25,0,0,1,2-2.73,10.08,10.08,0,0,1,3.75-1.79,22.73,22.73,0,0,1,5.91-.65c.77,0,1.57,0,2.41.08l2.38.16c.75.06,1.43.12,2,.19l1.44.17v-.33a9.15,9.15,0,0,0-.81-4.1,6.78,6.78,0,0,0-2.15-2.56,8,8,0,0,0-3.08-1.3A18.45,18.45,0,0,0,155.7,53.91Zm9.66,11.71c-.31-.07-1.14-.21-2.49-.43a40.29,40.29,0,0,0-6-.32,20.9,20.9,0,0,0-3.52.27,7.88,7.88,0,0,0-2.71.94A4.56,4.56,0,0,0,149,67.89a6,6,0,0,0-.6,2.81A4.68,4.68,0,0,0,150.58,75c1.49.91,4,1.37,7.43,1.37a31.74,31.74,0,0,0,5.09-.29c1.13-.2,1.88-.35,2.26-.46Z"></path><path class="cls-1" d="M172,66.38c0-.87,0-1.63.08-2.3s.11-1.25.18-1.75a15.59,15.59,0,0,1,1.63-4.75A12.29,12.29,0,0,1,176.78,54a12.43,12.43,0,0,1,4-2.24,14.76,14.76,0,0,1,4.87-.78,14,14,0,0,1,5.6,1.1,13.38,13.38,0,0,1,4.39,3,13.78,13.78,0,0,1,2.86,4.48,14.71,14.71,0,0,1,1,5.48,14.87,14.87,0,0,1-1,5.54,13.63,13.63,0,0,1-2.86,4.47,12.89,12.89,0,0,1-4.39,3,14.3,14.3,0,0,1-5.6,1.08,12.61,12.61,0,0,1-6-1.43A10.74,10.74,0,0,1,175.47,74V89.21H172Zm23.77-1.3a13,13,0,0,0-.7-4.29A10.22,10.22,0,0,0,193,57.28a9.66,9.66,0,0,0-3.19-2.34,9.81,9.81,0,0,0-4.21-.87,10,10,0,0,0-4.17.84,9.35,9.35,0,0,0-3.16,2.29,10.37,10.37,0,0,0-2.05,3.48,12.82,12.82,0,0,0-.73,4.4,12.47,12.47,0,0,0,.73,4.29,10.59,10.59,0,0,0,2.07,3.51,10.26,10.26,0,0,0,3.2,2.38,9.38,9.38,0,0,0,4.11.89,10.11,10.11,0,0,0,4.21-.84A9.29,9.29,0,0,0,193,73a10.41,10.41,0,0,0,2.05-3.51A13,13,0,0,0,195.78,65.08Z"></path></g></svg>