<svg xmlns="http://www.w3.org/2000/svg" xmlns:xlink="http://www.w3.org/1999/xlink" viewBox="0 0 200 89.25"><defs><style>.cls-1{fill:url(#linear-gradient);}.cls-2{fill:#636466;}</style><linearGradient id="linear-gradient" x1="184.9" y1="-2.87" x2="155.21" y2="20.6" gradientUnits="userSpaceOnUse"><stop offset="0" stop-color="#00a6ce"></stop><stop offset="0.37" stop-color="#49b993"></stop><stop offset="1" stop-color="#ccdb29"></stop></linearGradient></defs><g id="Layer_1" data-name="Layer 1"><path class="cls-1" d="M176,.42H150a4.81,4.81,0,0,0-4.82,4.81v32.4h0a2.2,2.2,0,0,0,2.21,2.12,1.75,1.75,0,0,0,1.41-.5l9-10.73H176a4.82,4.82,0,0,0,4.82-4.82V5.23A4.81,4.81,0,0,0,176,.42Z"></path><path class="cls-2" d="M.49,88.66V65.55a21.94,21.94,0,0,1,.7-6,13.21,13.21,0,0,1,2-4.27,13.16,13.16,0,0,1,5.24-4.1,17.61,17.61,0,0,1,7.08-1.4,16.55,16.55,0,0,1,5.94,1,15.21,15.21,0,0,1,4.7,3,13.16,13.16,0,0,1,3.14,4.59,15.23,15.23,0,0,1,1.13,5.94,15.74,15.74,0,0,1-1,5.93,13.68,13.68,0,0,1-2.86,4.54,13.6,13.6,0,0,1-4.27,2.91,12.92,12.92,0,0,1-5.18,1,11.25,11.25,0,0,1-5-1,9.89,9.89,0,0,1-3-1.89v12.8Zm14.8-17.77A6,6,0,0,0,19.78,69a6.76,6.76,0,0,0,1.73-4.75,6.53,6.53,0,0,0-1.73-4.69,6.11,6.11,0,0,0-4.49-1.78,6.09,6.09,0,0,0-4.43,1.72,6.36,6.36,0,0,0-1.78,4.75,6.78,6.78,0,0,0,.49,2.59A5.4,5.4,0,0,0,10.86,69a5.59,5.59,0,0,0,2,1.4A5.37,5.37,0,0,0,15.29,70.89Z"></path><path class="cls-2" d="M40.74,67.92a2.38,2.38,0,0,0,.59,1.24,4,4,0,0,0,1.3,1.19,6.35,6.35,0,0,0,2.11.87,13.28,13.28,0,0,0,3.13.32,13.91,13.91,0,0,0,2.65-.27c.81-.16,1.56-.32,2.16-.49a10.62,10.62,0,0,0,1.51-.54,3.29,3.29,0,0,0,.7-.37l3,6c-.27.16-.76.43-1.41.76a23.12,23.12,0,0,1-2.53,1,25.64,25.64,0,0,1-3.52.81,23.1,23.1,0,0,1-4.48.38,16.4,16.4,0,0,1-5.67-1,13.49,13.49,0,0,1-7.73-7.39,15.73,15.73,0,0,1-1.13-6.15,15.23,15.23,0,0,1,1.13-5.94,13,13,0,0,1,3.14-4.59,15.21,15.21,0,0,1,4.7-3,15.77,15.77,0,0,1,5.83-1,17.72,17.72,0,0,1,5.24.75,11.92,11.92,0,0,1,3.94,2.16,10.74,10.74,0,0,1,2.43,3.08A8.67,8.67,0,0,1,58,62.9a5.88,5.88,0,0,1-2.48,2.7,14.53,14.53,0,0,1-4.92,1.73,45.68,45.68,0,0,1-7.94.59Zm-.43-5.61A48.88,48.88,0,0,0,45.93,62a11.35,11.35,0,0,0,3-.7,2.09,2.09,0,0,0,1.19-1,2.6,2.6,0,0,0,.21-1.08,2.52,2.52,0,0,0-1-2,5,5,0,0,0-3.08-.81,6,6,0,0,0-2.54.49,6.29,6.29,0,0,0-1.79,1.35,5.8,5.8,0,0,0-1.13,1.83A7.53,7.53,0,0,0,40.31,62.31Z"></path><path class="cls-2" d="M85.09,75.69c-.38.28-.92.54-1.56.92a13.93,13.93,0,0,1-2.33,1,22.25,22.25,0,0,1-3.18.81,18.77,18.77,0,0,1-9.57-.54,13.3,13.3,0,0,1-8.1-7.29,16.42,16.42,0,0,1,0-12.52,13.19,13.19,0,0,1,3.3-4.53,13.59,13.59,0,0,1,4.86-2.81,17.41,17.41,0,0,1,5.89-1,19.36,19.36,0,0,1,5.4.7,8.71,8.71,0,0,1,3.73,2,7.16,7.16,0,0,1,1,1.24,4,4,0,0,1,.32,1.62A4.32,4.32,0,0,1,84.5,57a5.83,5.83,0,0,1-.81,1.35,9.79,9.79,0,0,1-1,1,8.34,8.34,0,0,1-.92.7,11.11,11.11,0,0,0-2.7-1.84A9.63,9.63,0,0,0,75,57.45a8.51,8.51,0,0,0-2.65.43,5.38,5.38,0,0,0-2.21,1.3,6,6,0,0,0-1.51,2.16,7.77,7.77,0,0,0,0,6,5.46,5.46,0,0,0,1.51,2.1,5.8,5.8,0,0,0,2.21,1.19A9.25,9.25,0,0,0,75.1,71a10.62,10.62,0,0,0,2.32-.27,11.93,11.93,0,0,0,1.84-.54,10.74,10.74,0,0,0,1.35-.65,2.17,2.17,0,0,0,.7-.43Z"></path><path class="cls-2" d="M111,77.91a8.75,8.75,0,0,1-1.46.21c-.75.11-1.67.22-2.81.33s-2.43.21-3.89.27-3,.11-4.64.11a26.12,26.12,0,0,1-6.81-.76A12.94,12.94,0,0,1,87,76.13a6.5,6.5,0,0,1-2.27-2.92,9.17,9.17,0,0,1-.65-3.45c0-3.29,1.08-5.67,3.19-7.13s5.51-2.1,10.1-2.1c1.14,0,2.11,0,2.92,0l1.89.16a3.41,3.41,0,0,0-1.51-3c-1-.71-2.76-1.08-5.14-1.08a22.1,22.1,0,0,0-2.91.16c-.87.16-1.57.32-2.16.48a12,12,0,0,0-1.46.54,4.26,4.26,0,0,0-.76.44l-.43-.44A3.76,3.76,0,0,1,87.2,57a5.21,5.21,0,0,1-.59-1.13,3.89,3.89,0,0,1-.27-1.41c0-3.13,3.18-4.69,9.61-4.69a29,29,0,0,1,5.89.54,13.22,13.22,0,0,1,4.81,1.94,10.07,10.07,0,0,1,3.19,3.67A12.69,12.69,0,0,1,111,61.61Zm-8.7-11.28c-.32-.06-.81-.16-1.4-.22s-1.62,0-2.86,0a11.81,11.81,0,0,0-2.65.27,4.26,4.26,0,0,0-1.57.7A2.9,2.9,0,0,0,93,68.41a3.2,3.2,0,0,0-.21,1.24,3.65,3.65,0,0,0,.16,1,1.72,1.72,0,0,0,.7,1,4.55,4.55,0,0,0,1.62.7,10.39,10.39,0,0,0,2.86.32c.92,0,1.79,0,2.6-.11a11.79,11.79,0,0,0,1.56-.16Z"></path><path class="cls-2" d="M68.89,77.62a2,2,0,0,0,.43.23c.23.09.54.18.9.32a4,4,0,0,0,1.09.27,4.59,4.59,0,0,0,1.13.14,2,2,0,0,0,1.17-.27,1,1,0,0,0,.31-.78,1.06,1.06,0,0,0-.74-1,3.82,3.82,0,0,0-1.56-.32l.66-2.7a10.67,10.67,0,0,1,2.07.18,6.52,6.52,0,0,1,1.9.69,4,4,0,0,1,1.41,1.24,3.28,3.28,0,0,1,.54,1.92,4,4,0,0,1-1.4,3.26,5.82,5.82,0,0,1-3.9,1.23,10.19,10.19,0,0,1-3.5-.5,5.51,5.51,0,0,1-1.64-.82Z"></path><path class="cls-2" d="M116,44.08a1.88,1.88,0,0,1-1.23-.4,1.49,1.49,0,0,1-.5-1.24,2.4,2.4,0,0,1,.19-1,4.93,4.93,0,0,1,.28-.59h26.18a3.92,3.92,0,0,1,2.49.63,2.18,2.18,0,0,1,.76,1.81,4.26,4.26,0,0,1-.86,2.38c-.58.83-1.46,1.92-2.65,3.29s-2.48,2.84-3.87,4.41-2.84,3.16-4.32,4.78-3,3.25-4.48,4.87-2.93,3.15-4.29,4.6l-3.75,4-2.85,3H144v3.24H113.22V73.65q7-7.23,13.87-14.81t13.14-14.76Z"></path><path class="cls-2" d="M155.7,53.37a12.84,12.84,0,0,0-4.78.75,8.46,8.46,0,0,0-2.52,1.41,2.46,2.46,0,0,1-.65-.76,2,2,0,0,1-.29-1.08,1.69,1.69,0,0,1,.29-1,3.31,3.31,0,0,1,.7-.75,8,8,0,0,1,2.32-1,17.75,17.75,0,0,1,4.84-.53q6.25,0,9.74,2.65t3.47,8.53V77.76q-1.53.27-4.38.57a62.77,62.77,0,0,1-6.48.3,24.6,24.6,0,0,1-6.75-.76,10.93,10.93,0,0,1-4-2,6,6,0,0,1-1.89-2.73,10.59,10.59,0,0,1,.11-6.58,6.19,6.19,0,0,1,2-2.73,9.93,9.93,0,0,1,3.75-1.79,22.73,22.73,0,0,1,5.91-.65c.77,0,1.57,0,2.41.08l2.38.16c.75.06,1.43.12,2,.19l1.44.16v-.32a9.13,9.13,0,0,0-.81-4.1A6.82,6.82,0,0,0,162.4,55a8,8,0,0,0-3.08-1.29A17.71,17.71,0,0,0,155.7,53.37Zm9.66,11.71c-.31-.07-1.14-.22-2.49-.43a40,40,0,0,0-6-.33,20.9,20.9,0,0,0-3.52.27,7.89,7.89,0,0,0-2.71,1A4.56,4.56,0,0,0,149,67.35a5.92,5.92,0,0,0-.6,2.8,4.66,4.66,0,0,0,2.23,4.29c1.49.92,4,1.38,7.43,1.38a31.48,31.48,0,0,0,5.09-.3c1.13-.19,1.88-.35,2.26-.46Z"></path><path class="cls-2" d="M172,65.83c0-.86,0-1.62.08-2.29s.11-1.25.18-1.75A15.49,15.49,0,0,1,173.9,57a12.07,12.07,0,0,1,6.86-5.8,14.5,14.5,0,0,1,4.87-.79,14,14,0,0,1,5.6,1.11,13.23,13.23,0,0,1,4.39,3,13.68,13.68,0,0,1,2.86,4.48,15.37,15.37,0,0,1,0,11,13.58,13.58,0,0,1-2.86,4.48,12.89,12.89,0,0,1-4.39,3,14.3,14.3,0,0,1-5.6,1.08,12.61,12.61,0,0,1-6-1.43,10.9,10.9,0,0,1-4.13-3.75V88.67H172Zm23.77-1.29a13,13,0,0,0-.7-4.29A10.22,10.22,0,0,0,193,56.74a9.83,9.83,0,0,0-3.19-2.35,10,10,0,0,0-4.21-.86,10.18,10.18,0,0,0-4.17.83,9.37,9.37,0,0,0-3.16,2.3,10.37,10.37,0,0,0-2.05,3.48,12.82,12.82,0,0,0-.73,4.4,12.47,12.47,0,0,0,.73,4.29,10.59,10.59,0,0,0,2.07,3.51,10.08,10.08,0,0,0,3.2,2.37,9.24,9.24,0,0,0,4.11.89,10.11,10.11,0,0,0,4.21-.83A9.29,9.29,0,0,0,193,72.42a10.61,10.61,0,0,0,2.05-3.51A13,13,0,0,0,195.78,64.54Z"></path></g></svg>