<svg xmlns="http://www.w3.org/2000/svg" id="Camada_1" data-name="Camada 1" viewBox="0 0 600.24 297.36"><defs><style>.cls-1{fill:#fff;fill-rule:evenodd;}</style></defs><path class="cls-1" d="M158.1,280.4,177,232.81a16.31,16.31,0,0,0,.78-3.72h7.89a16.54,16.54,0,0,0-2,3.72l-23.09,58.37a11.25,11.25,0,0,0-1,3.35v.18H148.82a28.83,28.83,0,0,0-1-3.53l-22.68-58.37c-.39-.94-1-2.05-1.78-3.72h16a12.4,12.4,0,0,0,.59,3.72Zm78.11,14.31v-8.92c-2.55,3.17-4.94,5.58-7.3,6.9-3.54,2.21-8.09,3.33-13.61,3.33-7.5,0-13.22-2-17.17-6-3.34-3.34-5.13-8.17-5.13-14.3V233.18a28.16,28.16,0,0,0-.39-4.09h14.6a13.85,13.85,0,0,0-.59,4.09v41.09a13.24,13.24,0,0,0,2.77,8.54c2.37,2.62,5.91,3.91,10.66,3.91A17.37,17.37,0,0,0,231.48,283,12.84,12.84,0,0,0,236,273V233.18a14.18,14.18,0,0,0-.59-4.09H250a21.94,21.94,0,0,0-.4,4.09v57.45a27.91,27.91,0,0,0,.4,4.08Zm45.18-90.54a12.73,12.73,0,0,0-.41,4.1v82.36a13.17,13.17,0,0,0,.41,4.08h-14.6a26.86,26.86,0,0,0,.4-4.08V208.27a27.27,27.27,0,0,0-.4-4.1Zm64.7,87a89.81,89.81,0,0,1-11,3.91,34.55,34.55,0,0,1-8.67.93c-9.67,0-17.36-3-22.69-8.75C297.76,281.14,295,273,295,262.73c0-11.9,3.54-21,10.84-27.33,5.91-5.2,13.82-7.81,23.47-7.81a55.34,55.34,0,0,1,16.77,2.8v9.66a35.48,35.48,0,0,0-8.28-5,19.15,19.15,0,0,0-7.7-1.32c-6.31,0-11.24,2.42-14.79,7.44-3.75,5.2-5.7,12.08-5.7,20.63,0,7.44,1.56,13.75,4.32,18.78,3.34,5.77,8.48,8.73,15.38,8.73a18.74,18.74,0,0,0,8.29-1.67,35.34,35.34,0,0,0,8.48-5.38Zm47.35-5.2c-2.76,3.15-5.32,5.39-7.7,6.5a26.84,26.84,0,0,1-14,3.54c-5.34,0-9.68-1.49-12.84-4.45-4.14-3.54-6.11-8.38-6.11-14.34,0-7.24,3-12.45,8.68-16a25.61,25.61,0,0,1,7.11-3.53c2.16-.94,7.31-2.43,15.18-4.64,3.35-.94,5.73-2.05,7.11-3.54a7.32,7.32,0,0,0,2-5.58,8.72,8.72,0,0,0-3.35-6.88,15.88,15.88,0,0,0-9.27-2.61,24.89,24.89,0,0,0-8.68,1.5,46.68,46.68,0,0,0-9.48,5.58l-2.17-8.37a58.48,58.48,0,0,1,12.24-4.28A46.29,46.29,0,0,1,384,227.59c7.3,0,12.83,1.31,16.77,4.1a12.59,12.59,0,0,1,5.92,11.16v38.86c0,3.9,1.17,5.75,3.95,5.75a8.77,8.77,0,0,0,4.53-2v7.26A19.35,19.35,0,0,1,404.89,296c-3.36,0-5.93-.74-7.7-2.24-1.57-1.47-2.95-4.08-3.75-7.8Zm-.59-30.31a37.11,37.11,0,0,1-3.75,1.87c-.81.18-4.15,1.48-10.26,3.71-4.74,1.67-8.09,3.71-9.85,6.33a12.74,12.74,0,0,0-3,8.37,12.45,12.45,0,0,0,3.16,8.37,11.74,11.74,0,0,0,8.28,3.14,15.06,15.06,0,0,0,12.65-6.13,14.31,14.31,0,0,0,2.75-8.56Z"></path><path class="cls-1" d="M424.42,229.09h13.8v9.29a26,26,0,0,1,6.32-6.88c3.95-2.6,9.07-3.91,15.18-3.91,7.89,0,14,2.26,18.15,6.88,2.57,3,3.75,6.88,3.75,12.1v44.06a13.42,13.42,0,0,0,.59,4.08h-14.6a18.19,18.19,0,0,0,.41-4.08v-42a11.63,11.63,0,0,0-3.35-8.74c-2.38-2.06-5.73-3-9.88-3-5.32,0-9.27,1.29-12,4.07a16.14,16.14,0,0,0-4.33,11.35v38.3a13.73,13.73,0,0,0,.59,4.08H424.42a22.63,22.63,0,0,0,.39-4.08V233.18a29.64,29.64,0,0,0-.39-4.09ZM555,290.44a63.08,63.08,0,0,1-11.84,4.27,55.11,55.11,0,0,1-12,1.31c-11.83,0-20.91-3.33-27-9.85-5.52-5.77-8.3-13.76-8.3-23.79,0-11.18,3.16-19.91,9.47-26,5.73-5.75,13.42-8.74,23.09-8.74,9.27,0,16.58,2.8,21.69,8.38,5.12,5.38,7.9,13.38,8.3,23.62H510c0,7.24,1,13,2.57,17.28,3.36,8.56,10,12.83,20.32,12.83,7.09,0,13.8-2.43,20.11-7.62Zm-44.38-36.61h33.13a35.18,35.18,0,0,0-1.57-9.12,15.93,15.93,0,0,0-6.12-8.38,13.07,13.07,0,0,0-8.5-2.6,14.07,14.07,0,0,0-11.43,5.21c-3.15,3.53-4.92,8.55-5.51,14.89Zm61.74-18.61H561.9v-6.13h10.47V216.44l13.8-1.29C586,217.56,586,219,586,220v9.12h11.25v6.13H586v47.42c0,3.89,1.78,5.94,5.13,5.94a15.25,15.25,0,0,0,6.32-2.05v6.9A29.08,29.08,0,0,1,585.58,296c-4.53,0-7.88-1.12-10.05-3.18s-3.16-5.38-3.16-9.84Z"></path><path class="cls-1" d="M116.7,17.21c24.91,8.9,42.7,31.64,42.7,58.18,0,34.24-29.64,62.34-66,62.34-36.5,0-66.15-28.1-66.15-62.34A59.67,59.67,0,0,1,42,36.3C18.78,53.45,3.8,80.1,3.8,110c0,51.6,44.73,93.75,99.49,93.75s99.32-42.15,99.32-93.75C202.61,62.62,165.14,23.39,116.7,17.21Z"></path><polygon class="cls-1" points="73.48 97.32 44.5 49.66 15.19 2.14 73.48 2.46 131.76 2.14 102.28 49.66 73.48 97.32"></polygon></svg>