<svg xmlns="http://www.w3.org/2000/svg" width="630" height="538" viewBox="0 0 630 538" fill="none"><path d="M81.939 427.435C53.9528 427.712 12.272 412.224 19.3374 377.569C24.1254 354.083 4.27569 332.031 0.678385 308.369C-3.46544 281.105 11.6876 252.208 37.5728 238.021C46.7928 232.966 57.5595 229.357 63.9131 221.442C83.5093 197.034 50.5461 166.719 63.1634 134.113C70.4084 115.39 91.8174 104.969 120.275 106.757C149.497 108.592 177.52 103.202 181.21 76.7233C184.193 55.3207 183.986 40.3549 206.531 22.0353C244.21 -8.58462 337.966 -12.6569 357.008 44.6698C362.521 61.2771 378.373 97.6816 433.177 66.8616C475.848 42.8645 576.935 70.559 544.667 139.907C531.945 167.247 556.94 176.077 595.863 190.198C624.902 200.734 649.256 253.685 589.721 299.046C581.197 305.542 601.162 324.02 609.475 330.741C657.372 369.466 612.31 426.378 567.397 427.435C567.398 427.435 109.935 427.16 81.939 427.435ZM148.15 56.5589C132.3 52.9955 127.242 69.5208 127.823 81.2807C127.937 83.5697 128.071 85.9374 129.137 87.9838C130.651 90.8856 133.818 92.6704 137.042 93.5952C142.262 95.0933 147.883 94.7373 153.201 93.6172C156.594 92.902 160.068 91.7945 162.475 89.3764C172.196 79.6061 159.98 59.2181 148.15 56.5589ZM419.452 49.6069C419.197 53.7548 415.921 57.2836 412.062 59.1157C408.204 60.9478 403.813 61.3794 399.525 61.6945C393.334 62.1482 386.25 62.0899 382.043 57.6727C379.146 54.6291 378.398 50.111 379.072 46.0341C380.762 35.7943 387.308 25.5136 399.418 26.8968C408.467 27.9302 419.996 40.8165 419.452 49.6069ZM434.542 24.8473C433.049 25.824 431.136 26.0808 429.38 25.6885C428.463 25.4878 427.598 25.0994 426.839 24.548C421.739 20.8002 423.722 13.8041 430.205 14.4658C435.432 15.0061 440.457 20.9719 434.542 24.8473ZM590.395 153.786C592.128 156.171 593.372 159.23 592.351 161.97C591.624 163.922 589.844 165.365 587.894 166.231C583.816 168.04 578.968 167.611 574.809 165.985C570.649 164.36 567.06 161.644 563.618 158.862C562.105 157.639 560.561 156.341 559.758 154.596C559.179 153.335 559.027 151.944 558.971 150.572C558.879 148.174 559.075 145.745 559.805 143.452C560.765 140.443 562.603 137.78 564.53 135.241C567.413 131.46 571.539 127.032 576.973 127.939C580.295 128.495 581.022 130.321 581.085 133.324C581.156 136.632 580.345 139.841 581.638 143.059C583.349 147.297 587.741 150.123 590.392 153.786H590.395ZM26.9526 224.196C21.6228 228.607 12.5933 227.877 8.09349 222.671C-7.94632 204.113 6.22711 158.154 36.1065 164.764C47.3126 167.244 55.7388 179.719 50.6815 190.6C47.8371 196.712 40.2865 199.865 36.6939 205.637C32.9769 211.598 32.7218 219.422 26.9526 224.196Z" fill="#EDF2F5"></path><path d="M566.884 86.9053L418.424 30.8819L181.851 30.0065L33.3903 86.028C31.8124 86.595 30.448 87.6353 29.4833 89.0068C28.5186 90.3783 28.0006 92.0142 28 93.6912V282.837C28 284.143 28.3141 285.43 28.9156 286.589C29.5172 287.748 30.3886 288.745 31.4564 289.496C32.5241 290.248 33.757 290.731 35.0508 290.906C36.3445 291.081 37.6614 290.942 38.8902 290.5L181.851 239.172V145.831H417.539V239.172L560.5 290.5C561.729 290.942 563.046 291.081 564.34 290.906C565.633 290.731 566.866 290.248 567.934 289.496C569.002 288.745 569.873 287.748 570.475 286.589C571.076 285.43 571.39 284.143 571.39 282.837V93.6948C571.39 90.2553 569.242 87.1904 566.884 86.9053Z" fill="#C9D8E4"></path><path d="M134.872 316.414H126.15V490.875H134.872V316.414Z" fill="#B0C6DE"></path><path d="M473.231 488.004H481.952V313.543H473.231V488.004Z" fill="#B0C6DE"></path><path d="M413.304 34.8333H187V241.279H413.304V34.8333Z" fill="white"></path><path d="M43.6501 292.608L186.613 241.279V34.8333L38.1502 88.1372C36.5724 88.704 35.208 89.7443 34.2436 91.1159C33.2791 92.4875 32.7616 94.1235 32.7617 95.8003V284.946C32.7617 286.252 33.0757 287.538 33.6772 288.697C34.2786 289.856 35.1499 290.853 36.2175 291.604C37.2851 292.355 38.5178 292.839 39.8113 293.013C41.1049 293.188 42.4215 293.049 43.6501 292.608Z" fill="#F8FAFC"></path><path d="M555.877 292.608L412.916 241.279V34.8333L561.377 88.1372C562.955 88.704 564.319 89.7443 565.283 91.1159C566.248 92.4875 566.765 94.1235 566.765 95.8003V284.946C566.765 286.252 566.451 287.538 565.85 288.697C565.248 289.856 564.377 290.853 563.309 291.604C562.242 292.355 561.009 292.839 559.716 293.013C558.422 293.188 557.105 293.049 555.877 292.608Z" fill="#F8FAFC"></path><path d="M101.41 155.671L55.8884 172.569C55.4923 172.716 55.0664 172.765 54.6472 172.712C54.228 172.659 53.8278 172.505 53.4809 172.263C53.1339 172.022 52.8505 171.701 52.6547 171.326C52.4589 170.951 52.3566 170.535 52.3564 170.112V105.64C52.3565 105.105 52.5202 104.582 52.8255 104.143C53.1309 103.704 53.5634 103.368 54.0649 103.182L99.5843 86.2838C99.9807 86.1367 100.407 86.0877 100.826 86.141C101.246 86.1942 101.646 86.3481 101.993 86.5896C102.34 86.831 102.624 87.1529 102.82 87.5276C103.016 87.9024 103.118 88.319 103.118 88.7419V153.214C103.118 153.749 102.955 154.271 102.649 154.711C102.344 155.15 101.911 155.485 101.41 155.671Z" fill="#C2D4E0"></path><path d="M171.231 129.242L125.715 146.147C125.319 146.294 124.893 146.343 124.474 146.29C124.054 146.237 123.654 146.083 123.307 145.841C122.959 145.6 122.676 145.278 122.48 144.903C122.284 144.528 122.182 144.112 122.182 143.689V79.2093C122.182 78.6743 122.345 78.1522 122.651 77.7131C122.956 77.2739 123.389 76.9389 123.89 76.753L169.404 59.8549C169.8 59.7079 170.226 59.6588 170.645 59.712C171.065 59.7651 171.465 59.9189 171.812 60.1602C172.159 60.4015 172.442 60.7231 172.638 61.0977C172.834 61.4722 172.936 61.8886 172.936 62.3113V126.784C172.936 127.318 172.773 127.84 172.468 128.28C172.164 128.719 171.732 129.055 171.231 129.242Z" fill="#C2D4E0"></path><path d="M176.547 206.711C178.75 186.262 167.692 168.3 151.847 166.592C136.002 164.884 121.372 180.078 119.169 200.527C116.966 220.976 128.025 238.938 143.869 240.646C159.714 242.353 174.345 227.16 176.547 206.711Z" fill="#05A9CC"></path><path d="M146.067 162.126L147.865 203.627L178.939 184.046C178.939 184.046 173.125 158.995 146.067 162.126Z" fill="#9ED04E"></path><path d="M108.797 178.474L54.0393 198.06C52.4387 198.632 51.1158 197.841 51.0884 196.293C51.0591 194.745 52.3327 193.025 53.9315 192.455L108.689 172.869C110.29 172.295 111.613 173.088 111.64 174.636C111.664 176.182 110.396 177.902 108.797 178.474Z" fill="#C2D4E0"></path><path d="M109.08 193.27L54.3207 212.855C52.7219 213.427 51.3972 212.635 51.3716 211.088C51.3424 209.54 52.6141 207.82 54.2147 207.25L108.973 187.663C110.571 187.091 111.896 187.882 111.922 189.43C111.951 190.978 110.679 192.698 109.08 193.27Z" fill="#C2D4E0"></path><path d="M109.362 208.066L54.6043 227.658C53.0036 228.23 51.6807 227.439 51.6533 225.891C51.6241 224.343 52.8977 222.623 54.4965 222.053L109.254 202.467C110.855 201.895 112.178 202.686 112.205 204.234C112.234 205.775 110.961 207.494 109.362 208.066Z" fill="#C2D4E0"></path><path d="M109.655 222.863L54.8949 242.451C53.2961 243.023 51.9714 242.232 51.9458 240.682C51.9166 239.134 53.1883 237.414 54.7889 236.844L109.547 217.257C111.146 216.685 112.47 217.477 112.496 219.025C112.516 220.571 111.244 222.291 109.655 222.863Z" fill="#C2D4E0"></path><path d="M109.927 237.659L55.1687 257.247C53.5681 257.819 52.2452 257.028 52.2178 255.478C52.1885 253.93 53.4621 252.212 55.0609 251.64L109.821 232.044C111.419 231.472 112.744 232.264 112.77 233.812C112.799 235.369 111.525 237.087 109.927 237.659Z" fill="#C2D4E0"></path><path d="M110.202 252.455L55.4428 272.044C53.844 272.616 52.5192 271.824 52.4937 270.276C52.4644 268.726 53.7361 267.008 55.3368 266.438L110.102 246.848C111.701 246.276 113.025 247.067 113.051 248.615C113.082 250.165 111.809 251.883 110.202 252.455Z" fill="#C2D4E0"></path><path fill-rule="evenodd" clip-rule="evenodd" d="M514.253 182.822L434.196 152.884C431.857 152.008 429.964 149.945 429.955 148.276C429.951 146.606 431.843 145.961 434.181 146.836L514.241 176.776C516.579 177.65 518.482 179.713 518.482 181.382C518.485 183.052 516.592 183.697 514.253 182.822ZM514.29 198.782L434.231 168.84C431.892 167.965 429.993 165.903 429.99 164.235C429.986 162.564 431.879 161.919 434.218 162.795L514.275 192.734C516.614 193.608 518.516 195.671 518.516 197.342C518.52 199.011 516.629 199.656 514.29 198.782ZM434.265 184.797L514.325 214.737C516.664 215.611 518.557 214.967 518.553 213.297C518.553 211.626 516.651 209.565 514.312 208.69L434.253 178.75C431.914 177.876 430.021 178.519 430.025 180.19C430.028 181.86 431.927 183.922 434.265 184.797ZM514.359 230.694L434.3 200.754C431.963 199.879 430.063 197.817 430.059 196.147C430.056 194.478 431.949 193.833 434.287 194.706L514.347 224.646C516.685 225.522 518.588 227.583 518.588 229.254C518.591 230.924 516.698 231.569 514.359 230.694ZM434.337 216.711L514.396 246.651C516.733 247.526 518.626 246.881 518.622 245.211C518.622 243.542 516.72 241.479 514.381 240.603L434.322 210.661C431.985 209.786 430.092 210.431 430.096 212.102C430.1 213.768 431.998 215.837 434.337 216.711ZM514.431 262.609L434.372 232.669C432.033 231.794 430.134 229.731 430.131 228.062C430.127 226.392 432.02 225.747 434.359 226.622L514.418 256.562C516.755 257.435 518.659 259.499 518.659 261.169C518.662 262.838 516.77 263.483 514.431 262.609ZM523.355 186.201L549.588 195.803C550.354 196.083 550.957 194.957 550.933 193.288C550.911 191.62 550.27 190.039 549.504 189.759L523.271 180.159C522.505 179.877 521.902 181.003 521.926 182.672C521.948 184.344 522.587 185.921 523.355 186.201ZM549.807 211.758L523.574 202.149C522.808 201.867 522.169 200.288 522.145 198.627C522.121 196.958 522.724 195.832 523.49 196.114L549.723 205.714C550.491 205.996 551.13 207.575 551.154 209.243C551.176 210.914 550.573 212.038 549.807 211.758ZM523.795 218.094L550.028 227.695C550.794 227.976 551.397 226.85 551.373 225.182C551.349 223.513 550.71 221.932 549.944 221.653L523.711 212.051C522.945 211.771 522.342 212.897 522.364 214.565C522.388 216.234 523.028 217.813 523.795 218.094ZM550.248 243.642L524.014 234.04C523.249 233.76 522.604 232.18 522.586 230.511C522.562 228.842 523.165 227.717 523.93 227.998L550.164 237.598C550.931 237.878 551.571 239.459 551.592 241.128C551.616 242.796 551.013 243.922 550.248 243.642ZM524.234 249.988L550.467 259.588C551.234 259.868 551.837 258.744 551.814 257.073C551.79 255.405 551.15 253.826 550.385 253.544L524.151 243.944C523.384 243.663 522.783 244.788 522.805 246.457C522.828 248.127 523.468 249.706 524.234 249.988ZM550.688 275.541L524.455 265.934C523.689 265.652 523.048 264.073 523.026 262.412C523.002 260.743 523.605 259.617 524.371 259.897L550.604 269.499C551.371 269.779 552.011 271.36 552.033 273.028C552.057 274.697 551.454 275.823 550.688 275.541Z" fill="#C2D4E0"></path><path fill-rule="evenodd" clip-rule="evenodd" d="M459.198 145.348L469.39 149.024L469.399 110.878L459.205 107.203L459.198 145.348ZM440.584 138.639L450.778 142.313L450.783 116.131L440.591 112.455L440.584 138.639ZM488.002 155.733L477.81 152.059L477.817 117.976L488.009 121.65L488.002 155.733ZM496.422 158.768L506.614 162.442L506.623 119.331L496.431 115.657L496.422 158.768ZM525.226 169.153L515.034 165.478L515.045 116.498L525.237 120.171L525.226 169.153ZM533.645 172.189L543.838 175.862L543.85 120.336L533.658 116.662L533.645 172.189Z" fill="#9ED04E"></path><path d="M432.063 65.2206V136.854L548.347 179.391" stroke="#C2D4E0" stroke-miterlimit="10"></path><path d="M412.191 273.379L381.254 273.275C381.175 273.274 381.1 273.241 381.045 273.184C380.989 273.127 380.959 273.051 380.96 272.972C380.96 272.932 380.967 272.893 380.982 272.857C380.996 272.82 381.018 272.787 381.046 272.759C381.074 272.731 381.107 272.708 381.143 272.693C381.179 272.678 381.218 272.67 381.258 272.67L412.194 272.774C412.234 272.775 412.273 272.783 412.309 272.798C412.345 272.813 412.378 272.836 412.406 272.864C412.433 272.892 412.455 272.926 412.469 272.962C412.484 272.999 412.491 273.038 412.49 273.078C412.491 273.117 412.483 273.156 412.468 273.193C412.453 273.23 412.431 273.263 412.403 273.291C412.375 273.319 412.342 273.341 412.306 273.356C412.269 273.371 412.23 273.379 412.191 273.379Z" fill="#E6F0FC"></path><path d="M412.993 276.258L382.057 276.152C382.017 276.152 381.978 276.144 381.942 276.128C381.906 276.113 381.873 276.09 381.845 276.062C381.818 276.034 381.796 276.001 381.782 275.964C381.767 275.927 381.76 275.888 381.761 275.849C381.761 275.769 381.792 275.693 381.848 275.636C381.905 275.58 381.981 275.548 382.06 275.547L412.995 275.653C413.035 275.653 413.074 275.661 413.11 275.677C413.146 275.692 413.179 275.715 413.207 275.743C413.234 275.771 413.256 275.805 413.27 275.841C413.285 275.878 413.292 275.917 413.291 275.957C413.291 276.036 413.26 276.112 413.204 276.168C413.148 276.225 413.073 276.257 412.993 276.258Z" fill="#E6F0FC"></path><path d="M413.793 279.135L382.857 279.03C382.777 279.029 382.702 278.996 382.646 278.939C382.591 278.883 382.56 278.806 382.561 278.727C382.56 278.687 382.568 278.648 382.583 278.612C382.598 278.575 382.62 278.542 382.648 278.514C382.676 278.486 382.709 278.464 382.745 278.448C382.782 278.433 382.821 278.425 382.86 278.425L413.797 278.53C413.836 278.53 413.875 278.538 413.911 278.554C413.947 278.569 413.98 278.592 414.008 278.62C414.035 278.648 414.057 278.681 414.071 278.718C414.086 278.755 414.093 278.794 414.093 278.833C414.093 278.913 414.061 278.989 414.005 279.046C413.949 279.102 413.873 279.134 413.793 279.135Z" fill="#E6F0FC"></path><path fill-rule="evenodd" clip-rule="evenodd" d="M380.934 160.216L379.716 160.198C379.722 159.796 379.725 159.393 379.725 158.989C379.725 158.586 379.722 158.183 379.716 157.781L380.934 157.763C380.94 158.171 380.943 158.58 380.943 158.989C380.943 159.399 380.94 159.808 380.934 160.216ZM380.862 155.323L379.645 155.377C379.609 154.572 379.561 153.77 379.501 152.972L380.716 152.881C380.777 153.692 380.825 154.506 380.862 155.323ZM380.498 150.451L379.287 150.578C379.203 149.777 379.107 148.98 378.999 148.186L380.206 148.022C380.315 148.828 380.413 149.638 380.498 150.451ZM379.841 145.607L378.64 145.807C378.508 145.015 378.364 144.226 378.209 143.441L379.404 143.205C379.561 144.001 379.707 144.802 379.841 145.607ZM378.893 140.814L377.706 141.086C377.526 140.304 377.335 139.525 377.132 138.752L378.31 138.443C378.516 139.229 378.71 140.019 378.893 140.814ZM377.655 136.088L376.487 136.432C376.26 135.661 376.021 134.895 375.772 134.135L376.929 133.755C377.182 134.527 377.425 135.305 377.655 136.088ZM376.132 131.447L374.987 131.861C374.714 131.106 374.429 130.355 374.133 129.61L375.265 129.161C375.565 129.917 375.855 130.679 376.132 131.447ZM374.33 126.905L373.212 127.388C372.893 126.651 372.563 125.92 372.223 125.194L373.325 124.677C373.671 125.414 374.006 126.156 374.33 126.905ZM372.254 122.481L371.168 123.031C370.805 122.315 370.432 121.606 370.048 120.902L371.117 120.319C371.507 121.033 371.886 121.754 372.254 122.481ZM369.915 118.191L368.863 118.807C368.458 118.114 368.042 117.428 367.617 116.748L368.649 116.102C369.081 116.791 369.503 117.488 369.915 118.191ZM367.32 114.051L366.308 114.729C365.862 114.062 365.405 113.402 364.939 112.749L365.93 112.041C366.404 112.704 366.867 113.374 367.32 114.051ZM364.481 110.075L363.512 110.812C363.026 110.173 362.53 109.542 362.026 108.919L362.973 108.152C363.485 108.785 363.988 109.426 364.481 110.075ZM361.407 106.276L360.484 107.07C359.961 106.462 359.429 105.862 358.888 105.27L359.787 104.448C360.336 105.049 360.876 105.659 361.407 106.276ZM358.112 102.669L357.238 103.517C356.679 102.942 356.111 102.374 355.536 101.816L356.384 100.942C356.968 101.509 357.544 102.085 358.112 102.669ZM354.605 99.2665L353.784 100.166C353.191 99.6246 352.591 99.0923 351.983 98.5691L352.777 97.6458C353.395 98.1769 354.004 98.7172 354.605 99.2665ZM350.901 96.0805L350.135 97.0273C349.511 96.5228 348.88 96.0276 348.241 95.5417L348.978 94.5723C349.627 95.0655 350.268 95.5683 350.901 96.0805ZM347.012 93.1229L346.304 94.1141C345.651 93.648 344.991 93.1916 344.324 92.7449L345.002 91.7329C345.679 92.1863 346.349 92.6497 347.012 93.1229ZM342.952 90.4046L342.305 91.4366C341.626 91.011 340.939 90.5953 340.247 90.1898L340.862 89.1387C341.565 89.5504 342.262 89.9725 342.952 90.4046ZM338.734 87.936L338.151 89.0052C337.448 88.6217 336.738 88.2484 336.022 87.8857L336.573 86.7993C337.299 87.1676 338.02 87.5466 338.734 87.936ZM334.376 85.7279L333.859 86.8305C333.133 86.4901 332.402 86.1604 331.665 85.8415L332.148 84.7237C332.897 85.0475 333.64 85.3823 334.376 85.7279ZM329.893 83.7882L329.443 84.9202C328.698 84.6244 327.948 84.3396 327.192 84.0659L327.607 82.9207C328.374 83.1987 329.136 83.4879 329.893 83.7882ZM325.298 82.1243L324.919 83.2815C324.158 83.0319 323.392 82.7935 322.621 82.5663L322.966 81.3981C323.748 81.6287 324.526 81.8708 325.298 82.1243ZM320.61 80.7428L320.302 81.921C319.528 81.7184 318.75 81.5271 317.967 81.3474L318.24 80.1604C319.034 80.3429 319.825 80.537 320.61 80.7428ZM315.848 79.6494L315.612 80.8442C314.827 80.689 314.039 80.5453 313.246 80.4133L313.446 79.2119C314.251 79.3459 315.052 79.4918 315.848 79.6494ZM311.031 78.8472L310.867 80.0541C310.073 79.9465 309.276 79.8506 308.475 79.7666L308.602 78.5553C309.415 78.6406 310.225 78.738 311.031 78.8472ZM306.172 78.3372L306.082 79.5517C305.283 79.4921 304.481 79.4442 303.676 79.4083L303.73 78.1916C304.548 78.2281 305.362 78.2767 306.172 78.3372ZM301.291 78.1191L301.272 79.3369C300.87 79.3309 300.467 79.3279 300.064 79.3279C299.66 79.3279 299.258 79.3309 298.855 79.3369L298.837 78.1191C299.245 78.113 299.654 78.11 300.064 78.11C300.474 78.11 300.882 78.113 301.291 78.1191ZM296.397 78.1916L296.452 79.4083C295.647 79.4442 294.845 79.4921 294.046 79.5517L293.956 78.3372C294.766 78.2767 295.58 78.2281 296.397 78.1916ZM291.526 78.5553L291.653 79.7666C290.852 79.8506 290.054 79.9465 289.261 80.0541L289.097 78.8472C289.903 78.738 290.713 78.6406 291.526 78.5553ZM286.682 79.2119L286.882 80.4133C286.089 80.5453 285.3 80.689 284.516 80.8442L284.279 79.6494C285.076 79.4918 285.877 79.3459 286.682 79.2119ZM281.888 80.1604L282.161 81.3474C281.378 81.5271 280.6 81.7184 279.826 81.921L279.518 80.7428C280.303 80.537 281.094 80.3429 281.888 80.1604ZM277.162 81.3981L277.507 82.5663C276.736 82.7935 275.97 83.0319 275.209 83.2815L274.83 82.1243C275.602 81.8708 276.38 81.6287 277.162 81.3981ZM272.521 82.9207L272.936 84.0659C272.18 84.3396 271.43 84.6244 270.685 84.9202L270.235 83.7882C270.992 83.4879 271.754 83.1987 272.521 82.9207ZM267.979 84.7237L268.463 85.8415C267.726 86.1604 266.994 86.4901 266.269 86.8305L265.752 85.7279C266.488 85.3823 267.231 85.0475 267.979 84.7237ZM263.555 86.7993L264.106 87.8857C263.39 88.2484 262.68 88.6217 261.977 89.0052L261.394 87.936C262.108 87.5466 262.828 87.1676 263.555 86.7993ZM259.266 89.1387L259.881 90.1898C259.188 90.5953 258.502 91.011 257.823 91.4366L257.176 90.4046C257.866 89.9725 258.563 89.5504 259.266 89.1387ZM255.126 91.7329L255.804 92.7449C255.137 93.1916 254.476 93.648 253.824 94.1141L253.116 93.1229C253.779 92.6497 254.449 92.1863 255.126 91.7329ZM251.149 94.5723C250.501 95.0655 249.86 95.5683 249.227 96.0805L249.993 97.0273C250.617 96.5228 251.248 96.0275 251.887 95.5417L251.149 94.5723ZM247.351 97.6458L248.145 98.5691C247.537 99.0923 246.936 99.6246 246.344 100.166L245.523 99.2665C246.124 98.7172 246.733 98.1769 247.351 97.6458ZM243.744 100.942L244.592 101.816C244.016 102.374 243.449 102.942 242.89 103.517L242.016 102.669C242.583 102.085 243.159 101.509 243.744 100.942ZM240.341 104.448L241.24 105.27C240.699 105.862 240.167 106.462 239.644 107.07L238.72 106.276C239.252 105.659 239.792 105.049 240.341 104.448ZM237.155 108.152L238.102 108.919C237.597 109.542 237.102 110.173 236.616 110.812L235.647 110.075C236.14 109.426 236.643 108.785 237.155 108.152ZM234.197 112.041L235.189 112.749C234.723 113.402 234.266 114.062 233.82 114.729L232.807 114.051C233.261 113.374 233.724 112.704 234.197 112.041ZM231.479 116.102L232.511 116.748C232.086 117.428 231.67 118.114 231.264 118.807L230.213 118.191C230.625 117.488 231.047 116.791 231.479 116.102ZM229.011 120.319L230.08 120.902C229.696 121.606 229.323 122.315 228.96 123.031L227.874 122.481C228.242 121.754 228.621 121.033 229.011 120.319ZM226.802 124.677L227.905 125.194C227.565 125.92 227.235 126.651 226.916 127.388L225.798 126.905C226.122 126.156 226.457 125.414 226.802 124.677ZM224.863 129.161L225.995 129.61C225.699 130.355 225.414 131.106 225.14 131.861L223.995 131.447C224.273 130.679 224.562 129.917 224.863 129.161ZM223.199 133.755L224.356 134.135C224.107 134.895 223.868 135.661 223.641 136.432L222.473 136.088C222.703 135.305 222.945 134.527 223.199 133.755ZM221.817 138.443L222.996 138.752C222.793 139.525 222.602 140.304 222.422 141.086L221.235 140.814C221.417 140.019 221.612 139.229 221.817 138.443ZM220.724 143.205L221.919 143.441C221.764 144.226 221.62 145.015 221.488 145.807L220.286 145.607C220.421 144.802 220.566 144.001 220.724 143.205ZM219.922 148.022L221.129 148.186C221.021 148.98 220.925 149.777 220.841 150.578L219.63 150.451C219.715 149.638 219.813 148.828 219.922 148.022ZM219.412 152.881L220.626 152.972C220.567 153.77 220.519 154.572 220.483 155.377L219.266 155.323C219.303 154.506 219.351 153.692 219.412 152.881ZM219.194 157.763C219.188 158.171 219.185 158.58 219.185 158.989C219.185 159.399 219.188 159.808 219.194 160.216L220.411 160.198C220.405 159.796 220.402 159.393 220.402 158.989C220.402 158.586 220.405 158.183 220.411 157.781L219.194 157.763ZM219.266 162.656L220.483 162.602C220.519 163.407 220.567 164.208 220.626 165.007L219.412 165.098C219.351 164.287 219.303 163.473 219.266 162.656ZM219.63 167.527L220.841 167.4C220.925 168.201 221.021 168.999 221.129 169.793L219.922 169.956C219.813 169.15 219.715 168.341 219.63 167.527ZM220.286 172.371L221.488 172.171C221.62 172.964 221.764 173.753 221.919 174.538L220.724 174.774C220.566 173.977 220.421 173.176 220.286 172.371ZM221.235 177.165L222.422 176.892C222.602 177.675 222.793 178.453 222.996 179.227L221.817 179.535C221.612 178.75 221.417 177.96 221.235 177.165ZM222.473 181.891L223.641 181.547C223.868 182.317 224.107 183.083 224.356 183.844L223.199 184.224C222.945 183.451 222.703 182.674 222.473 181.891ZM223.995 186.532L225.14 186.117C225.414 186.873 225.699 187.624 225.995 188.369L224.863 188.818C224.562 188.061 224.273 187.299 223.995 186.532ZM225.798 191.074L226.916 190.59C227.235 191.327 227.565 192.059 227.905 192.784L226.802 193.302C226.457 192.565 226.122 191.822 225.798 191.074ZM227.874 195.498L228.96 194.947C229.323 195.663 229.696 196.373 230.08 197.076L229.011 197.659C228.621 196.945 228.242 196.225 227.874 195.498ZM230.213 199.787L231.264 199.172C231.67 199.865 232.086 200.551 232.511 201.23L231.479 201.877C231.047 201.187 230.625 200.491 230.213 199.787ZM232.807 203.927L233.82 203.25C234.266 203.917 234.723 204.577 235.189 205.229L234.197 205.937C233.724 205.275 233.261 204.604 232.807 203.927ZM235.647 207.904L236.616 207.166C237.102 207.805 237.597 208.437 238.102 209.06L237.155 209.826C236.643 209.193 236.14 208.552 235.647 207.904ZM238.72 211.702L239.644 210.908C240.167 211.516 240.699 212.117 241.24 212.709L240.341 213.53C239.792 212.929 239.252 212.32 238.72 211.702ZM242.016 215.309L242.89 214.461C243.449 215.037 244.016 215.604 244.592 216.163L243.744 217.037C243.159 216.47 242.583 215.894 242.016 215.309ZM245.523 218.712L246.344 217.813C246.936 218.354 247.537 218.886 248.145 219.41L247.351 220.333C246.733 219.802 246.124 219.261 245.523 218.712ZM249.227 221.898L249.993 220.951C250.617 221.456 251.248 221.951 251.887 222.437L251.149 223.406C250.501 222.913 249.86 222.41 249.227 221.898ZM253.116 224.856L253.824 223.865C254.476 224.331 255.136 224.787 255.804 225.234L255.126 226.246C254.449 225.792 253.779 225.329 253.116 224.856ZM257.176 227.574L257.823 226.542C258.502 226.968 259.188 227.383 259.881 227.789L259.266 228.84C258.563 228.428 257.866 228.006 257.176 227.574ZM261.394 230.043L261.977 228.973C262.68 229.357 263.39 229.73 264.106 230.093L263.555 231.179C262.828 230.811 262.108 230.432 261.394 230.043ZM265.752 232.251L266.269 231.148C266.994 231.489 267.726 231.818 268.463 232.137L267.979 233.255C267.231 232.931 266.488 232.596 265.752 232.251ZM270.235 234.19L270.685 233.058C271.43 233.354 272.18 233.639 272.936 233.913L272.521 235.058C271.754 234.78 270.992 234.491 270.235 234.19ZM274.83 235.854L275.209 234.697C275.97 234.947 276.736 235.185 277.507 235.412L277.162 236.581C276.38 236.35 275.602 236.108 274.83 235.854ZM279.518 237.236L279.826 236.058C280.6 236.26 281.378 236.452 282.161 236.631L281.888 237.818C281.093 237.636 280.303 237.442 279.518 237.236ZM284.279 238.329L284.516 237.134C285.3 237.29 286.089 237.433 286.882 237.565L286.682 238.767C285.877 238.633 285.076 238.487 284.279 238.329ZM289.097 239.131L289.261 237.925C290.054 238.032 290.852 238.128 291.653 238.212L291.526 239.423C290.713 239.338 289.903 239.241 289.097 239.131ZM293.956 239.641L294.046 238.427C294.845 238.487 295.647 238.534 296.452 238.57L296.397 239.787C295.58 239.751 294.766 239.702 293.956 239.641ZM298.837 239.86L298.855 238.642C299.258 238.648 299.66 238.651 300.064 238.651C300.467 238.651 300.87 238.648 301.272 238.642L301.291 239.86C300.882 239.866 300.473 239.869 300.064 239.869C299.654 239.869 299.245 239.866 298.837 239.86ZM303.73 239.787L303.676 238.57C304.481 238.534 305.283 238.487 306.082 238.427L306.172 239.641C305.362 239.702 304.548 239.751 303.73 239.787ZM308.602 239.423L308.475 238.212C309.276 238.128 310.073 238.032 310.867 237.925L311.031 239.131C310.225 239.241 309.415 239.338 308.602 239.423ZM313.446 238.767L313.246 237.565C314.039 237.433 314.827 237.29 315.612 237.134L315.848 238.329C315.052 238.487 314.251 238.633 313.446 238.767ZM318.24 237.818L317.967 236.631C318.75 236.452 319.528 236.26 320.302 236.058L320.61 237.236C319.825 237.442 319.034 237.636 318.24 237.818ZM322.966 236.581L322.621 235.412C323.392 235.185 324.158 234.947 324.919 234.697L325.298 235.854C324.526 236.108 323.748 236.35 322.966 236.581ZM327.607 235.058C328.374 234.78 329.136 234.491 329.892 234.19L329.443 233.058C328.698 233.354 327.948 233.639 327.192 233.913L327.607 235.058ZM332.148 233.255L331.665 232.137C332.402 231.818 333.133 231.489 333.859 231.148L334.376 232.251C333.64 232.596 332.897 232.931 332.148 233.255ZM336.573 231.179C337.299 230.811 338.02 230.432 338.734 230.043L338.151 228.973C337.448 229.357 336.738 229.73 336.022 230.093L336.573 231.179ZM340.862 228.84L340.247 227.789C340.939 227.383 341.626 226.968 342.305 226.542L342.952 227.574C342.262 228.006 341.565 228.428 340.862 228.84ZM345.002 226.246L344.324 225.234C344.991 224.787 345.651 224.331 346.304 223.865L347.012 224.856C346.349 225.329 345.679 225.792 345.002 226.246ZM348.978 223.406L348.241 222.437C348.88 221.951 349.511 221.456 350.135 220.951L350.901 221.898C350.268 222.41 349.627 222.913 348.978 223.406ZM352.777 220.333L351.983 219.41C352.591 218.886 353.191 218.354 353.784 217.813L354.605 218.712C354.004 219.261 353.394 219.802 352.777 220.333ZM356.384 217.037L355.536 216.163C356.111 215.604 356.679 215.037 357.238 214.461L358.112 215.309C357.544 215.894 356.968 216.47 356.384 217.037ZM359.787 213.53L358.888 212.709C359.429 212.117 359.961 211.516 360.484 210.908L361.407 211.702C360.876 212.32 360.336 212.929 359.787 213.53ZM362.973 209.826L362.026 209.06C362.53 208.437 363.026 207.805 363.512 207.166L364.481 207.904C363.988 208.552 363.485 209.193 362.973 209.826ZM365.93 205.937L364.939 205.229C365.405 204.577 365.862 203.917 366.308 203.25L367.32 203.927C366.867 204.604 366.404 205.275 365.93 205.937ZM368.649 201.877L367.617 201.23C368.042 200.551 368.458 199.865 368.863 199.172L369.915 199.787C369.503 200.491 369.081 201.187 368.649 201.877ZM371.117 197.659L370.048 197.076C370.432 196.373 370.805 195.663 371.168 194.947L372.254 195.498C371.886 196.225 371.507 196.945 371.117 197.659ZM373.325 193.302L372.223 192.784C372.563 192.059 372.893 191.327 373.212 190.59L374.33 191.074C374.006 191.822 373.671 192.565 373.325 193.302ZM375.265 188.818L374.133 188.369C374.429 187.624 374.714 186.873 374.987 186.117L376.132 186.532C375.855 187.299 375.565 188.061 375.265 188.818ZM376.929 184.224L375.772 183.844C376.021 183.083 376.26 182.317 376.487 181.547L377.655 181.891C377.425 182.674 377.182 183.451 376.929 184.224ZM378.31 179.535L377.132 179.227C377.335 178.453 377.526 177.675 377.706 176.892L378.893 177.165C378.71 177.96 378.516 178.75 378.31 179.535ZM379.404 174.774L378.209 174.538C378.364 173.753 378.508 172.964 378.64 172.171L379.841 172.371C379.707 173.176 379.561 173.977 379.404 174.774ZM380.206 169.956L378.999 169.793C379.107 168.999 379.203 168.201 379.287 167.4L380.498 167.527C380.413 168.341 380.315 169.15 380.206 169.956ZM380.716 165.098L379.501 165.007C379.561 164.208 379.609 163.407 379.645 162.602L380.862 162.656C380.825 163.473 380.777 164.287 380.716 165.098Z" fill="#D6E2EB"></path><path d="M360.723 158.989C360.723 192.491 333.565 219.649 300.064 219.649C266.562 219.649 239.404 192.491 239.404 158.989C239.404 125.488 266.562 98.3298 300.064 98.3298C333.565 98.3298 360.723 125.488 360.723 158.989Z" fill="#D6E2EB"></path><path d="M360.723 158.989C360.723 192.491 333.565 219.649 300.064 219.649C266.562 219.649 239.404 192.491 239.404 158.989C239.404 125.488 266.562 98.3298 300.064 98.3298C333.565 98.3298 360.723 125.488 360.723 158.989Z" fill="#F8FAFC"></path><path fill-rule="evenodd" clip-rule="evenodd" d="M300.064 217.213C332.22 217.213 358.287 191.145 358.287 158.989C358.287 126.833 332.22 100.766 300.064 100.766C267.908 100.766 241.84 126.833 241.84 158.989C241.84 191.145 267.908 217.213 300.064 217.213ZM300.064 219.649C333.565 219.649 360.723 192.491 360.723 158.989C360.723 125.488 333.565 98.3298 300.064 98.3298C266.562 98.3298 239.404 125.488 239.404 158.989C239.404 192.491 266.562 219.649 300.064 219.649Z" fill="#D6E2EB"></path><path fill-rule="evenodd" clip-rule="evenodd" d="M298.847 99.0881L298.847 54.0989L301.283 54.0989L301.283 99.0881L298.847 99.0881Z" fill="#D6E2EB"></path><path fill-rule="evenodd" clip-rule="evenodd" d="M207.224 209.226L247.098 186.205L248.316 188.315L208.442 211.336L207.224 209.226Z" fill="#D6E2EB"></path><path fill-rule="evenodd" clip-rule="evenodd" d="M348.629 126.4L391.201 101.821L392.419 103.931L349.847 128.51L348.629 126.4Z" fill="#D6E2EB"></path><path fill-rule="evenodd" clip-rule="evenodd" d="M202.06 103.931L247.693 130.277L248.911 128.168L203.278 101.821L202.06 103.931Z" fill="#D6E2EB"></path><path fill-rule="evenodd" clip-rule="evenodd" d="M349.387 189.804L391.959 214.384L393.177 212.274L350.604 187.695L349.387 189.804Z" fill="#D6E2EB"></path><path d="M279.424 127.66C275.045 127.634 271.53 131.208 271.504 135.589L271.511 188.865C271.597 190.779 273.18 192.381 275.131 192.344C276.859 192.325 277.437 191.552 277.437 191.552L292.248 173.89L322.031 173.881C326.41 173.906 329.925 170.333 329.951 165.951L329.965 135.574C329.941 131.231 326.419 127.674 322.041 127.649L279.424 127.66Z" fill="url(#paint0_linear_64_4021)"></path><circle cx="222.747" cy="201.704" r="22.7473" fill="#00AFF0"></circle><path d="M231.487 207.14L227.422 203.444C227.23 203.269 226.978 203.176 226.718 203.184C226.459 203.192 226.212 203.301 226.031 203.487L223.638 205.948C223.062 205.838 221.904 205.477 220.712 204.288C219.52 203.095 219.159 201.934 219.052 201.362L221.511 198.968C221.698 198.787 221.806 198.541 221.814 198.281C221.822 198.022 221.729 197.769 221.554 197.577L217.859 193.513C217.684 193.32 217.441 193.204 217.181 193.187C216.922 193.171 216.666 193.257 216.468 193.426L214.298 195.287C214.125 195.461 214.022 195.691 214.008 195.936C213.993 196.186 213.707 202.108 218.299 206.702C222.305 210.707 227.323 211 228.705 211C228.907 211 229.031 210.994 229.064 210.992C229.309 210.978 229.54 210.875 229.712 210.701L231.572 208.53C231.742 208.333 231.829 208.077 231.813 207.818C231.797 207.558 231.68 207.315 231.487 207.14Z" fill="white"></path><circle cx="377.152" cy="110.209" r="22.7473" fill="#C32AA3"></circle><path d="M377.152 105.1C374.308 105.1 372.043 107.41 372.043 110.209C372.043 113.052 374.308 115.318 377.152 115.318C379.951 115.318 382.261 113.052 382.261 110.209C382.261 107.41 379.951 105.1 377.152 105.1ZM377.152 113.541C375.33 113.541 373.82 112.075 373.82 110.209C373.82 108.387 375.286 106.921 377.152 106.921C378.973 106.921 380.44 108.387 380.44 110.209C380.44 112.075 378.973 113.541 377.152 113.541ZM383.638 104.922C383.638 104.256 383.105 103.722 382.439 103.722C381.772 103.722 381.239 104.256 381.239 104.922C381.239 105.588 381.772 106.122 382.439 106.122C383.105 106.122 383.638 105.588 383.638 104.922ZM387.015 106.122C386.926 104.522 386.571 103.1 385.416 101.945C384.26 100.79 382.839 100.435 381.239 100.346C379.595 100.257 374.664 100.257 373.02 100.346C371.421 100.435 370.043 100.79 368.844 101.945C367.689 103.1 367.333 104.522 367.244 106.122C367.156 107.765 367.156 112.697 367.244 114.341C367.333 115.94 367.689 117.317 368.844 118.517C370.043 119.672 371.421 120.028 373.02 120.116C374.664 120.205 379.595 120.205 381.239 120.116C382.839 120.028 384.26 119.672 385.416 118.517C386.571 117.317 386.926 115.94 387.015 114.341C387.104 112.697 387.104 107.765 387.015 106.122ZM384.882 116.073C384.571 116.962 383.861 117.628 383.016 117.984C381.684 118.517 378.574 118.384 377.152 118.384C375.686 118.384 372.576 118.517 371.287 117.984C370.399 117.628 369.732 116.962 369.377 116.073C368.844 114.785 368.977 111.675 368.977 110.209C368.977 108.787 368.844 105.677 369.377 104.344C369.732 103.5 370.399 102.834 371.287 102.478C372.576 101.945 375.686 102.079 377.152 102.079C378.574 102.079 381.684 101.945 383.016 102.478C383.861 102.789 384.527 103.5 384.882 104.344C385.416 105.677 385.282 108.787 385.282 110.209C385.282 111.675 385.416 114.785 384.882 116.073Z" fill="white"></path><circle cx="300.064" cy="67.7473" r="22.7473" fill="#25D366"></circle><path d="M306.994 60.7276C305.173 58.8616 302.685 57.7954 300.019 57.7954C294.599 57.7954 290.156 62.2382 290.156 67.6585C290.156 69.4356 290.644 71.1239 291.489 72.59L290.111 77.6993L295.309 76.3664C296.776 77.1217 298.375 77.566 300.019 77.566C305.484 77.566 310.015 73.1231 310.015 67.7029C310.015 65.0372 308.86 62.5936 306.994 60.7276ZM300.019 75.8777C298.553 75.8777 297.131 75.4778 295.843 74.7226L295.576 74.5449L292.466 75.389L293.31 72.3679L293.088 72.0569C292.288 70.724 291.844 69.2134 291.844 67.6585C291.844 63.1712 295.532 59.4836 300.063 59.4836C302.24 59.4836 304.284 60.3278 305.839 61.8828C307.394 63.4378 308.327 65.4815 308.327 67.7029C308.327 72.1901 304.551 75.8777 300.019 75.8777ZM304.551 69.7466C304.284 69.6133 303.084 69.0357 302.862 68.9469C302.64 68.858 302.462 68.8136 302.285 69.0802C302.151 69.3023 301.663 69.8799 301.529 70.0576C301.352 70.1909 301.218 70.2353 300.996 70.102C299.53 69.3912 298.597 68.8136 297.62 67.1697C297.353 66.7255 297.886 66.7699 298.331 65.8369C298.419 65.6592 298.375 65.5259 298.331 65.3926C298.286 65.2593 297.753 64.0598 297.575 63.571C297.353 63.0823 297.175 63.1268 296.998 63.1268C296.864 63.1268 296.687 63.1268 296.553 63.1268C296.376 63.1268 296.109 63.1712 295.887 63.4378C295.665 63.7043 295.043 64.2819 295.043 65.4815C295.043 66.7255 295.887 67.8806 296.02 68.0583C296.154 68.1916 297.753 70.6796 300.241 71.7459C301.796 72.4567 302.418 72.5011 303.218 72.3679C303.662 72.3234 304.639 71.7903 304.862 71.2127C305.084 70.6352 305.084 70.1464 304.995 70.0576C304.95 69.9243 304.773 69.8799 304.551 69.7466Z" fill="white"></path><circle cx="222.976" cy="110.209" r="22.7473" fill="#4267B2"></circle><path d="M233.994 110.209C233.994 104.122 229.063 99.1907 222.976 99.1907C216.89 99.1907 211.958 104.122 211.958 110.209C211.958 115.718 215.957 120.294 221.244 121.094V113.408H218.445V110.209H221.244V107.81C221.244 105.055 222.887 103.5 225.375 103.5C226.619 103.5 227.863 103.722 227.863 103.722V106.433H226.486C225.109 106.433 224.665 107.277 224.665 108.165V110.209H227.73L227.241 113.408H224.665V121.094C229.951 120.294 233.994 115.718 233.994 110.209Z" fill="white"></path><circle cx="377.253" cy="201.793" r="22.7473" fill="#FB660A"></circle><path fill-rule="evenodd" clip-rule="evenodd" d="M377.343 191.936C380.002 191.936 382.498 192.971 384.379 194.852C386.26 196.733 387.299 199.229 387.299 201.888C387.299 204.548 386.264 207.043 384.384 208.923C382.464 210.843 379.914 211.84 377.339 211.84C375.735 211.84 374.119 211.453 372.643 210.658C371.317 211.613 370.021 211.819 369.141 211.819C368.813 211.819 368.543 211.79 368.354 211.76C367.95 211.697 367.638 211.381 367.575 210.978C367.512 210.574 367.718 210.182 368.084 210.001C368.846 209.627 369.359 208.878 369.68 208.234C366.417 204.307 366.67 198.488 370.307 194.852C372.188 192.971 374.683 191.936 377.343 191.936ZM373.044 209.209C376.375 211.167 380.609 210.623 383.343 207.888C386.653 204.578 386.653 199.197 383.34 195.888C380.033 192.578 374.648 192.578 371.338 195.888C368.169 199.056 368.015 204.161 370.981 207.512C371.059 207.601 371.103 207.71 371.116 207.819C371.143 207.933 371.135 208.054 371.086 208.172C370.782 208.865 370.264 209.756 369.441 210.356H369.446C370.159 210.356 371.237 210.178 372.334 209.327C372.346 209.315 372.363 209.303 372.379 209.294C372.554 209.12 372.825 209.08 373.044 209.209ZM378.04 201.89C378.04 201.504 377.727 201.191 377.341 201.191C376.955 201.191 376.642 201.504 376.642 201.89C376.642 202.275 376.955 202.588 377.341 202.588C377.727 202.588 378.04 202.275 378.04 201.89ZM380.946 201.191C381.332 201.191 381.645 201.504 381.645 201.89C381.645 202.275 381.332 202.588 380.946 202.588C380.56 202.588 380.247 202.275 380.247 201.89C380.247 201.504 380.56 201.191 380.946 201.191ZM374.434 201.89C374.434 201.504 374.12 201.191 373.734 201.191C373.349 201.191 373.036 201.504 373.036 201.89C373.036 202.275 373.349 202.588 373.734 202.588C374.12 202.588 374.434 202.275 374.434 201.89Z" fill="white"></path><path d="M413.905 470.909C430.926 470.909 444.724 466.489 444.724 461.038C444.724 455.586 430.926 451.167 413.905 451.167C396.883 451.167 383.085 455.586 383.085 461.038C383.085 466.489 396.883 470.909 413.905 470.909Z" fill="#EDF2F5"></path><path d="M299.212 481.334C329.327 481.334 353.74 473.515 353.74 463.871C353.74 454.226 329.327 446.408 299.212 446.408C269.097 446.408 244.685 454.226 244.685 463.871C244.685 473.515 269.097 481.334 299.212 481.334Z" fill="#EDF2F5"></path><path d="M299.508 538C329.623 538 354.036 530.182 354.036 520.537C354.036 510.893 329.623 503.074 299.508 503.074C269.393 503.074 244.98 510.893 244.98 520.537C244.98 530.182 269.393 538 299.508 538Z" fill="#EDF2F5"></path><path d="M256.074 455.891C256.074 455.891 254.064 453.72 251.08 456.747C248.096 459.773 249.435 464.24 249.435 464.24L255.283 470.669C255.283 470.669 260.351 474.69 265.345 471.13C267.022 469.83 265.528 460.358 265.528 460.358L256.074 455.891Z" fill="#0252A9"></path><path d="M255.1 451.154V460.365C255.1 460.365 260.466 462.668 265.535 460.365V451.549L255.1 451.154Z" fill="#F5C5CE"></path><path d="M257.192 340.065C257.192 340.065 246.459 337.872 245.563 347.938C244.668 358.005 253.258 454.305 253.258 454.305H266.962C266.962 454.305 270.616 349.766 266.962 344.773C263.307 339.78 257.192 340.065 257.192 340.065Z" fill="#13365C"></path><path d="M338.366 455.891C338.366 455.891 340.376 453.72 343.362 456.747C346.348 459.773 345.006 464.24 345.006 464.24L339.159 470.669C339.159 470.669 334.091 474.69 329.095 471.13C327.419 469.83 328.912 460.358 328.912 460.358L338.366 455.891Z" fill="#0252A9"></path><path d="M339.335 451.154V460.365C339.335 460.365 333.968 462.668 328.897 460.365V451.549L339.335 451.154Z" fill="#F5C5CE"></path><path d="M337.248 340.065C337.248 340.065 347.983 337.872 348.876 347.938C349.77 358.005 341.184 454.305 341.184 454.305H327.48C327.48 454.305 323.825 349.766 327.48 344.773C331.134 339.78 337.248 340.065 337.248 340.065Z" fill="#13365C"></path><path d="M293.927 433.958V466.04H304.499V437.164C300.795 434.36 296.889 433.812 293.927 433.958Z" fill="#93B2D2"></path><path d="M260.706 525.514C265.221 525.514 268.881 521.469 268.881 516.478C268.881 511.488 265.221 507.443 260.706 507.443C256.191 507.443 252.531 511.488 252.531 516.478C252.531 521.469 256.191 525.514 260.706 525.514Z" fill="#E2EBF3"></path><path d="M307.892 524.597C307.892 529.586 304.237 533.632 299.717 533.632C295.196 533.632 291.542 529.586 291.542 524.597C291.542 519.607 295.196 515.559 299.717 515.559C304.237 515.559 307.892 519.605 307.892 524.597Z" fill="#E2EBF3"></path><path d="M346.489 516.478C346.489 521.47 342.835 525.514 338.313 525.514C333.79 525.514 330.138 521.47 330.138 516.478C330.138 511.487 333.792 507.443 338.313 507.443C342.833 507.443 346.489 511.485 346.489 516.478Z" fill="#E2EBF3"></path><path d="M291.99 465.883C291.99 465.883 299.125 462.973 306.701 465.883L306.907 476.101L344.027 506.734V514.009H333.064L332.917 508.415L304.495 486.199L304.678 514.009L303.269 520.543H295.869L294.504 514.075L294.195 486.974L265.917 508.183L265.799 513.616L255.648 513.678V505.984L292.056 476.233V470.103L291.99 465.883Z" fill="#A5BFDA"></path><path d="M199.61 271.121H190.889V445.582H199.61V271.121Z" fill="#93B2D2"></path><path d="M408.493 443.93H417.214V269.468H408.493V443.93Z" fill="#93B2D2"></path><path d="M267.628 382.732L257.916 390.043L255.404 394.502C255.404 394.502 253.046 396.291 253.046 404.494V420.746C253.046 420.746 252.557 429.018 261.876 432.299C271.194 435.579 307.879 440.13 335.013 434.017C342.169 431.93 345.896 428.351 345.896 425.061V402.712C345.896 402.712 346.342 396.152 345.151 393.766C343.959 391.379 340.23 386.013 340.23 386.013L267.628 382.732Z" fill="#B0C6DE"></path><path d="M260.995 399.842C257.039 399.442 255.076 398.092 254.114 396.723C253.565 398.225 253.046 400.659 253.046 404.503V420.756C253.046 420.756 252.557 429.027 261.876 432.308C271.194 435.588 307.879 440.139 335.013 434.026C342.169 431.939 345.896 428.36 345.896 425.071V402.714C346.009 400.853 346.001 398.986 345.871 397.127C344.491 397.848 342.34 398.563 339.039 399.172C310.527 405.433 269.828 400.732 260.995 399.842Z" fill="#E2EBF3"></path><path d="M498.479 306.684H113.053L184.74 269.47H429.379L498.479 306.684Z" fill="#E2EBF3"></path><path d="M498.479 306.684H113.053V318.033H498.479V306.684Z" fill="#C6D6E7"></path><path d="M450.715 381.806C450.713 382.362 450.605 382.913 450.396 383.429C447.989 389.569 432.098 394.312 412.854 394.312C393.381 394.312 377.34 389.456 375.233 383.209L374.992 381.806C374.992 374.899 391.943 369.298 412.854 369.298C433.764 369.298 450.715 374.899 450.715 381.806Z" fill="#FB5D04"></path><path d="M450.4 383.429L437.343 460.323C413.549 473.873 388.373 460.323 388.373 460.323L375.241 383.209C377.348 389.456 393.389 394.312 412.862 394.312C432.106 394.312 447.997 389.569 450.404 383.429H450.4Z" fill="#FC7C34"></path><path d="M266.175 357.764C266.175 357.764 259.179 361.289 261.691 375.579C264.203 389.869 283.466 390.427 283.466 390.427C283.466 390.427 310.035 395.251 324.322 389.127C338.609 383.003 342.594 374.077 338.465 361.744C334.335 349.411 266.175 357.764 266.175 357.764Z" fill="#13365C"></path><path d="M311.757 366.478H290.736V402.116H311.757V366.478Z" fill="#93B2D2"></path><path d="M372.235 273.935H408.558L419.456 301.888H377.205L372.235 273.935Z" fill="#B022F3"></path><path d="M377.826 270.622H414.149L425.047 298.575H382.796L377.826 270.622Z" fill="white"></path><path d="M414.594 282.013L383.657 281.907C383.618 281.907 383.579 281.898 383.543 281.883C383.507 281.867 383.474 281.845 383.447 281.817C383.419 281.789 383.397 281.755 383.383 281.719C383.368 281.682 383.361 281.643 383.361 281.604C383.362 281.524 383.393 281.448 383.45 281.392C383.506 281.335 383.582 281.303 383.661 281.302L414.597 281.406C414.677 281.408 414.753 281.441 414.808 281.498C414.864 281.555 414.895 281.632 414.894 281.712C414.893 281.791 414.861 281.867 414.805 281.924C414.749 281.98 414.673 282.012 414.594 282.013Z" fill="#E6F0FC"></path><path d="M415.394 284.89L384.459 284.786C384.42 284.785 384.381 284.777 384.344 284.761C384.308 284.746 384.275 284.723 384.248 284.695C384.22 284.666 384.199 284.633 384.184 284.596C384.17 284.559 384.162 284.52 384.163 284.48C384.163 284.401 384.195 284.324 384.251 284.268C384.307 284.211 384.383 284.179 384.463 284.179L415.397 284.285C415.437 284.285 415.476 284.293 415.512 284.309C415.548 284.324 415.581 284.346 415.609 284.375C415.636 284.403 415.658 284.436 415.673 284.473C415.687 284.51 415.694 284.549 415.693 284.588C415.693 284.668 415.662 284.744 415.606 284.801C415.55 284.857 415.473 284.889 415.394 284.89Z" fill="#E6F0FC"></path><path d="M416.195 287.766L385.259 287.662C385.22 287.662 385.181 287.654 385.144 287.638C385.108 287.623 385.075 287.6 385.048 287.572C385.02 287.544 384.998 287.511 384.984 287.474C384.969 287.437 384.962 287.398 384.963 287.359C384.963 287.279 384.994 287.203 385.051 287.146C385.107 287.09 385.183 287.058 385.263 287.057L416.199 287.161C416.278 287.163 416.354 287.195 416.409 287.252C416.464 287.309 416.494 287.385 416.493 287.465C416.494 287.504 416.486 287.543 416.472 287.58C416.457 287.616 416.435 287.65 416.407 287.678C416.38 287.706 416.347 287.728 416.31 287.743C416.274 287.758 416.235 287.766 416.195 287.766Z" fill="#E6F0FC"></path><path d="M416.99 290.645L386.054 290.539C386.014 290.539 385.975 290.531 385.939 290.515C385.903 290.5 385.87 290.477 385.842 290.449C385.815 290.421 385.793 290.387 385.779 290.351C385.764 290.314 385.757 290.275 385.758 290.235C385.758 290.156 385.79 290.08 385.846 290.023C385.902 289.967 385.978 289.935 386.058 289.934L416.994 290.04C417.033 290.04 417.072 290.048 417.109 290.064C417.145 290.079 417.178 290.102 417.205 290.13C417.233 290.158 417.255 290.191 417.269 290.228C417.284 290.265 417.291 290.304 417.29 290.343C417.29 290.423 417.258 290.499 417.202 290.555C417.146 290.612 417.07 290.644 416.99 290.645Z" fill="#E6F0FC"></path><path d="M417.797 293.521L386.861 293.417C386.821 293.417 386.783 293.408 386.747 293.393C386.71 293.377 386.678 293.355 386.65 293.327C386.623 293.299 386.602 293.265 386.587 293.229C386.573 293.192 386.566 293.153 386.566 293.114C386.566 293.074 386.573 293.035 386.588 292.999C386.603 292.962 386.625 292.929 386.652 292.901C386.68 292.873 386.713 292.85 386.749 292.835C386.786 292.82 386.825 292.812 386.864 292.812L417.801 292.916C417.88 292.918 417.956 292.951 418.011 293.007C418.066 293.064 418.097 293.14 418.097 293.22C418.097 293.259 418.089 293.298 418.074 293.335C418.06 293.372 418.038 293.405 418.01 293.433C417.982 293.461 417.949 293.483 417.912 293.498C417.876 293.514 417.837 293.521 417.797 293.521Z" fill="#E6F0FC"></path><path d="M418.597 296.4L387.662 296.294C387.623 296.294 387.584 296.286 387.548 296.27C387.511 296.255 387.478 296.232 387.451 296.204C387.423 296.176 387.402 296.143 387.387 296.106C387.373 296.069 387.366 296.03 387.366 295.991C387.366 295.911 387.398 295.835 387.454 295.778C387.51 295.722 387.586 295.69 387.666 295.689L418.601 295.795C418.64 295.795 418.679 295.803 418.715 295.819C418.752 295.834 418.784 295.857 418.812 295.885C418.839 295.913 418.861 295.947 418.876 295.983C418.89 296.02 418.897 296.059 418.897 296.098C418.897 296.178 418.865 296.255 418.809 296.311C418.753 296.368 418.677 296.4 418.597 296.4Z" fill="#E6F0FC"></path><path d="M473.23 318.033H134.871V351.139H473.23V318.033Z" fill="#B0C6DE"></path><path d="M481.952 318.033H126.15V323.962H481.952V318.033Z" fill="#93B2D2"></path><path opacity="0.11" d="M224.409 287.741L223.623 288.221L223.753 289.837H264.063L262.833 286.761" fill="black"></path><path d="M225.739 285.211L223.623 286.271V288.221L293.351 289.455L295.065 284.182L294.232 283.166L225.739 285.211Z" fill="#075BA0"></path><path d="M293.623 287.602L223.623 286.271L238.067 273.498L299.692 273.211L293.623 287.602Z" fill="#0C64BC"></path><path d="M251.23 274.591L237.97 274.779L226.984 284.553L267.448 285.131L274.804 274.439L251.23 274.591Z" fill="#2885D1"></path><path d="M246.179 316.349C246.179 316.349 252.978 314.887 259.777 302.482C266.576 290.076 267.649 287.612 267.649 287.612L265.595 268.108C265.17 268.119 261 240.052 261 240.052L245.31 316.344C245.599 316.366 245.89 316.367 246.179 316.349Z" fill="#527CFF"></path><path d="M345.913 277.353C345.913 277.353 344.367 277.987 346.676 281.79C348.986 285.593 350.479 291.37 353.803 293.16C356.856 294.804 362.449 295.535 367.141 292.153C371.834 288.77 363.487 281.231 363.487 281.231L345.913 277.353Z" fill="#222222"></path><path d="M368.368 288.412C367.027 293.894 354.319 293.346 352.156 288.885C349.963 284.363 348.536 281.039 345.899 278.005C345.802 277.896 345.746 277.757 345.739 277.611C345.732 277.465 345.775 277.321 345.861 277.203C346.906 275.796 348.276 274.869 351.971 274.383C352.353 274.334 352.739 274.29 353.137 274.248C354.485 274.101 355.922 274.001 357.376 273.984C363.857 275.437 369.711 282.932 368.368 288.412Z" fill="#666666"></path><path d="M428.036 217.789L434.969 206.723C434.969 206.723 437.183 203.616 441.461 201.264C445.738 198.912 453.559 194.032 453.115 196.695C452.671 199.358 448.026 202.671 447.288 203.114C446.549 203.556 452.155 208.278 451.856 211.745C451.556 215.212 434.3 222.59 433.785 222.959C433.269 223.329 428.036 217.789 428.036 217.789Z" fill="#F5C5CE"></path><path d="M430.695 213.538L429.158 215.991C430.192 219.206 436.467 221.593 436.467 221.593L436.535 221.655C437.589 221.161 438.862 220.558 440.226 219.878C437.244 214.799 432.851 213.663 430.695 213.538Z" fill="#F0A8B6"></path><path d="M332.256 243.986L335.417 240.027L394.586 247.579L426.81 213.138C426.81 213.138 434.543 214.417 438.963 221.793C438.963 221.793 410.3 256.172 403.241 267.838C402.229 269.51 401.184 270.508 393.634 269.22C386.084 267.931 332.256 261.944 332.256 261.944V243.986Z" fill="#668CFF"></path><path fill-rule="evenodd" clip-rule="evenodd" d="M435.757 217.833C427.209 226.487 409.028 250.755 405.505 255.931C401.12 262.385 394.387 261.834 394.387 261.834L332.262 253.02V261.944C332.262 261.944 386.091 267.929 393.64 269.22C401.188 270.51 402.227 269.51 403.245 267.838C410.305 256.173 438.969 221.793 438.969 221.793C438.09 220.329 437.008 218.996 435.757 217.833Z" fill="#527CFF"></path><path d="M261.184 239.79C261.184 239.79 281.792 236.317 289.524 237.597C297.257 238.876 306.855 237.864 306.855 237.864C306.855 237.864 323.655 235.797 335.521 240.057C335.521 240.057 336.186 261.458 332.78 278.659L329.379 295.863H265.994L263.594 276.26C263.594 276.26 259.918 253.391 261.184 239.79Z" fill="#668CFF"></path><path d="M307.313 219.226C306.73 221.004 306.263 222.818 305.915 224.657C305.471 226.884 305.253 229.149 305.263 231.419C300.411 225.081 294.847 224.727 292.532 224.906C292.492 224.412 292.441 223.908 292.366 223.396C292.178 222.064 291.864 220.753 291.429 219.48L292.953 217.228L298.365 210.959L307.313 219.226Z" fill="#F0A8B6"></path><path d="M290.334 236.635C290.334 236.635 293.04 231.639 292.527 224.897C294.844 224.714 300.406 225.08 305.257 231.41C305.288 233.311 305.542 235.199 306.15 236.877C308.714 243.876 290.456 244.485 290.334 236.635Z" fill="#F5C5CE"></path><path d="M314.523 190.317L320.489 188.549C320.489 188.549 328.587 187.65 328.739 181.449C328.891 175.248 327.604 161.696 314.523 164.398C307.741 166.547 304.991 158.184 287.393 164.847C278.988 168.448 277.128 179.516 273.66 183.123C270.191 186.731 265.395 187.524 267.527 200.458C268.527 206.727 275.26 208.993 277.526 212.994C279.792 216.994 285.259 223.661 292.458 221.401C299.657 219.14 302.341 212.765 302.341 212.765L314.523 190.317Z" fill="#A44341"></path><path d="M320.489 188.548C320.489 188.548 324.288 220.951 312.997 223.151C301.707 225.352 301.548 212.067 301.548 212.067C301.548 212.067 296.415 213.151 295.716 206.95C295.016 200.749 299.918 201.05 300.766 200.9C300.766 200.9 304.249 199.824 303.448 197.123C303.448 197.123 313.096 197.854 312.347 189.948C312.34 189.949 317.489 189.151 320.489 188.548Z" fill="#F5C5CE"></path><path d="M320.322 198.051L323.788 208.852L318.588 210.853L320.322 198.051Z" fill="#F5C5CE"></path><path d="M345.87 301.437C345.077 299.177 343.601 297.22 341.648 295.835C339.695 294.45 337.36 293.706 334.965 293.706H264.601C262.503 293.705 260.444 294.276 258.645 295.358C256.847 296.439 255.377 297.99 254.393 299.843V299.856C254.104 300.396 253.859 300.958 253.662 301.537L251.445 306.684L253.051 306.898V359.233C253.051 360.751 253.35 362.254 253.931 363.657C254.512 365.06 255.364 366.334 256.437 367.408C257.51 368.481 258.785 369.332 260.187 369.913C261.589 370.494 263.093 370.793 264.61 370.793H334.967C338.032 370.793 340.972 369.575 343.139 367.407C345.307 365.239 346.524 362.299 346.524 359.233V306.36C347.175 306.236 347.865 306.07 347.865 306.07L345.87 301.437Z" fill="#B0C6DE"></path><path d="M344.12 299.397H255.445C252.782 299.397 250.623 301.557 250.623 304.22V375.661C250.623 378.325 252.782 380.484 255.445 380.484H344.12C346.783 380.484 348.942 378.325 348.942 375.661V304.22C348.942 301.557 346.783 299.397 344.12 299.397Z" fill="#E2EBF3"></path><path d="M357.088 279.24C357.102 279.356 357.071 279.472 357 279.565C356.93 279.657 356.826 279.719 356.711 279.736H356.649C356.544 279.735 356.443 279.697 356.363 279.628C356.284 279.559 356.232 279.463 356.216 279.359C356.216 279.319 355.851 277.519 352.087 274.523C352.037 274.486 351.997 274.436 351.972 274.379C352.354 274.33 352.739 274.286 353.137 274.244C356.785 277.296 357.075 279.162 357.088 279.24Z" fill="#222222"></path><defs><linearGradient id="paint0_linear_64_4021" x1="336.741" y1="122.285" x2="287.949" y2="160.823" gradientUnits="userSpaceOnUse"><stop stop-color="#00A7CF"></stop><stop offset="1" stop-color="#C8DA2B"></stop></linearGradient></defs></svg>