<svg xmlns="http://www.w3.org/2000/svg" width="96" height="96" viewBox="0 0 96 96" fill="none"><path d="M38.0002 60V64H33.1602L36.5802 60.58C36.767 60.3947 36.9887 60.248 37.2323 60.1485C37.476 60.049 37.7369 59.9985 38.0002 60Z" fill="#3AB6A0"></path><path d="M75.9996 18.6C75.6505 18.4964 75.2797 18.4901 74.9272 18.5817C74.5748 18.6733 74.254 18.8595 73.9996 19.12C73.746 19.3787 73.5673 19.7013 73.4828 20.0536C73.3983 20.4058 73.411 20.7744 73.5196 21.12C73.8196 22.0514 73.9814 23.0217 73.9996 24V50C73.9996 52.6522 72.946 55.1957 71.0707 57.0711C69.1953 58.9464 66.6518 60 63.9996 60H37.9996C37.7364 59.9985 37.4755 60.0489 37.2318 60.1485C36.9881 60.248 36.7665 60.3946 36.5796 60.58L28.7396 68.42C28.4825 68.6766 28.3001 68.9983 28.2121 69.3506C28.124 69.703 28.1335 70.0727 28.2396 70.42C28.3446 70.7659 28.5414 71.0769 28.809 71.3199C29.0767 71.5629 29.4052 71.7288 29.7596 71.8C30.4973 71.9442 31.248 72.0112 31.9996 72H57.1796L70.5796 85.42C70.7665 85.6054 70.9881 85.752 71.2318 85.8515C71.4755 85.9511 71.7364 86.0015 71.9996 86C72.262 86.0068 72.5222 85.952 72.7596 85.84C73.1248 85.69 73.4375 85.4352 73.6582 85.1077C73.8788 84.7803 73.9976 84.3949 73.9996 84V71.86C77.3322 71.379 80.3798 69.713 82.5838 67.1674C84.7878 64.6218 86.0005 61.3671 85.9996 58V32C85.9961 28.9879 85.0212 26.0572 83.2197 23.6432C81.4182 21.2292 78.8862 19.4606 75.9996 18.6ZM81.9996 58C81.9996 59.3132 81.7409 60.6136 81.2384 61.8268C80.7358 63.0401 79.9993 64.1425 79.0707 65.0711C78.1421 65.9997 77.0397 66.7363 75.8264 67.2388C74.6132 67.7414 73.3128 68 71.9996 68C71.4692 68 70.9605 68.2107 70.5854 68.5858C70.2103 68.9609 69.9996 69.4696 69.9996 70V79.18L59.4196 68.58C59.2327 68.3946 59.0111 68.248 58.7674 68.1485C58.5237 68.0489 58.2628 67.9985 57.9996 68H34.8196L38.8196 64H63.9996C67.7126 64 71.2736 62.525 73.8991 59.8995C76.5246 57.274 77.9996 53.713 77.9996 50V24C79.2416 24.9315 80.2496 26.1393 80.9439 27.5279C81.6382 28.9164 81.9996 30.4476 81.9996 32V58Z" fill="#3AB6A0"></path><path d="M77.4 20C76.5394 17.1134 74.7708 14.5814 72.3568 12.7799C69.9428 10.9784 67.0121 10.0035 64 10H24C20.287 10 16.726 11.475 14.1005 14.1005C11.475 16.726 10 20.287 10 24V50C10.0035 53.0121 10.9784 55.9428 12.7799 58.3568C14.5814 60.7708 17.1134 62.5394 20 63.4C20.6548 63.5963 21.3233 63.7434 22 63.84V76C22.002 76.3949 22.1208 76.7803 22.3414 77.1077C22.5621 77.4352 22.8748 77.69 23.24 77.84C23.4774 77.952 23.7376 78.0068 24 78C24.2632 78.0015 24.5241 77.9511 24.7678 77.8515C25.0115 77.752 25.2331 77.6054 25.42 77.42L38.82 64H64C67.713 64 71.274 62.525 73.8995 59.8995C76.525 57.274 78 53.713 78 50V24C77.9981 22.6444 77.7959 21.2965 77.4 20ZM74 50C74 52.6522 72.9464 55.1957 71.0711 57.0711C69.1957 58.9464 66.6522 60 64 60H38C37.7368 59.9985 37.4759 60.0489 37.2322 60.1485C36.9885 60.248 36.7669 60.3946 36.58 60.58L33.16 64L26 71.18V62C26 61.4696 25.7893 60.9609 25.4142 60.5858C25.0391 60.2107 24.5304 60 24 60C23.0163 60.0053 22.0378 59.8569 21.1 59.56C20.7257 59.4409 20.3584 59.3007 20 59.14C19.7 59.02 19.42 58.86 19.14 58.72C18.6937 58.4636 18.266 58.1763 17.86 57.86C17.4276 57.5303 17.0259 57.1622 16.66 56.76C16.4693 56.5559 16.2891 56.3423 16.12 56.12C15.9772 55.9472 15.8437 55.767 15.72 55.58C15.54 55.32 15.38 55.04 15.22 54.76C14.4238 53.2995 14.0044 51.6634 14 50V24C14 21.3478 15.0536 18.8043 16.9289 16.9289C18.8043 15.0536 21.3478 14 24 14H64C65.6795 13.9978 67.3317 14.4246 68.8 15.24C69.1342 15.4164 69.455 15.6169 69.76 15.84L70.38 16.32L70.82 16.7C70.9364 16.7964 71.0436 16.9036 71.14 17.02C71.3533 17.2333 71.5533 17.4533 71.74 17.68C71.94 17.94 72.14 18.18 72.32 18.46C72.5 18.74 72.62 18.94 72.76 19.18C73.1118 19.8117 73.3871 20.4831 73.58 21.18C73.854 22.0951 73.9954 23.0448 74 24V50Z" fill="#3AB6A0"></path><path d="M64 30H24C23.4696 30 22.9609 29.7893 22.5858 29.4142C22.2107 29.0391 22 28.5304 22 28C22 27.4696 22.2107 26.9609 22.5858 26.5858C22.9609 26.2107 23.4696 26 24 26H64C64.5304 26 65.0391 26.2107 65.4142 26.5858C65.7893 26.9609 66 27.4696 66 28C66 28.5304 65.7893 29.0391 65.4142 29.4142C65.0391 29.7893 64.5304 30 64 30Z" fill="#3AB6A0"></path><path d="M64 40H24C23.4696 40 22.9609 39.7893 22.5858 39.4142C22.2107 39.0391 22 38.5304 22 38C22 37.4696 22.2107 36.9609 22.5858 36.5858C22.9609 36.2107 23.4696 36 24 36H64C64.5304 36 65.0391 36.2107 65.4142 36.5858C65.7893 36.9609 66 37.4696 66 38C66 38.5304 65.7893 39.0391 65.4142 39.4142C65.0391 39.7893 64.5304 40 64 40Z" fill="#3AB6A0"></path><path d="M64 50H24C23.4696 50 22.9609 49.7893 22.5858 49.4142C22.2107 49.0391 22 48.5304 22 48C22 47.4696 22.2107 46.9609 22.5858 46.5858C22.9609 46.2107 23.4696 46 24 46H64C64.5304 46 65.0391 46.2107 65.4142 46.5858C65.7893 46.9609 66 47.4696 66 48C66 48.5304 65.7893 49.0391 65.4142 49.4142C65.0391 49.7893 64.5304 50 64 50Z" fill="#3AB6A0"></path><path opacity="0.2" fill-rule="evenodd" clip-rule="evenodd" d="M63.9997 60H37.9997C37.7365 59.9985 37.4756 60.0489 37.2319 60.1484C36.9882 60.248 36.7666 60.3946 36.5797 60.58L33.1597 64L25.9997 71.18V62C25.9997 61.4696 25.789 60.9609 25.4139 60.5858C25.0389 60.2107 24.5302 60 23.9997 60C23.016 60.0053 22.0376 59.8569 21.0997 59.56C20.7254 59.4409 20.3582 59.3007 19.9997 59.14C19.7849 59.0541 19.5804 58.9477 19.3787 58.8427C19.2988 58.8011 19.2192 58.7598 19.1397 58.72C18.6935 58.4636 18.2657 58.1763 17.8597 57.86C17.4273 57.5303 17.0257 57.1622 16.6597 56.76C16.4691 56.5559 16.2888 56.3423 16.1197 56.12C15.9769 55.9472 15.8434 55.767 15.7197 55.58C15.5397 55.32 15.3797 55.04 15.2198 54.76L15.2197 54.76C15.8129 55.0994 16.4439 55.3679 17.0997 55.56C18.0376 55.8569 19.016 56.0053 19.9997 56H59.9997C62.6519 56 65.1954 54.9464 67.0708 53.0711C68.9462 51.1957 69.9997 48.6522 69.9997 46V20C70.0029 19.0179 69.8614 18.0408 69.5797 17.1C69.3858 16.4543 69.1243 15.8309 68.7997 15.24C69.1339 15.4164 69.4548 15.6169 69.7597 15.84L70.3797 16.32L70.8197 16.7C70.9362 16.7964 71.0433 16.9036 71.1397 17.02C71.3597 17.24 71.4797 17.36 71.7397 17.68C71.8444 17.8088 71.9328 17.9084 72.0116 17.9971C72.1285 18.1289 72.2241 18.2366 72.3197 18.38C72.4797 18.62 72.6197 18.86 72.7597 19.1C73.1115 19.7317 73.3868 20.4031 73.5797 21.1C73.8614 22.0408 74.0029 23.0179 73.9997 24V50C73.9997 52.6522 72.9462 55.1957 71.0708 57.0711C69.1954 58.9464 66.6519 60 63.9997 60ZM77.9997 50V24C79.2417 24.9315 80.2497 26.1393 80.944 27.5279C81.6383 28.9164 81.9997 30.4475 81.9997 32V58C81.9997 59.3132 81.741 60.6136 81.2385 61.8268C80.7359 63.0401 79.9994 64.1425 79.0708 65.0711C78.1422 65.9997 77.0398 66.7362 75.8265 67.2388C74.6133 67.7413 73.3129 68 71.9997 68C71.4693 68 70.9606 68.2107 70.5855 68.5858C70.2104 68.9609 69.9997 69.4696 69.9997 70V79.18L59.4197 68.58C59.2328 68.3946 59.0112 68.248 58.7675 68.1485C58.5238 68.0489 58.2629 67.9985 57.9997 68H34.8197L38.8197 64H63.9997C67.7127 64 71.2737 62.525 73.8992 59.8995C76.5247 57.274 77.9997 53.713 77.9997 50Z" fill="#3AB6A0"></path></svg>