<svg xmlns="http://www.w3.org/2000/svg" width="96" height="96" viewBox="0 0 96 96" fill="none"><path fill-rule="evenodd" clip-rule="evenodd" d="M35.5024 14.3399C38.9938 15.0325 42.2016 16.7447 44.72 19.26C46.3997 20.9283 47.7314 22.9135 48.6378 25.1005C49.5441 27.2875 50.0072 29.6327 50 32V38C49.9995 41.321 49.0752 44.5763 47.3303 47.4019C46.3933 48.9193 45.2395 50.2807 43.9122 51.4465L44.0001 51.48C48.1437 53.0706 51.7037 55.887 54.2051 59.5533C56.7066 63.2197 58.0304 67.5617 58.0001 72V80C58.0001 80.5305 57.7893 81.0392 57.4143 81.4142C57.0392 81.7893 56.5305 82 56.0001 82H8.00005C7.46962 82 6.96091 81.7893 6.58584 81.4142C6.21076 81.0392 6.00005 80.5305 6.00005 80V72C5.99058 67.5392 7.34859 63.1826 9.89111 59.5172C12.4245 55.8649 16.0127 53.0738 20.1752 51.5168C18.8138 50.3306 17.6322 48.9407 16.676 47.389C14.9361 44.5657 14.0101 41.3165 14 38V32C13.9992 28.4406 15.0537 24.9608 17.0303 22.0005C19.0069 19.0403 21.8167 16.7325 25.1046 15.369C28.3926 14.0054 32.011 13.6473 35.5024 14.3399ZM33.08 51.92C32.7097 51.949 32.3386 51.964 31.9674 51.965C31.598 51.9639 31.2286 51.9489 30.8601 51.92L29.6201 51.76L28.8201 51.6C28.2908 51.4799 27.7698 51.3262 27.2601 51.14C26.7601 50.94 26.2601 50.72 25.7801 50.48C25.6749 50.4286 25.5659 50.3868 25.4544 50.3548C23.2417 49.1992 21.38 47.4673 20.0674 45.3399C18.7065 43.1343 17.9904 40.5917 18 38V32C18 28.287 19.475 24.726 22.1006 22.1005C24.7261 19.475 28.287 18 32 18C35.7131 18 39.274 19.475 41.8995 22.1005C44.525 24.726 46 28.287 46 32V38C46.012 40.5922 45.2968 43.1357 43.9357 45.3418C42.5746 47.5478 40.6221 49.328 38.3 50.48C37.82 50.72 37.32 50.94 36.82 51.14C36.3761 51.3035 35.9218 51.4371 35.46 51.54C35.0911 51.6391 34.7172 51.7192 34.34 51.78C34.111 51.78 33.8819 51.8157 33.6528 51.8514L33.6527 51.8514C33.4618 51.8812 33.2709 51.9109 33.08 51.92ZM26.3432 47.6569C27.8435 49.1571 29.8783 50 32 50C34.1218 50 36.1566 49.1571 37.6569 47.6569C39.1572 46.1566 40 44.1217 40 42C40 41.4696 39.7893 40.9609 39.4143 40.5858C39.0392 40.2107 38.5305 40 38 40H26C25.4696 40 24.9609 40.2107 24.5858 40.5858C24.2108 40.9609 24 41.4696 24 42C24 44.1217 24.8429 46.1566 26.3432 47.6569ZM30.0036 45.4591C29.3964 45.1093 28.8917 44.6062 28.54 44H35.46C35.1084 44.6062 34.6037 45.1093 33.9965 45.4591C33.3893 45.8088 32.7008 45.9929 32 45.9929C31.2993 45.9929 30.6108 45.8088 30.0036 45.4591ZM54.0001 78H10V72C9.99831 67.8358 11.4404 63.7998 14.0808 60.5796C16.7211 57.3595 20.3962 55.1544 24.4801 54.34L25.3001 54.7L25.8201 54.9L26.6601 55.18C27.4881 55.4272 28.3295 55.6275 29.1801 55.78C29.5195 55.78 29.8658 55.828 30.2109 55.8758L30.211 55.8758L30.2111 55.8758C30.4556 55.9097 30.6995 55.9434 30.9401 55.96H33.0601C33.553 55.96 34.0604 55.8878 34.5577 55.817L34.5578 55.817L34.5597 55.8167C34.6468 55.8043 34.7337 55.7919 34.8201 55.78C35.6716 55.632 36.5132 55.4316 37.3401 55.18L38.1801 54.9C38.6401 54.74 39.0801 54.54 39.5201 54.34C43.6039 55.1544 47.279 57.3595 49.9193 60.5796C52.5597 63.7998 54.0018 67.8358 54.0001 72V78ZM68 14H72C76.7739 14 81.3523 15.8964 84.728 19.2721C88.1036 22.6477 90 27.2261 90 32C90 36.7739 88.1036 41.3523 84.728 44.7279C81.3523 48.1036 76.7739 50 72 50H52C51.6155 49.9864 51.243 49.8622 50.9273 49.6423C50.6116 49.4224 50.366 49.116 50.22 48.76C50.0669 48.3958 50.025 47.9944 50.0998 47.6064C50.1745 47.2184 50.3625 46.8612 50.64 46.58L54 43.24C51.8862 40.596 50.5608 37.4096 50.1759 34.0464C49.7911 30.6833 50.3623 27.2798 51.8242 24.2266C53.286 21.1735 55.5792 18.5944 58.4404 16.7855C61.3017 14.9766 64.615 14.0111 68 14ZM77.4001 45.0001C79.1164 44.3136 80.6798 43.2939 82 42C83.9994 40.0417 85.3659 37.5291 85.9232 34.7865C86.4805 32.0439 86.2031 29.1973 85.1267 26.6139C84.0503 24.0306 82.2243 21.8291 79.8845 20.2937C77.5447 18.7582 74.7984 17.9593 72 18H68C65.2268 17.9958 62.5149 18.8154 60.2081 20.3547C57.9013 21.894 56.1037 24.0837 55.0431 26.6461C53.9826 29.2085 53.707 32.0282 54.2512 34.7475C54.7955 37.4667 56.135 39.9631 58.1 41.92C58.4725 42.2947 58.6816 42.8016 58.6816 43.33C58.6816 43.8584 58.4725 44.3653 58.1 44.74L56.82 46H72C73.8484 46.0265 75.6837 45.6866 77.4001 45.0001ZM78 30H62C61.4696 30 60.9609 29.7893 60.5858 29.4142C60.2108 29.0391 60 28.5304 60 28C60 27.4696 60.2108 26.9609 60.5858 26.5858C60.9609 26.2107 61.4696 26 62 26H78C78.5305 26 79.0392 26.2107 79.4143 26.5858C79.7893 26.9609 80 27.4696 80 28C80 28.5304 79.7893 29.0391 79.4143 29.4142C79.0392 29.7893 78.5305 30 78 30ZM62 38H78C78.5305 38 79.0392 37.7893 79.4143 37.4142C79.7893 37.0391 80 36.5304 80 36C80 35.4696 79.7893 34.9609 79.4143 34.5858C79.0392 34.2107 78.5305 34 78 34H62C61.4696 34 60.9609 34.2107 60.5858 34.5858C60.2108 34.9609 60 35.4696 60 36C60 36.5304 60.2108 37.0391 60.5858 37.4142C60.9609 37.7893 61.4696 38 62 38Z" fill="#3AB6A0"></path><path opacity="0.2" fill-rule="evenodd" clip-rule="evenodd" d="M25.64 50.46C26.12 50.7 26.62 50.92 27.12 51.12C27.6297 51.3062 28.1508 51.4598 28.68 51.58L29.48 51.74L30.2 51.84C31.527 52.0243 32.873 52.0243 34.2 51.84C34.5772 51.7792 34.951 51.6991 35.32 51.6C35.7817 51.4971 36.2361 51.3634 36.68 51.2L37.32 50.92L38.16 50.54C40.5175 49.4032 42.5049 47.6222 43.8923 45.403C45.2798 43.1838 46.0105 40.6172 46 38V32C46.0265 30.1516 45.6867 28.3163 45.0001 26.5999C44.3136 24.8836 43.2939 23.3202 42 22C41.3274 21.3353 40.5905 20.739 39.8 20.22C41.2825 22.5405 42.0478 25.2467 42 28V34C42.012 36.5921 41.2968 39.1357 39.9357 41.3417C38.5746 43.5478 36.6221 45.3279 34.3 46.48C33.82 46.72 33.32 46.94 32.82 47.14C32.3761 47.3034 31.9217 47.4371 31.46 47.54C31.091 47.6391 30.7172 47.7192 30.34 47.78C28.7506 48.0401 27.1294 48.0401 25.54 47.78L24.74 47.62C24.2108 47.4998 23.6897 47.3462 23.18 47.16C22.68 46.96 22.18 46.74 21.7 46.5C21.218 46.2655 20.7564 45.9912 20.32 45.68C21.6366 47.7181 23.4731 49.3682 25.64 50.46ZM54 71.9999C54.0045 69.1461 53.3305 66.3322 52.0334 63.7902C50.7363 61.2482 48.8534 59.051 46.54 57.3799C46.7454 57.685 46.926 58.006 47.08 58.3399C47.7922 60.0684 48.0661 61.9462 47.8772 63.8061C47.6883 65.666 47.0425 67.4503 45.9973 69.0003C44.9521 70.5503 43.5399 71.8178 41.8864 72.6901C40.2329 73.5624 38.3894 74.0123 36.52 73.9999H10V77.9999H54V71.9999ZM82 28C82.0023 25.2638 81.2027 22.5868 79.7 20.3C82.2186 21.9551 84.1359 24.3786 85.1669 27.2104C86.1979 30.0423 86.2877 33.1312 85.4227 36.0181C84.5578 38.905 82.7843 41.4358 80.366 43.2342C77.9478 45.0325 75.0137 46.0026 72 46H56.88L58.16 44.7401C58.5088 44.3691 58.7029 43.8792 58.7029 43.37C58.7029 42.8609 58.5088 42.371 58.16 42H68C71.713 42 75.274 40.5251 77.8995 37.8995C80.525 35.274 82 31.7131 82 28Z" fill="#3AB6A0"></path></svg>