<svg xmlns="http://www.w3.org/2000/svg" width="630" height="468" viewBox="0 0 630 468" fill="none"><path d="M50.7925 386.717C61.0118 426.117 91.084 468 131.788 468H526.928C552.985 468 576.033 451.25 582.343 425.969C599.974 355.33 625.23 216.916 564.109 180.248C489.829 135.686 517.028 3.64997 412.524 18.9077C308.02 34.1654 301.624 78.8186 196.517 69.5023C40.2485 55.6529 -55.7925 178.361 35.4508 347.896C42.4359 360.876 47.4709 373.911 50.7925 386.717Z" fill="#EDF2F5"></path><path d="M402.775 158.262H256.065V365.191H402.775V158.262Z" fill="#CFDDE7"></path><path d="M399.266 154.756H252.557V361.684H399.266V154.756Z" fill="#FFAB2E"></path><path d="M252.557 154.756H399.266L338.047 361.684H252.557V154.756Z" fill="#FF9D0A"></path><path d="M379.652 167.84H273.285V330.839H379.652V167.84Z" fill="white"></path><path d="M362.199 151.639H288.014V174.693H362.199V151.639Z" fill="#B0C6DE"></path><path d="M325.911 132.132C323.214 132.132 320.577 132.931 318.334 134.429C316.092 135.926 314.344 138.055 313.312 140.546C312.279 143.036 312.009 145.776 312.535 148.42C313.062 151.064 314.361 153.493 316.268 155.399C318.175 157.305 320.605 158.603 323.251 159.129C325.896 159.655 328.638 159.385 331.13 158.353C333.622 157.322 335.752 155.575 337.25 153.333C338.749 151.092 339.549 148.457 339.549 145.761C339.549 142.147 338.112 138.68 335.554 136.124C332.997 133.568 329.528 132.132 325.911 132.132ZM325.911 153.666C324.347 153.666 322.818 153.202 321.517 152.334C320.216 151.465 319.202 150.231 318.604 148.786C318.005 147.342 317.848 145.753 318.154 144.219C318.459 142.686 319.212 141.277 320.318 140.172C321.424 139.066 322.834 138.313 324.368 138.008C325.902 137.703 327.493 137.86 328.938 138.458C330.383 139.057 331.619 140.07 332.488 141.37C333.357 142.67 333.821 144.198 333.821 145.761C333.82 147.858 332.987 149.868 331.503 151.35C330.02 152.833 328.009 153.666 325.911 153.666Z" fill="#B0C6DE"></path><path d="M347.468 194.551H283.921V199.457H347.468V194.551Z" fill="#7BADC9"></path><path d="M368.015 208.608H283.921V213.515H368.015V208.608Z" fill="#C1DEE8"></path><path d="M368.015 217.175H283.921V222.081H368.015V217.175Z" fill="#C1DEE8"></path><path d="M368.015 225.743H283.921V230.649H368.015V225.743Z" fill="#C1DEE8"></path><path d="M368.015 234.31H283.921V239.216H368.015V234.31Z" fill="#C1DEE8"></path><path d="M368.015 242.875H283.921V247.782H368.015V242.875Z" fill="#C1DEE8"></path><path d="M368.015 257.659H283.921V262.565H368.015V257.659Z" fill="#C1DEE8"></path><path d="M368.015 266.783H283.921V271.689H368.015V266.783Z" fill="#C1DEE8"></path><path d="M367.47 290.69H335.742V295.597H367.47V290.69Z" fill="#7BADC9"></path><path d="M362.199 165.023H288.014V174.693H362.199V165.023Z" fill="#BED1E4"></path><path d="M71.4893 17.9062V357.771L225.778 343.718V29.0508L71.4893 17.9062Z" fill="white"></path><path d="M67.9942 46.613L228.987 59.8192V34.2702C228.987 34.2702 235.891 23.524 202.472 19.8308C169.053 16.1376 67.9858 13.416 67.9858 13.416L67.9942 46.613Z" fill="#A3CFE2"></path><path d="M73.8223 242.934L228.111 90.8164V334.647L73.8223 357.771V242.934Z" fill="#E3F6FF"></path><path d="M73.8223 313.183L228.111 235.163V334.647L73.8223 357.771V313.183Z" fill="#C8E3ED"></path><path d="M225.87 29.0508H215.383V347.665H225.87V29.0508Z" fill="#5796B9"></path><path d="M57.1914 99.5896C59.1209 99.5896 60.685 96.9093 60.685 93.6031C60.685 90.2969 59.1209 87.6167 57.1914 87.6167C55.2619 87.6167 53.6978 90.2969 53.6978 93.6031C53.6978 96.9093 55.2619 99.5896 57.1914 99.5896Z" fill="#0F1A42"></path><path d="M67.9941 94.5651C69.9236 94.5651 71.4878 91.8849 71.4878 88.5787C71.4878 85.2725 69.9236 82.5923 67.9941 82.5923C66.0647 82.5923 64.5005 85.2725 64.5005 88.5787C64.5005 91.8849 66.0647 94.5651 67.9941 94.5651Z" fill="#BAD4E8"></path><path d="M79.0137 89.9665C80.9431 89.9665 82.5073 87.2863 82.5073 83.9801C82.5073 80.6739 80.9431 77.9937 79.0137 77.9937C77.0842 77.9937 75.52 80.6739 75.52 83.9801C75.52 87.2863 77.0842 89.9665 79.0137 89.9665Z" fill="white"></path><path d="M51.8603 338.36C52.082 349.295 52.6724 360.238 52.4256 371.164C52.1704 382.427 56.2611 390.878 66.1967 396.363L70.3524 397.173L72.02 397.159C106.721 393.388 141.237 387.993 176.062 385.295C187.267 383.868 198.45 382.213 209.684 381.072C223.125 379.705 228.752 375.144 230.464 361.446C231.465 353.425 230.755 345.188 230.813 337.049L222.959 334.715C221.603 335.014 86.0479 346.891 81.4636 347.295C76.9611 348.608 74.5414 347.475 74.6965 342.218C74.8749 336.244 74.5631 330.254 74.4647 324.271C67.389 326.549 65.5363 323.756 65.573 316.699C65.8048 272.628 65.6214 228.555 65.603 184.481C65.583 131.422 65.8582 78.3605 65.3762 25.3043C65.2695 13.4915 69.5219 5.71676 79.7543 0.673625C63.4118 -2.35625 53.7096 4.88846 52.6474 21.3245C50.5479 53.8232 52.4606 86.3602 51.6651 118.874L51.8603 338.36ZM148.44 371.394C136.325 372.094 134.372 371.122 133.858 365.561C133.281 359.308 136.645 356.413 145.031 355.769C150.263 355.368 155.484 354.816 160.707 354.316C165.721 353.836 169.789 354.688 169.939 360.933C170.074 366.637 167.409 369.684 161.546 370.064C156.318 370.404 151.108 371.114 148.44 371.394ZM56.9181 231.011H55.3522V180.57H56.9181V231.011Z" fill="#6EA5C4"></path><path d="M152.914 374.388C140.799 375.088 138.846 374.117 138.332 368.555C137.755 362.302 141.119 359.407 149.505 358.764C154.737 358.361 159.956 357.811 165.181 357.311C170.194 356.829 174.263 357.682 174.413 363.925C174.548 369.632 171.883 372.678 166.02 373.058C160.792 373.397 155.582 374.108 152.914 374.388Z" fill="#EAF2F9"></path><path d="M231.562 321.016L231.697 253.936L231.82 253.957L231.742 231.792C231.766 218.695 231.792 205.6 231.82 192.505L231.6 192.438L231.421 142.022C231.456 116.441 231.482 90.86 231.5 65.2799C231.461 57.6868 231.436 50.0938 231.385 42.5008C231.261 24.2365 223.82 16.3785 205.537 14.8352C194.08 13.8619 182.646 12.6203 171.211 11.4054C169.685 11.2387 168.209 10.5254 166.723 10.0721C145.631 8.80712 124.766 5.54892 103.816 3.03402C95.8115 2.07406 87.7753 1.45242 79.7541 0.675781C69.5217 5.71891 65.2693 13.4936 65.376 25.3065C65.8579 78.3627 65.5828 131.424 65.6028 184.483C65.6211 228.557 65.8046 272.63 65.5728 316.702C65.5728 317.507 65.5911 318.253 65.6411 318.946V386.422C65.6411 386.422 63.9218 399.84 83.5579 395.857L214.712 380.332C214.712 380.332 229.053 379.396 230.374 362.116L230.951 335.886C231.161 334.089 231.372 332.293 231.583 330.498C231.381 330.087 231.219 329.658 231.098 329.216L231.231 323.095C231.348 322.398 231.471 321.708 231.562 321.016ZM213.243 335.642L81.4517 347.29C81.4517 347.29 74.7446 349.322 74.7413 343.939L74.6262 303.084C74.8196 279.331 75.0131 255.58 75.2065 231.83C75.2299 230.91 75.2516 229.983 75.2749 229.057L75.1198 198.986L75.1598 197.068L75.1899 122.141C75.1598 107.919 75.1293 93.6976 75.0981 79.476C75.0781 63.4766 75.1148 47.4772 75.0031 31.4779C74.9714 26.8797 75.9103 23.5665 81.5535 24.3915C82.8659 24.3998 84.1883 24.3048 85.489 24.4315C112.348 27.067 139.205 29.7202 166.061 32.3912C181.447 33.9261 196.819 35.5911 212.206 37.086C218.723 37.7193 222.813 39.6842 222.336 47.6539C221.789 56.7769 222.516 65.9865 222.898 75.1528C223.555 90.8772 223.959 106.592 222.773 122.308C223.575 135.86 223.48 149.418 222.928 162.973C222.97 163.514 223.013 164.054 223.055 164.596C223.092 164.646 223.132 164.693 223.17 164.741L222.698 252.356C222.587 259.905 222.476 267.455 222.365 275.005C222.398 280.42 223.845 285.846 222.253 291.251C222.933 293.144 222.933 295.214 222.253 297.107C222.93 302.883 223.234 308.697 223.163 314.512L222.733 323.996C222.602 325.675 222.442 327.353 222.255 329.031C222.316 329.531 222.376 330.031 222.438 330.531C222.438 330.606 222.456 330.681 222.465 330.756C222.515 331.631 222.071 334.837 213.243 335.642Z" fill="#8BB7D0"></path><path d="M150.772 371.394C138.657 372.094 136.704 371.122 136.191 365.561C135.614 359.308 138.977 356.413 147.364 355.769C152.595 355.368 157.815 354.816 163.039 354.316C168.052 353.836 172.121 354.688 172.27 360.932C172.406 366.637 169.741 369.684 163.877 370.064C158.649 370.404 153.441 371.114 150.772 371.394Z" fill="#A1C4D9"></path><path fill-rule="evenodd" clip-rule="evenodd" d="M90.1384 43.0653C92.5413 43.0653 94.4892 40.6403 94.4892 37.6489C94.4892 34.6574 92.5413 32.2324 90.1384 32.2324C87.7355 32.2324 85.7876 34.6574 85.7876 37.6489C85.7876 40.6403 87.7355 43.0653 90.1384 43.0653ZM103.403 44.4904C105.805 44.4904 107.753 42.0653 107.753 39.0739C107.753 36.0825 105.805 33.6575 103.403 33.6575C101 33.6575 99.0518 36.0825 99.0518 39.0739C99.0518 42.0653 101 44.4904 103.403 44.4904ZM120.732 40.4987C120.732 43.4901 118.784 45.9152 116.382 45.9152C113.979 45.9152 112.031 43.4901 112.031 40.4987C112.031 37.5073 113.979 35.0823 116.382 35.0823C118.784 35.0823 120.732 37.5073 120.732 40.4987Z" fill="#B9DBE9"></path><path d="M446.324 103.411L584.222 239.367C584.202 236.87 584.182 234.37 584.16 231.868C584.137 230.946 584.114 230.022 584.092 229.094L584.247 199.022L584.207 197.106L584.177 122.177C584.207 107.955 584.238 93.7336 584.269 79.5119C584.282 68.7523 584.269 57.9944 584.297 47.2349L446.324 58.5511V103.411Z" fill="white"></path><path d="M446.324 241.646L584.717 311.629L584.741 303.13C584.57 281.875 584.397 260.622 584.222 239.371L446.324 103.411V241.646Z" fill="#BDDF86"></path><path d="M446.324 335.696L577.915 347.333C578.02 347.365 578.12 347.387 578.224 347.415C579.168 347.645 582.059 348.19 583.608 346.748C584.149 346.122 584.496 345.215 584.626 343.97L584.637 340.03C584.621 338.614 584.629 337.197 584.649 335.782L584.717 311.63L446.324 241.646V335.696Z" fill="#9ED04E"></path><path d="M446.325 103.411V37.2104C440.298 37.9354 436.574 40.0637 437.031 47.685C437.578 56.808 436.851 66.0176 436.469 75.1839C435.812 90.9066 435.409 106.623 436.594 122.339C435.792 135.892 435.887 149.449 436.439 163.004C436.398 163.545 436.354 164.085 436.313 164.627C436.276 164.677 436.236 164.722 436.197 164.772L436.683 252.397C436.794 259.947 436.905 267.496 437.016 275.044C436.983 280.461 435.535 285.877 437.128 291.29C436.448 293.184 436.448 295.255 437.128 297.148C436.451 302.924 436.146 308.738 436.217 314.553L436.648 324.037C436.779 325.716 436.938 327.394 437.126 329.072L436.943 330.572L436.916 330.797C436.868 331.672 437.313 334.877 446.141 335.675L446.335 335.692V103.411H446.325Z" fill="#5796B9"></path><path d="M584.761 3.84666C585.5 4.40586 586.206 5.00622 586.876 5.6449C587.313 6.06266 587.729 6.49267 588.123 6.93487C588.409 7.25319 588.677 7.58151 588.939 7.91316C589.224 8.27148 589.499 8.63479 589.758 9.00978C590.091 9.48976 590.402 9.98308 590.691 10.4897C590.91 10.868 591.112 11.2564 591.307 11.6563C591.502 12.0563 591.692 12.453 591.867 12.863C591.982 13.1363 592.094 13.4129 592.201 13.6963C592.413 14.2518 592.606 14.8262 592.779 15.4195C592.866 15.7128 592.948 16.0106 593.024 16.3128C593.18 16.9139 593.316 17.5311 593.433 18.1644C593.491 18.48 593.546 18.7994 593.6 19.1227C593.699 19.7694 593.78 20.431 593.843 21.1076C593.907 21.7843 593.952 22.4759 593.978 23.1826C594.007 23.8892 594.018 24.6114 594.01 25.3491C593.89 38.6119 593.811 51.8759 593.773 65.1409C593.753 71.774 593.739 78.4064 593.732 85.0384C593.732 87.7116 593.732 90.386 593.732 93.0614C593.724 110.275 593.734 127.491 593.763 144.708C593.779 157.981 593.786 171.253 593.785 184.526C593.785 201.054 593.765 217.582 593.727 234.109C593.718 239.618 593.711 245.126 593.707 250.635C593.702 256.144 593.702 261.653 593.707 267.163C593.707 283.691 593.745 300.218 593.823 316.744C593.823 317.143 593.823 317.526 593.81 317.897C593.809 317.902 593.809 317.908 593.81 317.912C593.8 318.286 593.782 318.642 593.757 318.987V386.465C593.757 386.465 595.072 396.733 582.25 396.631C583.958 396.823 585.665 397.016 587.373 397.201L589.041 397.216L593.196 396.406C603.132 390.921 607.222 382.47 606.967 371.205C606.721 360.281 607.311 349.338 607.533 338.402L607.733 118.91C606.937 86.3984 608.85 53.8547 606.75 21.361C605.688 4.92661 595.991 -2.31811 579.644 0.710102C581.163 1.45131 582.622 2.31059 584.008 3.28001C584.259 3.46555 584.51 3.65444 584.761 3.84666ZM604.022 231.056H602.456V180.613H604.022V231.056Z" fill="#6EA5C4"></path><path d="M432.22 372.609C433.403 374.616 435.054 376.307 437.032 377.539C435.103 376.248 433.463 374.569 432.22 372.609Z" fill="#053C52"></path><rect x="476" y="252" width="30" height="51" fill="#192654"></rect><path d="M574.836 395.778L573.887 395.665L574.836 395.778Z" fill="#053C52"></path><path d="M584.638 340.027L584.649 335.779C584.629 337.195 584.621 338.61 584.638 340.027Z" fill="#053C52"></path><path d="M578.233 347.415C578.129 347.387 578.029 347.365 577.924 347.333C577.916 347.333 578.029 347.369 578.233 347.415Z" fill="#053C52"></path><path d="M584.627 343.983V343.967C584.496 345.212 584.15 346.118 583.609 346.745C584.22 346.177 584.627 345.308 584.627 343.983Z" fill="#053C52"></path><path d="M427.677 253.979L427.812 321.06C427.902 321.75 428.026 322.441 428.146 323.131L428.279 329.253C428.157 329.694 427.995 330.123 427.794 330.534C428.006 332.331 428.217 334.126 428.426 335.921L428.541 341.117L429.003 362.146C429.35 366.656 430.587 370.046 432.218 372.603C433.462 374.563 435.101 376.242 437.031 377.532C440.888 380.111 444.665 380.366 444.665 380.366L495.639 386.399L573.885 395.66L574.834 395.773L575.819 395.89C577.929 396.344 580.077 396.595 582.235 396.64C595.052 396.735 593.741 386.474 593.741 386.474V318.976C593.767 318.631 593.785 318.272 593.795 317.901C593.794 317.896 593.794 317.891 593.795 317.886C593.805 317.516 593.809 317.132 593.808 316.733C593.721 300.207 593.682 283.68 593.691 267.152C593.691 261.644 593.691 256.135 593.691 250.624C593.691 245.113 593.698 239.604 593.711 234.098C593.734 217.57 593.754 201.042 593.77 184.515C593.776 171.242 593.769 157.969 593.748 144.697C593.728 127.475 593.717 110.26 593.716 93.0503C593.716 90.3749 593.716 87.7005 593.716 85.0273C593.725 78.3942 593.739 71.7617 593.758 65.1298C593.801 51.8647 593.88 38.6008 593.995 25.338C594.001 24.5992 593.991 23.877 593.963 23.1714C593.935 22.4659 593.89 21.7743 593.828 21.0965C593.765 20.4199 593.683 19.7583 593.584 19.1116C593.534 18.7883 593.479 18.4689 593.418 18.1533C593.3 17.5222 593.164 16.905 593.009 16.3017C592.932 15.9995 592.851 15.7018 592.764 15.4084C592.591 14.8207 592.398 14.2463 592.185 13.6852C592.08 13.4035 591.969 13.1269 591.852 12.8519C591.677 12.4419 591.488 12.0402 591.291 11.6452C591.095 11.2502 590.895 10.8619 590.676 10.4786C590.386 9.97197 590.075 9.47867 589.742 8.99869C589.484 8.62371 589.209 8.26038 588.923 7.90206C588.662 7.56874 588.393 7.23542 588.108 6.92376C587.714 6.47934 587.299 6.04936 586.861 5.63382C586.19 4.99514 585.484 4.39475 584.746 3.83555C584.495 3.64333 584.238 3.45501 583.974 3.27057C582.589 2.30115 581.13 1.44189 579.61 0.700684C571.589 1.47732 563.547 2.10063 555.548 3.0606C534.598 5.57549 513.733 8.83369 492.641 10.097C491.14 10.557 489.679 11.2736 488.153 11.4303C476.718 12.6452 465.284 13.8868 453.827 14.8601C435.543 16.4134 428.103 24.2714 427.979 42.534C427.928 50.1287 427.903 57.7217 427.864 65.3148C427.888 90.8949 427.914 116.475 427.943 142.057L427.764 192.471L427.544 192.538C427.571 205.634 427.597 218.73 427.622 231.825L427.544 253.991L427.677 253.979ZM510.934 371.436C508.266 371.158 503.057 370.446 497.824 370.103C491.96 369.723 489.296 366.674 489.431 360.97C489.581 354.727 493.648 353.873 498.662 354.353C503.885 354.853 509.107 355.405 514.338 355.807C522.729 356.452 526.093 359.346 525.511 365.599C525.002 371.168 523.05 372.141 510.934 371.438V371.436ZM584.364 31.5095C584.328 36.7526 584.305 41.9951 584.298 47.2372C584.273 57.9967 584.283 68.7546 584.269 79.5142C584.239 93.7359 584.209 107.958 584.177 122.179L584.207 197.108L584.247 199.024L584.092 229.097C584.116 230.023 584.139 230.948 584.161 231.87C584.183 234.366 584.204 236.866 584.222 239.37C584.396 260.621 584.569 281.874 584.741 303.129L584.718 311.628L584.649 335.781L584.638 340.029L584.626 343.969V343.985C584.626 345.307 584.219 346.179 583.609 346.747C582.053 348.192 579.168 347.647 578.224 347.414C578.029 347.367 577.916 347.332 577.916 347.332L446.325 335.696L446.131 335.679C437.303 334.881 436.858 331.679 436.906 330.801L436.933 330.576L437.116 329.076C436.926 327.398 436.766 325.72 436.637 324.041L436.207 314.557C436.136 308.742 436.44 302.928 437.118 297.152C436.437 295.259 436.437 293.188 437.118 291.294C435.525 285.889 436.973 280.461 437.006 275.048C436.895 267.493 436.784 259.944 436.672 252.401L436.187 164.776C436.226 164.726 436.266 164.681 436.302 164.631C436.344 164.089 436.387 163.549 436.429 163.008C435.877 149.45 435.782 135.892 436.584 122.343C435.398 106.626 435.802 90.9104 436.459 75.1877C436.841 66.0214 437.568 56.8118 437.021 47.6888C436.564 40.0674 440.288 37.9392 446.315 37.2142C446.59 37.1809 446.867 37.1492 447.148 37.1209C462.535 35.621 477.907 33.9544 493.293 32.4261C520.148 29.7451 547.005 27.0924 573.865 24.4681C575.166 24.3397 576.488 24.4364 577.801 24.4281C583.457 23.5981 584.403 26.9113 584.364 31.5111V31.5095Z" fill="#8BB7D0"></path><path d="M525.516 365.606C526.093 359.353 522.729 356.458 514.343 355.813C509.112 355.411 503.89 354.861 498.667 354.359C493.653 353.879 489.586 354.733 489.436 360.976C489.3 366.681 491.965 369.729 497.829 370.109C503.062 370.442 508.271 371.159 510.939 371.442C523.05 372.14 525.002 371.167 525.516 365.606Z" fill="#A1C4D9"></path><path d="M339.289 228.726C339.289 228.726 347.562 224.38 352.91 224.737C358.258 225.093 371.595 228.015 371.595 228.015L370.311 242.054C370.311 242.054 362.038 241.841 354.55 243.196C347.063 244.551 329.305 238.634 330.37 235.426C331.436 232.218 339.289 228.726 339.289 228.726Z" fill="#F5C5CE"></path><path d="M346.185 234.979C346.185 234.979 352.678 234.889 354.069 234.053C354.069 234.053 356.315 233.964 356.209 236.103C356.102 238.241 368.049 238.996 368.049 238.996L367.655 242.051C367.655 242.051 353.911 242.677 352.842 243.104C351.773 243.531 346.185 234.979 346.185 234.979Z" fill="#F0A8B5"></path><path d="M364.091 223.545H361.665C361.665 223.545 367.335 238.326 365.034 243.123L368.993 243.811L368.047 227.266L364.091 223.545Z" fill="white"></path><path d="M452.829 176.059L447.122 182.757L461.91 213.332L473.367 181.833L459.666 177.055C459.666 177.055 453.372 178.252 452.829 176.059Z" fill="#EDEDED"></path><path d="M480.936 279.824L484.691 339.089L531.051 343.188C531.051 343.188 533.143 313.713 536.03 301.205C538.917 288.697 534.106 270.736 534.106 270.736L480.936 279.824Z" fill="#148EFF"></path><path d="M494.577 285.811L497.687 340.238L545.084 344.43C545.084 344.43 546.778 319.704 549.667 307.196C552.555 294.689 547.74 276.728 547.74 276.728L494.577 285.811Z" fill="#2E9BFF"></path><path d="M495.824 301.643L496.158 308.705C496.158 308.705 539.811 309.548 550.587 297.292C550.587 297.292 550.382 286.676 549.384 284.894C548.387 283.113 495.824 301.643 495.824 301.643Z" fill="#132147"></path><path d="M522.585 307.838C522.585 307.838 521.142 314.253 523.919 317.816C523.919 317.816 524.631 320.098 525.843 320.098C527.055 320.098 534.545 320.168 536.112 318.03C537.68 315.891 537.825 306.77 537.825 306.77L522.585 307.838Z" fill="#FAC2AE"></path><path d="M523.833 310.026C523.833 310.026 525.562 317.317 523.923 317.816C523.923 317.816 524.547 320.104 525.847 320.097C527.148 320.091 524.847 307.891 524.847 307.891L523.833 310.026Z" fill="#F1A080"></path><path d="M411.46 99.798C411.46 99.798 405.896 110.061 407.396 119.041C407.396 119.041 408.251 121.392 400.977 129.197C400.977 129.197 398.089 132.083 409 132.832C409 132.832 412.208 134.115 411.46 143.201C410.711 152.288 424.724 156.034 442.16 150.258C442.16 150.258 448.15 146.943 452.323 168.004C452.323 168.004 453.108 174.632 451.11 176.913C449.112 179.195 466.943 177.34 472.362 160.236C472.362 160.236 455.818 148.689 459.954 129.018C464.089 109.348 434.851 90.8184 434.851 90.8184L411.46 99.798Z" fill="#F5C5CE"></path><path d="M447.874 119.377C447.874 119.377 452.543 126.523 451.788 132.831C451.032 139.139 467.397 158.917 467.397 158.917L468.262 156.031C468.262 156.031 458.377 149.049 459.309 134.258C460.241 119.467 447.874 119.377 447.874 119.377Z" fill="#F0A8B5"></path><path d="M411.745 104.216C411.745 104.216 393.346 98.5148 407.609 89.5335C421.872 80.5522 429.148 86.9686 429.148 86.9686C429.148 86.9686 419.448 102.933 411.745 104.216Z" fill="#364777"></path><path d="M417.023 104.216C417.023 104.216 396.199 90.5314 420.588 79.8401C444.977 69.1489 456.959 85.8282 459.668 96.2328C462.378 106.637 436.277 88.9631 417.023 104.216Z" fill="#232F63"></path><path d="M427.293 101.223C427.293 101.223 405.042 80.4121 443.695 83.4053C482.349 86.3985 462.094 137.002 462.094 137.002L452.869 107.031L427.293 101.223Z" fill="#1E2B59"></path><path d="M431.571 104.715C431.571 104.715 424.801 93.4451 444.338 98.1183C463.876 102.791 467.581 131.932 459.632 139.652C459.632 139.652 452.48 118.387 444.146 117.801C442.212 117.664 440.574 119.231 440.478 121.166C440.346 123.934 439.829 128.527 437.875 130.48C437.881 130.484 438.508 115.961 431.571 104.715Z" fill="#0F1B42"></path><path d="M447.617 177.055C447.617 177.055 440.271 189.6 437.703 197.439C435.135 205.279 429.865 208.557 429.865 208.557C429.865 208.557 423.161 211.057 403.408 218.109C383.656 225.16 365.469 220.745 364.256 222.74C363.044 224.735 369.177 235.141 367.893 241.628C367.893 241.628 368.322 243.128 367.038 243.128C365.754 243.128 366.609 244.981 372.599 244.481C378.589 243.981 418.312 245.194 434.144 236.648C434.144 236.648 445.055 230.448 452.543 215.482C452.543 215.482 470.373 260.384 472.369 277.916C474.365 295.449 475.871 305.285 475.871 305.285H486.569L485.285 257.39L447.617 177.055Z" fill="#232F63"></path><path d="M453.341 178.888L486.208 266.218L485.751 275.338L446.991 184.04C446.991 184.04 449.866 176.943 453.341 178.888Z" fill="#192654"></path><path d="M472.363 157.049C472.363 157.049 461.969 200.137 461.905 207.537C461.842 214.937 485.919 259.516 488.48 274.056C491.042 288.595 493.615 303.775 493.615 303.775C493.615 303.775 545.176 308.051 553.519 285.815C553.519 285.815 546.887 260.585 540.04 247.329C540.04 247.329 528.059 217.181 515.651 196.014C503.242 174.846 497.687 164.582 491.047 163.62C484.406 162.659 472.72 161.815 472.363 157.049Z" fill="#232F63"></path><path d="M534.406 239.631L537.83 241.941L540.044 247.329L543.918 296.327C543.918 296.327 539.261 300.93 533.127 300.93C526.994 300.93 534.406 239.631 534.406 239.631Z" fill="#192654"></path><path d="M489.335 206.167C489.335 206.167 481.633 189.354 490.404 194.634C499.176 199.914 524.81 243.894 522.589 255.393C520.368 266.893 525.282 301.795 525.282 301.795C525.282 301.795 521.218 303.5 516.724 303.461C516.724 303.461 511.545 243.364 507.719 238.487C503.894 233.611 489.335 206.167 489.335 206.167Z" fill="#192654"></path><path d="M310.371 232.361C310.371 232.361 318.982 233.003 323.261 231.4C327.54 229.797 329.145 228.103 331.444 228.388C333.744 228.673 339.949 227.123 340.538 226.375C341.126 225.627 343.158 227.802 340.965 229.44C338.772 231.078 331.873 233.751 333.691 235.088C335.508 236.425 335.93 236.853 341.96 234.856C347.99 232.86 357.546 242.626 357.546 242.626C357.546 242.626 357.689 246.068 353.053 245.166C353.053 245.166 351.984 247.258 348.276 246.901C348.276 246.901 348.417 249.467 339.075 248.112C339.075 248.112 338.225 250.536 335.939 250.536C332.995 250.536 332.967 249.434 328.935 248.932C320.323 247.864 308.803 243.206 308.128 241.503C307.109 238.936 310.371 232.361 310.371 232.361Z" fill="#F5C5CE"></path><path opacity="0.26" d="M329.243 248.979C329.243 248.979 338.937 236.72 346.655 235.168C346.655 235.168 351.991 236.821 357.546 242.631C357.546 242.631 357.332 246.143 353.053 245.171C353.053 245.171 352.126 247.228 348.276 246.906C348.276 246.906 348.811 249.472 339.075 248.117C339.075 248.117 337.635 251.847 333.274 250.089C333.274 250.084 329.872 249.056 329.243 248.979Z" fill="#EAA48F"></path><path d="M315.506 232.479C315.506 232.479 311.714 242.554 319.226 246.812L307.27 242.146L313.123 232.479H315.506Z" fill="#F0A8B5"></path><path d="M346.185 234.979C346.185 234.979 343.098 234.034 338.931 235.781C334.763 237.527 333.409 234.447 333.409 234.447C333.409 234.447 332.872 235.101 333.941 236.099C335.01 237.097 337.4 237.139 340.965 235.884C344.531 234.629 348.286 235.787 348.286 235.787L346.185 234.979Z" fill="#F0A8B5"></path><path d="M341.141 237.917L353.072 245.169L353.706 245.265C353.706 245.265 340.647 234.966 341.141 237.917Z" fill="#F0A8B5"></path><path d="M348.269 246.862C348.269 246.862 340.273 240.341 337.868 240.169C335.463 239.997 347.999 247.455 347.999 247.455L348.269 246.862Z" fill="#F0A8B5"></path><path d="M339.076 248.196C339.076 248.196 333.428 244.493 332.782 244.819C332.137 245.146 338.771 248.602 338.771 248.602L339.076 248.196Z" fill="#F0A8B5"></path><path d="M485.347 193.893C485.347 193.893 513.409 233.181 513.729 241.164C514.05 249.147 519.828 310.025 519.828 310.025C519.828 310.025 532.557 314.563 540.545 310.025C540.545 310.025 541.757 241.184 535.552 230.578C529.347 219.972 511.528 188.958 511.528 188.958" fill="#232F63"></path><path d="M452.382 168.648L454.675 177.703C454.675 177.703 451.394 180.48 449.683 182.76C447.972 185.039 444.691 191.741 444.691 191.741C444.691 191.741 444.67 169.36 452.382 168.648Z" fill="white"></path><path d="M467.396 155.602C467.396 155.602 465.373 166.435 454.676 177.7C454.676 177.7 461.95 178.053 470.295 188.103C470.295 188.103 474.502 168.36 474.502 158.952C474.507 158.952 467.28 151.966 467.396 155.602Z" fill="white"></path><path d="M193.924 228.798L174.267 294.795L165.996 267.713L179.959 236.068L193.924 228.798Z" fill="#DADDFB"></path><path d="M190.847 239.129C190.847 239.129 169.265 246.979 176.597 286.977L173.876 295.76C173.876 295.76 160.611 251.074 181.792 233.763L192.586 233.301L190.847 239.129Z" fill="#BEC3F9"></path><path d="M178.69 127.807C178.69 127.807 182.114 131.229 167.35 151.541C152.587 171.854 154.26 210.601 154.26 210.601L189.386 168.649L205.005 128.879L178.69 127.807Z" fill="#0F1A42"></path><path d="M228.751 89.1069C228.751 89.1069 253.355 94.0251 246.296 117.331C246.296 117.331 247.395 127.572 251.966 132.664C252.113 132.822 252.226 133.01 252.296 133.214C252.365 133.419 252.391 133.636 252.372 133.852C252.352 134.067 252.287 134.276 252.181 134.465C252.076 134.653 251.931 134.818 251.758 134.947C250.127 136.139 248.283 137.007 246.325 137.505L246.63 143.858C246.738 145.745 246.5 147.635 245.928 149.436C243.049 158.213 234.543 155.868 220.413 156.249C220.413 156.249 203.512 154.324 204.796 172.499C206.08 190.673 204.726 190.46 204.726 190.46L182.547 170.36C182.547 170.36 200.519 153.043 195.811 125.674C191.103 98.3049 228.751 89.1069 228.751 89.1069Z" fill="#F5C5CE"></path><path d="M189.642 160.696C189.642 160.696 204.37 187.04 205.15 177.735L208.062 186.82L196.556 178.153L187.999 163.026L189.642 160.696Z" fill="#F0A8B5"></path><path d="M244.839 99.5865C244.839 99.5865 234.314 98.5149 227.896 114.764C221.477 131.014 210.317 145.52 196.178 141.273L196.875 118.186C196.875 118.186 235.25 73.7159 244.839 99.5865Z" fill="#F0A8B5"></path><path d="M185.751 166.607C185.751 166.607 178.247 170.242 172.91 174.312C164.352 180.834 143.172 239.205 143.172 239.205C143.172 239.205 160.405 253.537 176.712 249.254C176.712 249.254 182.751 238.776 195.802 231.721C208.852 224.667 223.507 195.8 213.979 180.94C211.334 176.812 204.031 167.026 204.75 169.204C211.921 190.906 196.542 181.902 196.542 181.902L185.751 166.607Z" fill="#CDD1FA"></path><path d="M148.123 227C148.123 227 150.958 248.014 180.987 244.181L178.796 246.666C178.796 246.666 156.868 251.081 145 233.31L148.123 227Z" fill="#BEC3F9"></path><path d="M182.541 168.27C182.541 168.27 199.085 194.944 199.799 195.514C200.513 196.084 206.004 185.251 206.004 185.251C206.004 185.251 206.985 182.791 214.276 192.022C214.276 192.022 218.278 195.3 214.276 186.106L206.004 180.078C206.004 180.078 208.966 184.966 198.8 180.974C185.513 175.756 184.11 167.505 184.11 167.505L182.541 168.27Z" fill="#BEC3F9"></path><path d="M177.977 212.549C177.977 212.549 191.594 225.155 202.525 226.353C202.525 226.353 208.642 219.427 208.962 218.037C209.283 216.647 177.977 212.549 177.977 212.549Z" fill="#BEC3F9"></path><path d="M146.33 230.801C146.33 230.801 152.704 248.194 179.959 244.769C179.959 244.769 167.992 255.882 172.7 276.408C177.408 296.934 182.424 338.572 182.424 338.572L107.833 345.17C107.833 345.17 96.1084 283.256 113.223 259.95C130.338 236.644 135.579 246.557 146.33 230.801Z" fill="#4D4ADF"></path><path d="M188.756 162.198C188.756 162.198 195.76 176.811 205.307 182.349L200.084 193.234L182.541 166.078C182.541 166.078 189.408 158.315 188.756 162.198Z" fill="#EAEEFA"></path><path d="M205.307 182.35C205.307 182.35 212.493 187.35 215.381 191.631C215.381 191.631 215.508 182.896 212.77 179.082C210.031 175.267 204.813 168.525 204.813 168.525L205.307 182.35Z" fill="#EAEEFA"></path><path d="M184.395 184.468C184.395 184.468 218.34 198.579 233.03 207.417C247.72 216.255 254.282 217.822 254.282 217.822C254.282 217.822 261.13 219.822 266.976 220.103C272.823 220.385 305.771 230.801 305.771 230.801L304.631 242.634C304.631 242.634 254.996 240.067 237.88 233.801C220.763 227.535 177.976 212.562 177.976 212.562C177.976 212.562 171.13 181.76 184.395 184.468Z" fill="#DADDFB"></path><path d="M299.469 228.841C299.469 228.841 299.378 241.734 285.477 241.27L303.632 242.589L302.278 229.652L299.469 228.841Z" fill="#BEC3F9"></path><path d="M301.173 229.44C301.173 229.44 302.403 232.843 300.744 237.974C299.085 243.106 299.47 242.318 299.47 242.318C299.47 242.318 297.959 243.534 299.432 244.176C300.904 244.817 308.874 245.726 310.318 244.709C311.762 243.692 313.581 232.201 313.153 231.293C312.724 230.385 298.873 226.571 301.173 229.44Z" fill="#EAEEFA"></path><path d="M243.558 97.7966C243.558 97.7966 234.85 89.7486 222.976 119.576C211.103 149.403 176.892 135.387 176.892 135.387C176.892 135.387 172.056 89.1069 212.912 84.4021C244.19 80.8039 243.558 97.7966 243.558 97.7966Z" fill="#232F63"></path><path d="M152.554 238.772C152.554 238.772 127.558 257.378 134.832 279.188C142.106 300.997 124.455 343.718 124.455 343.718L182.424 338.565C182.424 338.565 176.045 287.279 171.805 271.009C171.805 271.009 169.82 255.748 179.959 244.769C179.959 244.769 164.284 247.899 152.554 238.772Z" fill="#5D5AE2"></path><path d="M450.827 122.352C450.827 122.352 454.673 127.379 456.497 134.97C458.321 142.561 463.548 144.485 463.548 144.485C463.548 144.485 461.318 140.055 462.972 132.808C464.627 125.562 450.827 122.352 450.827 122.352Z" fill="#0F1B42"></path><path d="M152.447 106.081C150.522 105.234 148.268 103.058 146.598 101.23V91.8182C146.598 89.3483 143.893 87.3301 140.587 87.3301H28.2148C24.9096 87.3301 22.2114 89.3483 22.2114 91.8182V113.447C22.2114 115.916 24.9163 117.936 28.2148 117.936H140.587C143.893 117.936 146.598 115.916 146.598 113.447V105.781L152.447 106.081Z" fill="#05A9CC"></path><path d="M127.563 95.7778H30.4629C30.2787 95.7778 30.1294 95.9271 30.1294 96.1112V98.3627C30.1294 98.5468 30.2787 98.6961 30.4629 98.6961H127.563C127.747 98.6961 127.896 98.5468 127.896 98.3627V96.1112C127.896 95.9271 127.747 95.7778 127.563 95.7778Z" fill="white"></path><path d="M127.563 101.353H30.4629C30.2787 101.353 30.1294 101.502 30.1294 101.686V103.937C30.1294 104.122 30.2787 104.271 30.4629 104.271H127.563C127.747 104.271 127.896 104.122 127.896 103.937V101.686C127.896 101.502 127.747 101.353 127.563 101.353Z" fill="white"></path><path d="M89.8548 106.93H30.4629C30.2787 106.93 30.1294 107.079 30.1294 107.263V109.515C30.1294 109.699 30.2787 109.848 30.4629 109.848H89.8548C90.039 109.848 90.1883 109.699 90.1883 109.515V107.263C90.1883 107.079 90.039 106.93 89.8548 106.93Z" fill="white"></path><path d="M499.765 103.033C501.689 102.186 503.944 100.01 505.613 98.1816V88.7753C505.613 86.3054 508.318 84.2871 511.616 84.2871H623.988C627.295 84.2871 630 86.3054 630 88.7753V110.404C630 112.873 627.295 114.893 623.988 114.893H511.623C508.318 114.893 505.62 112.873 505.62 110.404V102.738L499.765 103.033Z" fill="#05A9CC"></path><path d="M524.649 95.6465L621.749 95.6465C621.933 95.6465 622.082 95.4973 622.082 95.3132V93.0616C622.082 92.8775 621.933 92.7283 621.749 92.7283L524.649 92.7283C524.464 92.7283 524.315 92.8775 524.315 93.0616V95.3132C524.315 95.4973 524.464 95.6465 524.649 95.6465Z" fill="white"></path><path d="M524.649 101.223L621.749 101.223C621.933 101.223 622.082 101.074 622.082 100.89V98.6382C622.082 98.4542 621.933 98.3049 621.749 98.3049L524.649 98.3049C524.464 98.3049 524.315 98.4542 524.315 98.6382V100.89C524.315 101.074 524.464 101.223 524.649 101.223Z" fill="white"></path><path d="M524.648 106.798L584.04 106.798C584.224 106.798 584.373 106.649 584.373 106.465V104.213C584.373 104.029 584.224 103.88 584.04 103.88H524.648C524.463 103.88 524.314 104.029 524.314 104.213V106.465C524.314 106.649 524.463 106.798 524.648 106.798Z" fill="white"></path><path d="M138.639 139.225C138.342 147.208 131.752 153.436 123.917 153.134C116.083 152.833 109.974 146.113 110.271 138.135C110.568 130.157 117.158 123.924 124.991 124.225C132.824 124.527 138.934 131.24 138.639 139.225Z" fill="#9ED04E"></path><path d="M123.569 145.438C123.491 145.438 123.413 145.422 123.341 145.391C123.269 145.359 123.204 145.314 123.15 145.256L117.771 139.52C117.664 139.406 117.606 139.255 117.61 139.1C117.613 138.944 117.677 138.796 117.789 138.687C117.843 138.633 117.908 138.591 117.979 138.563C118.05 138.535 118.125 138.521 118.202 138.523C118.278 138.525 118.353 138.542 118.422 138.573C118.492 138.604 118.554 138.649 118.606 138.705L123.531 143.953L130.958 134.504C131.005 134.443 131.063 134.393 131.13 134.356C131.197 134.318 131.27 134.295 131.346 134.286C131.422 134.278 131.498 134.284 131.572 134.306C131.645 134.328 131.713 134.364 131.772 134.412C131.893 134.512 131.969 134.655 131.986 134.811C132.002 134.966 131.957 135.122 131.86 135.245L124.023 145.22C123.972 145.285 123.907 145.339 123.833 145.377C123.76 145.415 123.679 145.436 123.596 145.44L123.569 145.438Z" fill="white"></path><path d="M544.204 136.518C543.907 144.503 537.316 150.731 529.482 150.427C521.647 150.124 515.541 143.408 515.838 135.428C516.134 127.448 522.723 121.215 530.558 121.518C538.392 121.822 544.5 128.533 544.204 136.518Z" fill="#9ED04E"></path><path d="M529.133 142.731C529.055 142.731 528.977 142.715 528.905 142.684C528.833 142.653 528.769 142.607 528.715 142.55L523.335 136.817C523.23 136.703 523.173 136.552 523.176 136.396C523.179 136.241 523.243 136.093 523.354 135.983C523.408 135.93 523.473 135.888 523.543 135.86C523.614 135.833 523.69 135.819 523.766 135.821C523.842 135.823 523.918 135.84 523.987 135.871C524.056 135.903 524.119 135.948 524.171 136.003L529.095 141.252L536.523 131.802C536.569 131.742 536.628 131.691 536.694 131.654C536.761 131.617 536.834 131.593 536.91 131.585C536.986 131.576 537.063 131.583 537.136 131.604C537.209 131.626 537.277 131.662 537.336 131.71C537.458 131.809 537.536 131.952 537.553 132.108C537.569 132.264 537.524 132.421 537.426 132.544L529.589 142.52C529.538 142.585 529.473 142.638 529.399 142.676C529.326 142.714 529.245 142.736 529.162 142.74L529.133 142.731Z" fill="white"></path><path d="M580 28L531.5 32.5L528 51L577 46L580 28Z" fill="#B9DBE9"></path><path d="M577.814 24.4246C576.502 24.433 575.179 24.3363 573.879 24.4646C547.02 27.1001 520.163 29.7528 493.306 32.4227C477.921 33.9593 462.549 35.6242 447.162 37.1175C446.877 37.1458 446.6 37.1775 446.328 37.2108V58.5516L584.301 47.2387C584.312 41.9978 584.334 36.7553 584.368 31.511C584.403 26.9112 583.457 23.598 577.814 24.4246ZM542.993 45.9604C540.59 45.9604 538.642 43.5355 538.642 40.544C538.642 37.5524 540.59 35.1275 542.993 35.1275C545.396 35.1275 547.342 37.5524 547.342 40.544C547.342 43.5355 545.396 45.9604 542.993 45.9604ZM555.972 44.5355C553.569 44.5355 551.621 42.1106 551.621 39.1191C551.621 36.1275 553.569 33.7026 555.972 33.7026C558.375 33.7026 560.323 36.1275 560.323 39.1191C560.323 42.1106 558.375 44.5355 555.972 44.5355ZM569.236 43.1106C566.833 43.1106 564.887 40.6857 564.887 37.6941C564.887 34.7026 566.833 32.276 569.236 32.276C571.639 32.276 573.587 34.7026 573.587 37.6941C573.587 40.6857 571.639 43.1106 569.236 43.1106Z" fill="#A3CFE2"></path><path fill-rule="evenodd" clip-rule="evenodd" d="M483.444 39.1191C481.043 39.1191 479.095 41.544 479.095 44.5356C479.095 47.5271 481.043 49.952 483.444 49.952C485.845 49.952 487.795 47.5271 487.795 44.5356C487.795 41.544 485.847 39.1191 483.444 39.1191ZM470.18 40.5442C467.778 40.5442 465.831 42.9691 465.831 45.9606C465.831 48.9522 467.778 51.3771 470.18 51.3771C472.581 51.3771 474.53 48.9522 474.53 45.9606C474.53 42.9691 472.583 40.5442 470.18 40.5442ZM452.852 47.3871C452.852 44.3956 454.798 41.969 457.201 41.969C459.604 41.969 461.552 44.3956 461.552 47.3871C461.552 50.3787 459.604 52.8036 457.201 52.8036C454.798 52.8036 452.852 50.3787 452.852 47.3871Z" fill="#B9DBE9"></path></svg>