<svg xmlns="http://www.w3.org/2000/svg" width="630" height="437" viewBox="0 0 630 437" fill="none"><path d="M558.805 72.693C591.702 68.666 607.045 142.457 608.957 216.349C610.916 292.105 597.365 363.296 551.909 398.934C515.42 427.539 480.86 429.504 428.208 431.27C131.587 441.193 96.1778 424.064 77.9053 406.04C23.8581 352.72 -4.17339 253.322 16.929 219.415C44.5699 175.011 127.19 241.762 181.023 182.435C223.874 135.206 208.297 65.1895 251.19 28.5378C288.828 -3.62785 354.89 27.3785 389.264 53.3561C448.206 97.8994 455.789 114.148 487.423 109.343C521.283 104.198 527.48 76.5276 558.805 72.693Z" fill="#EDF2F5"></path><path d="M135.534 80.1791C148.29 90.2301 146.203 130.152 129.917 154.203C103.479 193.246 48.2505 177.744 43.4489 157.929C37.0048 131.317 113.08 62.489 135.534 80.1791Z" fill="#F2F5FA"></path><path d="M62.4409 388.745C54.4377 382.909 46.3354 376.988 39.948 369.158C34.3858 362.339 30.3039 354.292 25.2708 347.011C22.0157 342.3 18.3181 337.836 16.0787 332.49C13.8393 327.144 13.3165 320.527 16.3936 315.811C19.5952 310.893 26.033 309.336 31.4913 310.912C36.9495 312.487 41.5196 316.65 45.211 321.314C50.1655 327.616 53.8268 334.837 55.9842 342.562C57.9558 349.595 58.6834 356.957 60.674 363.984C62.5307 370.533 65.4645 376.664 68.8976 382.429C72.0125 387.658 79.3433 396.741 81.6377 402.224C77.6944 405.103 65.8472 391.233 62.4409 388.745Z" fill="#E2EAF5"></path><g style="mix-blend-mode:multiply"><g style="mix-blend-mode:multiply"><path d="M78.5605 400.787C78.5366 400.786 78.5133 400.78 78.4927 400.768C74.1258 398.309 65.6644 390.281 50.1463 366.017C46.8392 360.846 45.3164 354.616 43.8471 348.592C43.151 345.741 42.4298 342.796 41.5337 340.005C39.3904 333.35 35.6707 324.223 28.1479 321.822C28.1122 321.811 28.0826 321.785 28.0654 321.752C28.0483 321.719 28.0451 321.68 28.0565 321.644C28.0621 321.626 28.071 321.61 28.0829 321.596C28.0948 321.582 28.1094 321.57 28.1257 321.562C28.1421 321.553 28.16 321.548 28.1784 321.546C28.1968 321.545 28.2153 321.547 28.2329 321.552C35.8864 323.994 39.6455 333.203 41.8077 339.918C42.7101 342.719 43.4298 345.67 44.1274 348.524C45.592 354.527 47.1085 360.733 50.392 365.865C57.392 376.808 70.3715 395.861 78.6439 400.523C78.6601 400.532 78.6743 400.544 78.6858 400.559C78.6973 400.573 78.7057 400.59 78.7107 400.608C78.7157 400.625 78.7171 400.644 78.7148 400.662C78.7125 400.681 78.7066 400.698 78.6975 400.714C78.6846 400.739 78.6646 400.759 78.6402 400.772C78.6157 400.785 78.5879 400.79 78.5605 400.787Z" fill="white"></path></g></g><path d="M24.7261 372.568C18.5025 370.844 10.5056 370.869 7.47099 376.88C4.93083 381.912 7.44422 388.222 10.3293 393.156C12.7655 397.321 15.7088 401.495 19.9167 403.371C22.7907 404.651 25.967 404.726 29.0505 404.707C37.6547 404.656 46.2463 404.041 54.7702 402.866C64.6426 401.503 77.1923 404.259 86.2663 409.828C72.9403 390.127 45.671 378.369 24.7261 372.568Z" fill="#B6C5D8"></path><path d="M81.9861 405.044C81.9673 405.044 81.9487 405.04 81.9314 405.033C81.9141 405.026 81.8984 405.015 81.8853 405.002C76.7735 399.73 46.7042 389.433 38.8932 388.045C31.2113 386.679 23.4995 387.187 16.257 387.826C16.2198 387.829 16.1829 387.817 16.1544 387.793C16.1259 387.769 16.1081 387.734 16.105 387.697C16.1019 387.66 16.1136 387.623 16.1377 387.594C16.1618 387.566 16.1962 387.548 16.2333 387.545C23.1751 386.933 31.227 386.395 38.942 387.767C42.9467 388.479 52.6081 391.487 61.416 394.763C76.2932 400.298 80.7514 403.438 82.0853 404.806C82.1113 404.833 82.1258 404.868 82.1258 404.905C82.1258 404.943 82.1113 404.978 82.0853 405.005C82.0722 405.018 82.0567 405.028 82.0396 405.034C82.0226 405.041 82.0044 405.044 81.9861 405.044Z" fill="white"></path><path d="M518.525 159.72C518.583 157.969 519.263 156.024 520.747 155.2C521.923 154.547 523.509 154.612 524.449 155.524C531.748 162.587 525.881 176.952 525.881 176.952C525.881 176.952 518.074 172.887 518.525 159.72Z" fill="#B6C5D8"></path><path d="M509.083 187.15C499.77 196.259 520.027 202.146 529.398 198.091C529.405 198.091 517.099 179.307 509.083 187.15Z" fill="#B6C5D8"></path><path d="M543.288 168.986C542.608 166.516 543.131 163.354 545.25 161.94C546.825 160.887 548.89 161.092 550.447 162.01C552.005 162.928 553.968 165.463 554.556 167.272C558.157 178.343 552.157 185.973 552.157 185.973C552.157 185.973 544.401 173.031 543.288 168.986Z" fill="#B6C5D8"></path><path d="M613.464 222.937C613.554 221.06 614.37 219.008 616.001 218.222C617.033 217.725 618.228 217.823 619.241 218.259C620.253 218.694 621.112 219.44 621.905 220.232C623.603 221.926 624.597 224.221 624.842 226.734C625.463 233.078 621.496 239.335 621.496 239.335C621.496 239.335 613.244 227.615 613.464 222.937Z" fill="#B6C5D8"></path><path d="M581.741 234.726C579.338 230.177 574.262 227.362 569.271 227.958C568.002 228.116 566.717 228.494 565.665 229.307C563.303 231.14 562.687 234.782 563.547 237.649C564.407 240.517 566.416 242.76 568.464 244.792C572.177 248.473 578.928 251.234 583.221 254.134C583.229 254.134 586.616 243.952 581.741 234.726Z" fill="#B6C5D8"></path><path d="M553.907 343.498C549.696 336.269 545.733 328.542 547.515 320.515C548.654 315.388 552.134 310.5 558.155 305.575C563.533 301.175 569.52 297.561 575.309 294.061C580.616 290.857 586.104 287.544 591.104 283.636C596.726 279.243 601.408 274.026 604.647 268.55C608.403 262.196 610.074 255.813 609.613 249.574C609.202 244.012 606.477 233.258 592.862 223.729C585.221 218.382 576.459 214.777 567.98 211.291C566.751 210.787 565.524 210.28 564.298 209.771C559.87 207.925 554.692 205.67 549.81 202.988C544.638 200.133 540.378 197.105 536.789 193.726C532.722 189.898 529.388 185.314 527.131 180.476C524.644 175.124 523.52 169.636 523.788 164.166L524.103 164.182C523.836 169.6 524.953 175.037 527.41 180.343C529.643 185.151 532.958 189.7 536.997 193.502C545.029 201.054 555.351 205.711 564.399 209.482C565.623 209.993 566.85 210.5 568.079 211.003C576.567 214.495 585.345 218.101 593.016 223.473C597.61 226.688 601.529 230.534 604.355 234.595C607.651 239.328 609.517 244.367 609.899 249.554C610.372 255.863 608.681 262.303 604.892 268.714C601.633 274.224 596.923 279.472 591.271 283.888C586.255 287.808 580.761 291.125 575.446 294.333C569.665 297.823 563.687 301.432 558.326 305.817C552.364 310.697 548.918 315.525 547.796 320.581C546.038 328.498 549.972 336.164 554.153 343.338L553.907 343.498Z" fill="#B6C5D8"></path><path d="M551.279 203.714L551.121 203.68C553.397 192.623 552.261 178.353 548.296 168.172L548.444 168.114C552.423 178.323 553.56 192.631 551.279 203.714Z" fill="#B6C5D8"></path><path d="M530.872 198.242C529.39 198.26 527.915 198.037 526.504 197.583C522.537 196.236 519.027 193.81 515.638 191.466L515.726 191.335C519.112 193.674 522.612 196.094 526.559 197.433C530.264 198.695 535.505 198.091 539.601 195.937L539.674 196.078C536.951 197.484 533.935 198.225 530.872 198.242Z" fill="#B6C5D8"></path><path d="M609.721 256.068L609.638 255.934C613.792 253.341 619.053 247.901 620.784 242.085C622.397 236.665 621.998 230.728 619.682 225.81L619.823 225.743C622.149 230.701 622.553 236.673 620.926 242.131C619.194 247.986 613.901 253.459 609.721 256.068Z" fill="#B6C5D8"></path><path d="M601.362 273.717C597.922 273.559 591.924 267.723 589.14 263.611C583.089 254.682 578.808 246.752 574.242 237.594L574.382 237.523C578.949 246.672 583.223 254.599 589.269 263.523C592.036 267.606 597.979 273.402 601.37 273.559L601.362 273.717Z" fill="#B6C5D8"></path><path d="M535.057 404.629C541.951 390.657 554.622 380.595 567.827 373.24C578.841 367.099 590.923 362.383 603.046 362.787C606.844 362.913 610.762 363.615 613.691 366.001C616.62 368.388 618.258 372.834 616.649 376.57C615.293 379.724 612.121 381.587 609.082 382.879C599.075 387.146 588.275 387.911 577.729 389.573C559.603 392.432 540.792 398.675 527.743 412.846" fill="#E2EAF5"></path><path d="M545.823 394.667C545.804 394.667 545.785 394.663 545.767 394.656C545.75 394.648 545.734 394.637 545.721 394.623C545.708 394.609 545.697 394.594 545.69 394.577C545.683 394.56 545.68 394.542 545.68 394.523C545.68 394.505 545.683 394.486 545.69 394.469C545.697 394.452 545.708 394.437 545.721 394.424C554.105 386.52 565.776 379.959 578.584 375.948C590.672 372.162 602.059 371.216 609.825 373.331C609.843 373.336 609.859 373.344 609.874 373.356C609.888 373.367 609.901 373.381 609.91 373.397C609.919 373.413 609.925 373.431 609.927 373.449C609.929 373.468 609.928 373.486 609.923 373.504C609.918 373.522 609.91 373.538 609.899 373.553C609.887 373.568 609.873 373.58 609.857 373.589C609.841 373.598 609.824 373.604 609.805 373.606C609.787 373.609 609.769 373.607 609.751 373.603C602.034 371.495 590.707 372.448 578.669 376.218C565.9 380.215 554.259 386.753 545.913 394.629C545.889 394.652 545.857 394.665 545.823 394.667Z" fill="#008CBB"></path><path d="M20.5607 258.324C21.9481 258.245 31.4064 250.655 35.0489 248.098C36.0741 247.379 37.115 246.625 37.8316 245.552C38.5481 244.479 38.8804 243.011 38.3591 241.814C37.7166 240.329 36.6395 238.848 33.9371 238.848C29.2253 238.858 27.5906 240.536 25.2977 243.107C17.7166 251.596 20.5607 258.324 20.5607 258.324Z" fill="#B6C5D8"></path><path d="M62.967 288.934C67.0835 290.939 71.4851 292.938 75.9622 292.316C77.6945 292.076 79.5953 291.221 80.1748 289.43C80.6693 287.9 79.9874 286.145 78.8662 285.071C77.7449 283.997 76.2693 283.477 74.8158 283.092C69.3339 281.642 61.6378 282.443 56.2095 284.114C56.2095 284.119 60.5087 287.737 62.967 288.934Z" fill="#B6C5D8"></path><path d="M90.0901 223.04C88.2539 221.778 86.224 220.103 86.2256 217.749C86.2272 215.396 88.4996 213.591 90.6776 213.579C92.8555 213.566 94.8791 214.855 96.5153 216.418C103.444 223.007 102.581 230.521 102.581 230.521C102.581 230.521 92.1358 224.44 90.0901 223.04Z" fill="#B6C5D8"></path><path d="M95.5543 202.939C93.9417 202.189 92.2787 201.283 91.3322 199.682C90.8724 198.903 90.611 197.917 90.8945 197.043C91.3669 195.583 92.2142 194.272 95.6189 194.939C106.376 197.053 108.72 205.034 108.72 205.034C108.72 205.034 98.4094 204.268 95.5543 202.939Z" fill="#B6C5D8"></path><path d="M127.068 220.59C131.383 220.186 135.838 217.858 138.564 214.206C139.591 212.829 140.531 211.309 140.873 209.577C141.214 207.845 140.851 205.859 139.613 204.703C138.103 203.294 135.706 203.52 134.043 204.703C132.38 205.886 131.31 207.832 130.444 209.779C129.284 212.377 127.068 220.59 127.068 220.59Z" fill="#B6C5D8"></path><path d="M49.9733 391.064L18.6347 361.135C13.1229 355.868 7.41584 350.422 3.84104 343.249C0.24261 336.031 -0.85503 327.424 0.664655 318.355C2.12587 309.837 5.6299 301.802 10.8757 294.939C15.6568 288.748 21.6615 283.434 29.2347 278.692C35.3544 274.863 42.5418 271.407 51.2064 268.124C56.0883 266.279 61.1135 264.583 65.9749 262.944C76.1135 259.526 86.6048 255.989 96.3025 250.899C107.857 244.836 114.751 237.362 116.792 228.682C118.28 222.354 117.046 215.432 113.485 210.153C109.924 204.873 104.217 201.502 98.2095 201.113L98.2206 200.955C104.282 201.346 110.041 204.752 113.622 210.063C117.203 215.374 118.446 222.346 116.947 228.717C114.899 237.443 107.97 244.953 96.3765 251.038C86.6615 256.135 76.1717 259.671 66.0269 263.092C61.167 264.731 56.1418 266.425 51.2647 268.269C42.6032 271.542 35.43 274.994 29.3198 278.819C21.7607 283.551 15.7765 288.851 11.0017 295.026C5.77163 301.868 2.27837 309.879 0.822135 318.371C-0.692825 327.405 0.400085 335.981 3.98276 343.167C7.54497 350.316 13.2395 355.752 18.745 361.01L50.0836 390.938L49.9733 391.064Z" fill="#B6C5D8"></path><path d="M115.386 233.28L115.252 233.196C117.361 229.778 120.569 226.729 123.671 223.776C128.08 219.588 132.625 215.259 134.291 209.717L134.449 209.763C132.772 215.344 128.203 219.689 123.786 223.891C120.683 226.835 117.483 229.879 115.386 233.28Z" fill="#B6C5D8"></path><path d="M99.6251 249.235L99.5133 249.121C105.539 243.192 105.052 233.747 101.102 228.041C99.9259 226.343 98.4519 224.887 97.0267 223.467C96.1401 222.587 95.2251 221.678 94.3857 220.719L94.5039 220.615C95.3401 221.562 96.2535 222.478 97.1369 223.355C98.5684 224.775 100.047 226.245 101.231 227.956C105.219 233.71 105.709 243.247 99.6251 249.235Z" fill="#B6C5D8"></path><g opacity="0.4"><path opacity="0.4" d="M71.1451 287.21C65.5073 286.972 59.4916 285.603 53.7341 283.251C48.094 280.936 42.8373 277.777 38.1436 273.881L38.2443 273.76C42.9273 277.646 48.1724 280.796 53.8002 283.104C59.5357 285.451 65.5373 286.816 71.1577 287.048L71.1451 287.21Z" fill="#606060"></path></g><g opacity="0.4"><path opacity="0.4" d="M17.011 287.858C14.9544 281.287 14.9244 273.793 16.9292 266.755C18.9339 259.717 22.8551 253.541 27.9732 249.367L28.0725 249.489C22.9795 253.644 19.0756 259.791 17.0803 266.799C15.0851 273.807 15.1134 281.27 17.1606 287.811L17.011 287.858Z" fill="#606060"></path></g><g style="mix-blend-mode:multiply" opacity="0.2"><g style="mix-blend-mode:multiply" opacity="0.2"><path d="M475.902 340.555C475.5 343.239 474.755 345.861 473.687 348.355C468.148 335.635 463.274 319.016 462.096 298.618C461.781 293.097 463.198 287.418 465.918 282.658C466.184 282.985 466.434 283.326 466.666 283.678C470.57 289.453 472.578 296.487 474.046 303.492C476.594 315.626 477.743 328.256 475.902 340.555Z" fill="#5254BC"></path></g></g><path d="M530.521 339.842C542.313 335.305 554.559 331.687 565.279 324.699C568.52 322.584 571.646 320.125 573.94 316.871C576.234 313.617 577.655 309.467 577.142 305.405C576.62 301.275 574.179 297.321 575.001 293.25C575.543 290.568 577.401 288.469 578.823 286.193C582.203 280.781 583.209 273.705 581.49 267.441C579.642 260.712 574.987 255.328 572.337 248.921C570.161 243.603 569.402 237.81 570.132 232.109C560.241 232.253 551.211 238.103 541.485 240.059C534.047 241.555 526.307 240.742 518.932 242.583C505.483 245.932 494.491 258.751 492.4 273.528C486.162 272.367 479.45 274.802 475.116 279.799C470.507 285.114 467.913 292.663 468.332 299.941C471.371 352.805 499.31 380.387 499.31 380.387C499.31 380.387 526.025 341.572 530.521 339.842Z" fill="#E2EAF5"></path><path d="M504.148 339.613C504.113 339.614 504.079 339.601 504.053 339.577C504.027 339.553 504.011 339.521 504.008 339.486C502.765 326.263 507.033 313.401 511.83 301.471C517.591 287.146 522.962 276.882 529.249 268.189C537.172 257.237 546.676 249.085 556.735 244.617C556.77 244.602 556.808 244.602 556.843 244.615C556.878 244.629 556.906 244.655 556.921 244.689C556.929 244.706 556.933 244.724 556.934 244.743C556.934 244.761 556.931 244.78 556.925 244.797C556.918 244.814 556.908 244.83 556.895 244.844C556.883 244.857 556.867 244.868 556.85 244.875C546.835 249.323 537.37 257.442 529.477 268.353C523.205 277.028 517.843 287.27 512.091 301.572C507.307 313.47 503.05 326.294 504.288 339.456C504.29 339.475 504.289 339.494 504.284 339.512C504.278 339.53 504.269 339.547 504.258 339.561C504.246 339.576 504.231 339.588 504.214 339.597C504.198 339.606 504.179 339.612 504.161 339.613H504.148Z" fill="white"></path><path d="M517.065 289.825C517.033 289.825 517.003 289.815 516.978 289.796C516.953 289.777 516.936 289.75 516.928 289.72C514.183 278.618 513.254 264.447 514.501 252.734C514.503 252.715 514.508 252.697 514.517 252.68C514.526 252.664 514.538 252.649 514.553 252.637C514.568 252.626 514.585 252.617 514.603 252.612C514.621 252.607 514.64 252.606 514.658 252.609C514.677 252.611 514.695 252.617 514.712 252.626C514.728 252.635 514.743 252.647 514.754 252.661C514.766 252.676 514.775 252.693 514.78 252.711C514.785 252.729 514.787 252.748 514.784 252.767C513.54 264.45 514.469 278.583 517.203 289.655C517.208 289.673 517.209 289.692 517.206 289.71C517.203 289.728 517.197 289.746 517.187 289.761C517.178 289.777 517.165 289.791 517.151 289.802C517.136 289.813 517.119 289.821 517.101 289.825C517.089 289.827 517.077 289.827 517.065 289.825Z" fill="white"></path><path d="M519.073 285.663C519.05 285.663 519.028 285.658 519.008 285.647C518.988 285.637 518.971 285.621 518.958 285.603C518.947 285.588 518.94 285.571 518.936 285.553C518.932 285.535 518.932 285.516 518.935 285.498C518.938 285.48 518.945 285.462 518.955 285.447C518.965 285.431 518.977 285.418 518.993 285.407C531.167 276.948 549.977 271.684 564.733 272.596C564.752 272.597 564.771 272.602 564.788 272.611C564.805 272.619 564.82 272.631 564.833 272.646C564.845 272.661 564.854 272.678 564.86 272.697C564.865 272.715 564.867 272.734 564.865 272.754C564.864 272.772 564.86 272.79 564.852 272.807C564.844 272.824 564.832 272.839 564.818 272.851C564.804 272.863 564.788 272.873 564.77 272.878C564.753 272.884 564.734 272.886 564.715 272.885C550.015 271.973 531.281 277.219 519.153 285.645C519.129 285.659 519.101 285.665 519.073 285.663Z" fill="white"></path><path d="M504.622 324.633C504.604 324.335 504.586 324.002 504.567 323.644C504.353 319.723 503.956 312.424 501.854 305.241C499.285 296.465 494.961 290.635 489.002 287.912L489.199 287.481C495.287 290.262 499.698 296.193 502.307 305.107C504.426 312.344 504.827 319.679 505.038 323.619C505.059 323.979 505.076 324.308 505.093 324.605L504.622 324.633Z" fill="white"></path><path d="M508.879 309.814C508.858 309.814 508.837 309.809 508.817 309.8C508.798 309.791 508.782 309.777 508.769 309.76C508.757 309.746 508.749 309.729 508.744 309.711C508.739 309.693 508.738 309.675 508.74 309.656C508.743 309.638 508.749 309.62 508.758 309.604C508.767 309.588 508.779 309.574 508.794 309.563C514.208 305.355 520.986 302.377 528.391 300.949C535.375 299.604 542.528 299.765 548.531 301.399C548.567 301.409 548.597 301.433 548.616 301.465C548.634 301.498 548.639 301.536 548.63 301.572C548.625 301.59 548.617 301.607 548.605 301.621C548.594 301.636 548.58 301.648 548.564 301.657C548.548 301.666 548.53 301.672 548.512 301.674C548.493 301.676 548.475 301.675 548.457 301.67C542.495 300.047 535.386 299.889 528.444 301.227C521.082 302.646 514.347 305.604 508.965 309.786C508.94 309.804 508.91 309.814 508.879 309.814Z" fill="white"></path><path d="M535.783 260.519C535.748 260.52 535.714 260.507 535.688 260.483C535.662 260.459 535.646 260.427 535.643 260.392C535.485 258.611 535.285 252.357 539.57 246.628C539.592 246.598 539.626 246.578 539.663 246.573C539.7 246.567 539.737 246.577 539.767 246.599C539.797 246.622 539.817 246.655 539.822 246.692C539.827 246.729 539.818 246.766 539.795 246.796C535.57 252.445 535.762 258.611 535.923 260.362C535.925 260.381 535.923 260.4 535.918 260.418C535.913 260.436 535.904 260.453 535.892 260.467C535.88 260.482 535.866 260.494 535.849 260.503C535.832 260.512 535.814 260.518 535.795 260.519H535.783Z" fill="white"></path><path d="M538.999 257.207C538.968 257.207 538.937 257.196 538.913 257.177C538.888 257.158 538.871 257.131 538.863 257.101C538.855 257.071 538.857 257.039 538.869 257.01C538.881 256.981 538.902 256.957 538.929 256.942C544.311 253.958 551.311 253.41 558.643 255.402C558.678 255.412 558.709 255.436 558.727 255.468C558.745 255.5 558.75 255.539 558.74 255.574C558.736 255.592 558.728 255.609 558.717 255.624C558.706 255.639 558.692 255.651 558.676 255.66C558.66 255.669 558.642 255.675 558.624 255.678C558.605 255.68 558.587 255.679 558.569 255.674C551.307 253.702 544.381 254.24 539.066 257.19C539.045 257.2 539.022 257.206 538.999 257.207Z" fill="white"></path><path d="M536.961 366.399H84.0708V437H536.961V366.399Z" fill="#B0C6DE"></path><path d="M537.307 366.399H84.4175V404.202H537.307V366.399Z" fill="#C6D6E7"></path><path d="M537.307 366.399H84.4175V391.599H537.307V366.399Z" fill="#E2EBF3"></path><path d="M456.115 184.333C457.287 180.815 477.785 167.149 479.364 166.62C480.944 166.092 489.904 166.094 490.958 166.62C492.011 167.147 478.133 351.381 476.024 354.433C473.915 357.485 465.353 356.226 463.375 355.251C459.92 353.551 441.835 342.934 441.835 339.32C441.835 334.826 456.115 184.333 456.115 184.333Z" fill="#DDE7EE"></path><path d="M443.495 319.529C442.481 330.818 441.835 338.361 441.835 339.315C441.835 342.934 459.92 353.551 463.375 355.247C465.353 356.222 473.926 357.477 476.024 354.428C476.405 353.878 477.166 347.45 478.155 337.281L443.495 319.529Z" fill="#6EA5C4"></path><path d="M489.611 269.265C489.611 269.265 519.091 348.682 523.107 362.408C525.8 371.615 521.657 374.432 515.025 375.816L482.047 375.719L480.866 376.71V379.298H515.112C520.88 378.713 531.132 373.828 527.754 362.984L490.787 260.534L489.611 269.265Z" fill="#8BB7D0"></path><path d="M480.866 376.71L486.74 371.088C486.74 371.088 511.863 373.374 515.025 367.744C518.187 362.115 513.622 351.911 510.107 340.115C506.592 328.319 488.674 279.117 488.674 279.117L490.75 267.641L502.258 299.058L524.981 363.812C524.981 363.812 528.113 374.246 515.699 376.707L480.866 376.71Z" fill="#5796B9"></path><path d="M490.202 166.447C493.067 170.671 494.648 206.39 493.947 221.349C493.246 236.307 489.026 293.668 486.919 308.799C484.811 323.931 479.539 350.855 475.147 352.966C470.755 355.076 480.945 239.823 480.945 239.823L490.202 166.447Z" fill="#5796B9"></path><path d="M490.863 167.212C489.95 166.756 483.062 166.704 480.236 167.045L463.977 355.472C466.603 356.389 474.167 357.275 476.126 354.441C478.23 351.396 491.921 167.737 490.863 167.212Z" fill="#8BB7D0"></path><path d="M481.926 216.611L477.815 268.228L480.261 268.424L484.371 216.806L481.926 216.611Z" fill="#5796B9"></path><path d="M476.504 284.273L478.951 284.47L479.794 273.889L477.348 273.694L476.504 284.273Z" fill="#5796B9"></path><path d="M255.002 188.595H192.177V205.771H255.002V188.595Z" fill="#DD5704"></path><path d="M274.47 219.666C295.749 206.299 303.004 221.486 320.801 267.469C338.581 313.419 358.629 361.054 337.689 368.253C316.703 375.434 307.526 320.645 295.11 294.865C282.746 269.097 257.308 230.458 274.47 219.666Z" fill="#F4BEC8"></path><path d="M167.953 219.434C146.795 206.141 139.58 221.251 121.874 266.984C104.181 312.685 84.2364 360.075 105.074 367.235C125.912 374.394 135.066 319.873 147.414 294.237C159.715 268.613 185.029 230.173 167.953 219.434Z" fill="#F5C5CE"></path><path d="M289.748 208.165C309.953 208.151 344.866 319.975 344.866 319.975L301.679 328.878L285.202 287.273C285.202 287.273 273.622 208.184 289.748 208.165Z" fill="#FB6F18"></path><path d="M251.826 197.294C251.826 197.294 241.015 190.658 240.495 157.918C240.338 149.085 202.858 150.093 203.083 158.909C203.87 194 195.327 197.294 195.327 197.294C195.327 197.294 192.965 268.969 222.952 267.911C254.499 266.767 251.826 197.294 251.826 197.294Z" fill="#F4BEC8"></path><path d="M186.98 134.021C189.972 160.876 209.881 182.883 223.116 182.883C236.689 182.883 256.473 161.309 259.257 134.021C261.913 108.182 243.081 86.9807 223.116 86.9807C203.15 86.9807 184.128 108.201 186.98 134.021Z" fill="#F5C5CE"></path><path d="M223.938 77.843C239.349 77.843 256.085 88.648 260.404 100.019C264.99 112.034 263.037 131.912 263.037 131.912L257.91 137.502C257.91 137.502 254.634 114.875 249.34 111.791C247.667 110.829 237.574 105.715 237.574 105.715C237.574 105.715 200.469 112.943 196.796 116.642C191.795 121.648 189.593 136.674 189.593 136.674L184.157 128.819C184.157 128.819 182.716 106.277 188.7 96.6815C192.992 89.7947 207.795 77.8257 223.938 77.843Z" fill="#8D3B26"></path><path d="M279.172 366.692H221.989L223.583 215C223.583 215 240.118 209.84 251.827 197.294L294.021 209.97C294.021 209.97 283.284 307.026 279.918 329.105C278.596 337.974 278.641 352.496 279.172 366.692Z" fill="#FB660A"></path><path d="M164.479 366.692C164.821 352.464 164.721 337.946 163.376 329.105C160.036 307.022 151.88 208.861 151.88 208.861L195.323 197.294C201.372 208.651 223.578 215 223.578 215L221.984 366.692H164.479Z" fill="#FB660A"></path><path d="M339.735 367.891C331.249 371.664 312.734 370.572 285.269 370.73C257.822 370.931 216.258 370.528 216.258 370.528L215.275 356.681C215.275 356.681 250.617 346.731 273.959 341.825C299.137 336.525 319.875 334.003 333.274 339.083C353.08 346.598 346.124 365.053 339.735 367.891Z" fill="#F4BEC8"></path><path d="M217.816 370.057C225.682 366.216 229.101 357.516 221.893 353.087C214.688 348.63 206.706 346.943 194.271 350.988C181.81 355.037 157.375 365.5 159.677 369.522C161.98 373.544 175.452 370.773 186.673 370.178C203.098 369.312 208.947 374.44 217.816 370.057Z" fill="#F4BEC8"></path><g style="mix-blend-mode:multiply"><g style="mix-blend-mode:multiply"><g style="mix-blend-mode:multiply"><path d="M193.765 366.273L276 351.501V366.273H193.765Z" fill="white"></path></g><g style="mix-blend-mode:multiply"><path d="M192.947 366.273L276 351.354V351.501L193.764 366.273H192.947Z" fill="white"></path></g><g style="mix-blend-mode:multiply"><path d="M192.132 366.273L276 351.207V351.354L192.948 366.273H192.132Z" fill="white"></path></g><g style="mix-blend-mode:multiply"><path d="M191.315 366.273L276 351.06V351.207L192.131 366.273H191.315Z" fill="white"></path></g><g style="mix-blend-mode:multiply"><path d="M190.5 366.273L276 350.914V351.06L191.316 366.273H190.5Z" fill="white"></path></g><g style="mix-blend-mode:multiply"><path d="M189.685 366.273L276 350.767V350.914L190.5 366.273H189.685Z" fill="white"></path></g><g style="mix-blend-mode:multiply"><path d="M188.867 366.273L276 350.62V350.767L189.684 366.273H188.867Z" fill="white"></path></g><g style="mix-blend-mode:multiply"><path d="M188.051 366.273L275.999 350.474V350.62L188.867 366.273H188.051Z" fill="white"></path></g><g style="mix-blend-mode:multiply"><path d="M187.235 366.273L276 350.327V350.474L188.051 366.273H187.235Z" fill="#FFFEFE"></path></g><g style="mix-blend-mode:multiply"><path d="M186.42 366.273L276 350.18V350.327L187.236 366.273H186.42Z" fill="#FFFEFE"></path></g><g style="mix-blend-mode:multiply"><path d="M185.604 366.273L275.999 350.034V350.18L186.419 366.273H185.604Z" fill="#FEFEFE"></path></g><g style="mix-blend-mode:multiply"><path d="M184.787 366.273L276 349.887V350.034L185.604 366.273H184.787Z" fill="#FEFEFE"></path></g><g style="mix-blend-mode:multiply"><path d="M183.972 366.273L276 349.74V349.887L184.787 366.273H183.972Z" fill="#FEFEFE"></path></g><g style="mix-blend-mode:multiply"><path d="M183.155 366.273L276 349.594V349.74L183.971 366.273H183.155Z" fill="#FEFDFD"></path></g><g style="mix-blend-mode:multiply"><path d="M182.34 366.273L276 349.448V349.594L183.156 366.273H182.34Z" fill="#FEFDFD"></path></g><g style="mix-blend-mode:multiply"><path d="M181.524 366.273L276 349.302V349.448L182.34 366.273H181.524Z" fill="#FEFDFD"></path></g><g style="mix-blend-mode:multiply"><path d="M180.708 366.273L276 349.155V349.302L181.524 366.273H180.708Z" fill="#FEFCFC"></path></g><g style="mix-blend-mode:multiply"><path d="M179.891 366.273L275.999 349.008V349.155L180.708 366.273H179.891Z" fill="#FDFCFC"></path></g><g style="mix-blend-mode:multiply"><path d="M179.075 366.273L276 348.862V349.008L179.891 366.273H179.075Z" fill="#FDFCFC"></path></g><g style="mix-blend-mode:multiply"><path d="M178.26 366.273L276 348.715V348.862L179.075 366.273H178.26Z" fill="#FDFBFB"></path></g><g style="mix-blend-mode:multiply"><path d="M177.444 366.273L276 348.568V348.715L178.26 366.273H177.444Z" fill="#FDFBFB"></path></g><g style="mix-blend-mode:multiply"><path d="M176.627 366.273L276 348.422V348.568L177.444 366.273H176.627Z" fill="#FDFAFA"></path></g><g style="mix-blend-mode:multiply"><path d="M175.811 366.273L275.999 348.275V348.422L176.626 366.273H175.811Z" fill="#FCFAFA"></path></g><g style="mix-blend-mode:multiply"><path d="M174.995 366.273L276 348.128V348.275L175.811 366.273H174.995Z" fill="#FCF9FA"></path></g><g style="mix-blend-mode:multiply"><path d="M174.18 366.273L276 347.981V348.128L174.995 366.273H174.18Z" fill="#FCF9F9"></path></g><g style="mix-blend-mode:multiply"><path d="M173.363 366.273L275.999 347.835V347.981L174.179 366.273H173.363Z" fill="#FBF8F9"></path></g><g style="mix-blend-mode:multiply"><path d="M172.548 366.273L276 347.688V347.835L173.364 366.273H172.548Z" fill="#FBF8F8"></path></g><g style="mix-blend-mode:multiply"><path d="M171.73 366.273L276 347.543V347.688L172.548 366.273H171.73Z" fill="#FBF7F8"></path></g><g style="mix-blend-mode:multiply"><path d="M170.915 366.273L276 347.396V347.543L171.731 366.273H170.915Z" fill="#FBF7F7"></path></g><g style="mix-blend-mode:multiply"><path d="M170.1 366.273L275.99 347.251L276 347.31V347.396L170.915 366.273H170.1Z" fill="#FAF6F6"></path></g><g style="mix-blend-mode:multiply"><path d="M169.284 366.273L275.97 347.108L275.99 347.251L170.1 366.273H169.284Z" fill="#FAF6F6"></path></g><g style="mix-blend-mode:multiply"><path d="M168.468 366.273L275.948 346.966L275.97 347.108L169.284 366.273H168.468Z" fill="#FAF5F5"></path></g><g style="mix-blend-mode:multiply"><path d="M167.652 366.273L275.926 346.822L275.948 346.966L168.468 366.273H167.652Z" fill="#F9F4F5"></path></g><g style="mix-blend-mode:multiply"><path d="M166.835 366.273L275.905 346.68L275.927 346.822L167.652 366.273H166.835Z" fill="#F9F4F4"></path></g><g style="mix-blend-mode:multiply"><path d="M166.02 366.273L275.884 346.537L275.905 346.68L166.835 366.273H166.02Z" fill="#F9F3F3"></path></g><g style="mix-blend-mode:multiply"><path d="M165.204 366.273L275.863 346.395L275.884 346.537L166.019 366.273H165.204Z" fill="#F8F2F2"></path></g><g style="mix-blend-mode:multiply"><path d="M164.388 366.273L275.842 346.251L275.863 346.395L165.203 366.273H164.388Z" fill="#F8F2F2"></path></g><g style="mix-blend-mode:multiply"><path d="M163.953 366.203L275.82 346.109L275.842 346.251L164.388 366.273H163.953V366.203Z" fill="#F7F1F1"></path></g><g style="mix-blend-mode:multiply"><path d="M163.953 366.057L275.798 345.966L275.82 346.109L163.953 366.203V366.057Z" fill="#F7F0F0"></path></g><g style="mix-blend-mode:multiply"><path d="M163.953 365.91L275.777 345.824L275.798 345.966L163.953 366.056V365.91Z" fill="#F7EFF0"></path></g><g style="mix-blend-mode:multiply"><path d="M163.953 365.765L275.755 345.68L275.777 345.824L163.953 365.91V365.765Z" fill="#F6EEEF"></path></g><g style="mix-blend-mode:multiply"><path d="M163.953 365.618L275.735 345.538L275.755 345.68L163.953 365.765V365.618Z" fill="#F6EEEE"></path></g><g style="mix-blend-mode:multiply"><path d="M163.953 365.472L275.713 345.395L275.735 345.538L163.953 365.618V365.472Z" fill="#F5EDED"></path></g><g style="mix-blend-mode:multiply"><path d="M163.953 365.325L275.692 345.253L275.713 345.395L163.953 365.471V365.325Z" fill="#F5ECEC"></path></g><g style="mix-blend-mode:multiply"><path d="M163.953 365.178L275.67 345.109L275.692 345.253L163.953 365.325V365.178Z" fill="#F4EBEB"></path></g><g style="mix-blend-mode:multiply"><path d="M163.953 365.031L275.649 344.967L275.67 345.109L163.953 365.178V365.031Z" fill="#F4EAEA"></path></g><g style="mix-blend-mode:multiply"><path d="M163.953 364.885L275.627 344.824L275.649 344.967L163.953 365.031V364.885Z" fill="#F3E9EA"></path></g><g style="mix-blend-mode:multiply"><path d="M163.953 364.738L275.607 344.682L275.627 344.824L163.953 364.885V364.738Z" fill="#F3E8E9"></path></g><g style="mix-blend-mode:multiply"><path d="M163.953 364.591L275.585 344.538L275.607 344.682L163.953 364.738V364.591Z" fill="#F2E7E8"></path></g><g style="mix-blend-mode:multiply"><path d="M163.953 364.444L275.564 344.396L275.585 344.538L163.953 364.591V364.444Z" fill="#F2E6E7"></path></g><g style="mix-blend-mode:multiply"><path d="M163.953 364.298L275.542 344.252L275.564 344.396L163.953 364.444V364.298Z" fill="#F1E5E6"></path></g><g style="mix-blend-mode:multiply"><path d="M163.953 364.151L275.521 344.111L275.542 344.253L163.953 364.298V364.151Z" fill="#F1E4E5"></path></g><g style="mix-blend-mode:multiply"><path d="M163.953 364.004L275.499 343.967L275.521 344.111L163.953 364.151V364.004Z" fill="#F0E3E4"></path></g><g style="mix-blend-mode:multiply"><path d="M163.953 363.859L275.479 343.825L275.499 343.967L163.953 364.004V363.859Z" fill="#F0E2E3"></path></g><g style="mix-blend-mode:multiply"><path d="M163.953 363.711L275.457 343.682L275.479 343.825L163.953 363.859V363.711Z" fill="#EFE1E2"></path></g><g style="mix-blend-mode:multiply"><path d="M163.953 363.566L275.436 343.54L275.457 343.682L163.953 363.711V363.566Z" fill="#EEE0E1"></path></g><g style="mix-blend-mode:multiply"><path d="M163.953 363.419L275.414 343.396L275.436 343.54L163.953 363.566V363.419Z" fill="#EEDFE0"></path></g><g style="mix-blend-mode:multiply"><path d="M163.953 363.272L275.393 343.254L275.414 343.396L163.953 363.419V363.272Z" fill="#EDDEDE"></path></g><g style="mix-blend-mode:multiply"><path d="M163.953 363.126L275.373 343.11L275.393 343.254L163.953 363.272V363.126Z" fill="#EDDDDD"></path></g><g style="mix-blend-mode:multiply"><path d="M163.953 362.979L275.351 342.969L275.372 343.111L163.953 363.126V362.979Z" fill="#ECDBDC"></path></g><g style="mix-blend-mode:multiply"><path d="M163.953 362.832L275.329 342.824L275.351 342.968L163.953 362.978V362.832Z" fill="#EBDADB"></path></g><g style="mix-blend-mode:multiply"><path d="M163.953 362.685L275.308 342.683L275.329 342.825L163.953 362.832V362.685Z" fill="#EBD9DA"></path></g><g style="mix-blend-mode:multiply"><path d="M163.953 362.539L275.286 342.539L275.308 342.683L163.953 362.685V362.539Z" fill="#EAD8D9"></path></g><g style="mix-blend-mode:multiply"><path d="M163.953 362.392L275.204 342.409H275.267L275.286 342.54L163.953 362.539V362.392Z" fill="#E9D7D7"></path></g><g style="mix-blend-mode:multiply"><path d="M163.953 362.246L274.387 342.409H275.204L163.953 362.392V362.246Z" fill="#E9D5D6"></path></g><g style="mix-blend-mode:multiply"><path d="M163.953 362.099L273.571 342.409H274.387L163.953 362.246V362.099Z" fill="#E8D4D5"></path></g><g style="mix-blend-mode:multiply"><path d="M163.953 361.952L272.756 342.409H273.571L163.953 362.099V361.952Z" fill="#E7D3D4"></path></g><g style="mix-blend-mode:multiply"><path d="M163.953 361.805L271.94 342.409H272.756L163.953 361.952V361.805Z" fill="#E7D1D2"></path></g><g style="mix-blend-mode:multiply"><path d="M163.953 361.66L271.124 342.409H271.94L163.953 361.805V361.66Z" fill="#E6D0D1"></path></g><g style="mix-blend-mode:multiply"><path d="M163.953 361.514L270.307 342.409H271.124L163.953 361.66V361.514Z" fill="#E5CFD0"></path></g><g style="mix-blend-mode:multiply"><path d="M163.953 361.367L269.491 342.409H270.307L163.953 361.514V361.367Z" fill="#E4CDCE"></path></g><g style="mix-blend-mode:multiply"><path d="M163.953 361.22L268.675 342.409H269.491L163.953 361.367V361.22Z" fill="#E4CCCD"></path></g><g style="mix-blend-mode:multiply"><path d="M163.953 361.074L267.86 342.409H268.675L163.953 361.22V361.074Z" fill="#E3CBCC"></path></g><g style="mix-blend-mode:multiply"><path d="M163.953 360.927L267.044 342.409H267.86L163.953 361.074V360.927Z" fill="#E2C9CA"></path></g><g style="mix-blend-mode:multiply"><path d="M163.953 360.78L266.227 342.409H267.044L163.953 360.927V360.78Z" fill="#E1C8C9"></path></g><g style="mix-blend-mode:multiply"><path d="M163.953 360.633L265.411 342.409H266.227L163.953 360.78V360.633Z" fill="#E1C6C7"></path></g><g style="mix-blend-mode:multiply"><path d="M163.953 360.487L264.595 342.409H265.411L163.953 360.633V360.487Z" fill="#E0C5C6"></path></g><g style="mix-blend-mode:multiply"><path d="M163.953 360.34L263.78 342.409H264.595L163.953 360.487V360.34Z" fill="#DFC3C5"></path></g><g style="mix-blend-mode:multiply"><path d="M163.953 360.193L262.964 342.409H263.78L163.953 360.34V360.193Z" fill="#DEC2C3"></path></g><g style="mix-blend-mode:multiply"><path d="M163.953 360.047L262.148 342.409H262.964L163.953 360.193V360.047Z" fill="#DDC0C2"></path></g><g style="mix-blend-mode:multiply"><path d="M163.953 359.9L261.331 342.409H262.148L163.953 360.047V359.9Z" fill="#DDBFC0"></path></g><g style="mix-blend-mode:multiply"><path d="M163.953 359.753L260.515 342.409H261.331L163.953 359.9V359.753Z" fill="#DCBDBE"></path></g><g style="mix-blend-mode:multiply"><path d="M163.953 359.607L259.699 342.409H260.515L163.953 359.753V359.607Z" fill="#DBBCBD"></path></g><g style="mix-blend-mode:multiply"><path d="M163.953 359.461L258.884 342.409H259.699L163.953 359.607V359.461Z" fill="#DABABB"></path></g><g style="mix-blend-mode:multiply"><path d="M163.953 359.315L258.068 342.409H258.884L163.953 359.461V359.315Z" fill="#D9B8BA"></path></g><g style="mix-blend-mode:multiply"><path d="M163.953 359.168L257.251 342.409H258.068L163.953 359.315V359.168Z" fill="#D8B7B8"></path></g><g style="mix-blend-mode:multiply"><path d="M163.953 359.021L256.435 342.409H257.251L163.953 359.168V359.021Z" fill="#D7B5B7"></path></g><g style="mix-blend-mode:multiply"><path d="M163.953 358.875L255.619 342.409H256.435L163.953 359.021V358.875Z" fill="#D7B3B5"></path></g><g style="mix-blend-mode:multiply"><path d="M163.953 358.728L254.804 342.409H255.619L163.953 358.875V358.728Z" fill="#D6B2B3"></path></g><g style="mix-blend-mode:multiply"><path d="M163.953 358.581L253.988 342.409H254.804L163.953 358.728V358.581Z" fill="#D5B0B2"></path></g><g style="mix-blend-mode:multiply"><path d="M163.953 358.435L253.171 342.409H253.988L163.953 358.581V358.435Z" fill="#D4AEB0"></path></g><g style="mix-blend-mode:multiply"><path d="M163.953 358.288L252.355 342.409H253.171L163.953 358.435V358.288Z" fill="#D3ACAE"></path></g><g style="mix-blend-mode:multiply"><path d="M163.953 358.141L251.539 342.409H252.355L163.953 358.288V358.141Z" fill="#D2ABAC"></path></g><g style="mix-blend-mode:multiply"><path d="M163.953 357.995L250.723 342.409H251.539L163.953 358.141V357.995Z" fill="#D1A9AB"></path></g><g style="mix-blend-mode:multiply"><path d="M163.953 357.848L249.908 342.409H250.723L163.953 357.995V357.848Z" fill="#D0A7A9"></path></g><g style="mix-blend-mode:multiply"><path d="M163.953 357.701L249.092 342.409H249.908L163.953 357.848V357.701Z" fill="#CFA5A7"></path></g><g style="mix-blend-mode:multiply"><path d="M163.953 357.556L248.275 342.409H249.092L163.953 357.701V357.556Z" fill="#CEA3A5"></path></g><g style="mix-blend-mode:multiply"><path d="M163.953 357.409L247.459 342.409H248.275L163.953 357.556V357.409Z" fill="#CDA2A3"></path></g><g style="mix-blend-mode:multiply"><path d="M163.953 357.263L246.643 342.409H247.459L163.953 357.409V357.263Z" fill="#CCA0A2"></path></g><g style="mix-blend-mode:multiply"><path d="M163.953 357.116L245.828 342.409H246.643L163.953 357.263V357.116Z" fill="#CB9EA0"></path></g><g style="mix-blend-mode:multiply"><path d="M163.953 356.969L245.012 342.409H245.828L163.953 357.116V356.969Z" fill="#CA9C9E"></path></g><g style="mix-blend-mode:multiply"><path d="M163.953 356.823L244.195 342.409H245.012L163.953 356.969V356.823Z" fill="#C99A9C"></path></g><g style="mix-blend-mode:multiply"><path d="M244.195 342.409L163.953 356.823V342.409H244.195Z" fill="#C99A9C"></path></g></g></g><path d="M105.781 371.254C114.679 373.741 132.756 370.014 159.797 366.25C186.838 362.487 227.704 356.144 227.704 356.144L226.709 342.369C226.709 342.369 190.488 337.637 166.805 336.168C141.257 334.561 120.506 335.05 108.017 341.981C89.6189 352.207 99.0898 369.366 105.781 371.254Z" fill="#F5C5CE"></path><path d="M228.013 359.812C219.478 358.102 213.997 350.59 219.824 344.511C225.634 338.393 232.895 334.741 245.87 335.495C258.876 336.227 285.424 342.199 284.224 346.649C283.024 351.098 268.397 349.164 257.452 351.436C241.438 354.759 237.66 361.779 228.013 359.812Z" fill="#F5C5CE"></path><path d="M226.01 209.84L223.583 215.001L234.328 211.351L228.635 208.858L226.01 209.84Z" fill="#DD5704"></path><path d="M153.924 207.564C133.72 207.553 98.8188 319.377 98.8188 319.377L142.009 328.272L158.474 286.672C158.474 286.672 170.058 207.578 153.924 207.564Z" fill="#FB6F18"></path><path d="M264.799 201.196L255 188.595L226.01 209.84L234.328 222.947L264.799 201.196Z" fill="#FC8236"></path><path d="M221.161 209.84L223.583 215.001L212.843 211.351L218.726 208.858L221.161 209.84Z" fill="#DD5704"></path><path d="M182.364 201.196L192.155 188.595L221.161 209.84L212.832 222.947L182.364 201.196Z" fill="#FC8236"></path><path d="M223.206 179.234H244.016C256.658 179.234 266.937 169.51 266.937 157.554V138.002H262.685V157.554C262.685 167.157 254.302 174.979 244.011 174.979H223.206V179.234Z" fill="#666666"></path><path fill-rule="evenodd" clip-rule="evenodd" d="M187.261 110.14C186.671 121.303 187.638 132.136 187.638 132.136L181.502 131.811C181.502 131.811 181.345 123.355 181.345 108.725C181.345 101.854 183.234 90.7963 187.934 84.0499C200.083 66.6216 223.354 68.7494 223.354 68.7494V75.1204C214.822 75.2025 198.603 77.6821 192.381 89.2741C189.781 94.1245 187.863 98.7825 187.261 110.14ZM259.45 110.14C260.03 121.303 259.085 132.136 259.085 132.136L265.217 131.811C265.217 131.811 265.367 123.355 265.367 108.725C265.367 101.854 263.475 90.7963 258.778 84.0499C246.63 66.6216 223.356 68.7494 223.356 68.7494V75.1204C231.89 75.2025 248.108 77.6821 254.332 89.2741C256.931 94.1245 258.853 98.7825 259.45 110.14Z" fill="#666666"></path><path d="M270.719 145.078C270.719 146.432 271.591 147.534 272.668 147.534C273.739 147.534 274.607 146.43 274.607 145.078V122.394C274.607 121.033 273.739 119.924 272.668 119.924C271.591 119.924 270.719 121.028 270.719 122.394V145.078Z" fill="#666666"></path><path d="M171.805 143.482C173.065 144.835 173.972 145.944 175.071 145.944C176.184 145.944 177.088 144.84 177.088 143.482V120.793C177.088 119.437 176.184 118.339 175.071 118.339C173.968 118.339 173.068 119.443 171.805 120.793V143.482Z" fill="#666666"></path><path d="M256.142 148.321C256.142 153.421 259.842 157.554 264.406 157.554C268.973 157.554 272.674 153.421 272.674 148.321V119.14C272.674 114.048 268.981 109.911 264.406 109.911C259.839 109.911 256.142 114.048 256.142 119.14V148.321Z" fill="black"></path><path d="M190.885 148.321C190.885 153.421 187.057 157.554 182.344 157.554C177.637 157.554 173.819 153.421 173.819 148.321V119.14C173.819 114.048 177.637 109.911 182.344 109.911C187.057 109.911 190.885 114.048 190.885 119.14V148.321Z" fill="black"></path><path d="M216.219 177.107C216.219 179.376 217.805 181.208 219.762 181.208H226.646C228.606 181.208 230.2 179.383 230.2 177.107C230.2 174.837 228.606 173.005 226.646 173.005H219.764C217.806 173.005 216.22 174.831 216.22 177.107H216.219Z" fill="black"></path><path d="M490.134 72.51C490.134 112.559 457.721 145.023 417.74 145.023C377.759 145.023 345.347 112.559 345.347 72.51C345.347 32.4606 377.759 0 417.74 0C457.721 0 490.134 32.4638 490.134 72.51Z" fill="#DDE7EE"></path><mask id="mask0_64_3595" style="mask-type:alpha" maskUnits="userSpaceOnUse" x="345" y="0" width="145" height="146"><path d="M489.787 72.6091C489.787 112.658 457.375 145.122 417.394 145.122C377.413 145.122 345 112.658 345 72.6091C345 32.5597 377.413 0.0991211 417.394 0.0991211C457.375 0.0991211 489.787 32.5629 489.787 72.6091Z" fill="#DDE7EE"></path></mask><g mask="url(#mask0_64_3595)"><path d="M451.379 139.502C451.379 139.502 446.296 133.803 445.71 129.753C444.326 120.197 446.433 91.1356 446.433 91.1356C446.433 91.1356 432.981 85.241 428.689 81.9301L409.986 81.3134C409.986 81.3134 387.664 88.6702 383.138 91.4952C379.386 93.8392 370.926 128.019 369.011 134.816C369.011 134.816 385.453 142.135 389.282 146.84H442.841L443.386 139.001C445.203 139.531 448.088 140.236 451.379 139.502Z" fill="#6674F2"></path><path d="M428.686 86.099L419.146 95.7036L414.422 90.9005L409.597 85.9886C411.984 77.7958 411.137 72.409 411.137 72.409L427.853 71.9453C427.756 73.4564 427.704 74.8272 427.696 76.0607C427.586 83.3891 428.686 86.099 428.686 86.099Z" fill="#F5C5CE"></path><g style="mix-blend-mode:multiply" opacity="0.4"><g style="mix-blend-mode:multiply" opacity="0.4"><path d="M427.859 71.9453C427.762 73.4564 427.71 74.8272 427.702 76.0607C425.05 77.6601 417.791 82.6446 414.436 90.9005L409.61 85.9886C411.998 77.7958 411.151 72.409 411.151 72.409L427.859 71.9453Z" fill="#F5C5CE"></path></g></g><path d="M436.036 85.4254L430.334 105.321C430.334 105.321 425.677 97.8188 419.139 95.6799C419.139 95.6799 426.778 86.9381 427.906 81.9047C428.134 80.8795 436.036 85.4254 436.036 85.4254Z" fill="#6F90F6"></path><path d="M400.982 84.4901L407.611 105.057C407.611 105.057 413.573 96.8677 419.228 95.6957C419.228 95.6957 410.63 87.913 410.63 81.2881C410.63 80.3842 400.982 84.4901 400.982 84.4901Z" fill="#527AF4"></path><path d="M416.299 92.6512C413.806 89.7757 410.63 85.3197 410.63 81.2942C410.63 80.3904 400.805 84.2155 400.805 84.2155L407.611 105.064C408.842 99.1279 414.035 94.5189 416.299 92.6512Z" fill="#6F90F6"></path><path d="M400.439 48.7028C400.439 48.7028 398.102 47.2279 395.757 48.6381C392.45 50.6256 393.097 56.5786 395.757 59.2427C397.08 60.5693 401.051 61.8943 403.861 59.32C406.095 57.2742 400.439 48.7028 400.439 48.7028Z" fill="#F3BEC9"></path><path d="M443.91 48.3621C441.147 71.6472 429.339 75.5875 423.608 78.31C422.106 79.0198 418.165 78.31 418.165 78.31C399.425 74.6821 400.627 48.0246 400.627 48.0246C401.422 38.1282 412.183 24.7631 425.266 25.1527C427.438 25.2104 429.578 25.6927 431.565 26.5724C446.52 33.1989 443.91 48.3621 443.91 48.3621Z" fill="#F5C5CE"></path><path d="M433.077 20.6227C433.077 20.6227 428.775 32.1722 430.061 34.9136C431.622 38.2356 439.074 52.0391 443.605 50.5201C443.605 50.5201 450.175 28.1436 433.077 20.6227Z" fill="#555555"></path><path d="M444.363 46.8985C445.411 40.2467 445.894 26.2602 433.077 20.6227C433.077 20.6227 431.305 29.3786 430.636 33.7842C432.954 39.3366 439.653 46.5956 444.363 46.8985Z" fill="#666666"></path><path d="M433.123 20.6399C433.123 20.6399 432.776 33.2351 430.23 34.6106C427.683 35.9861 403.718 51.5184 397.817 48.3337C397.817 48.3337 394.211 24.7079 416.107 17.5466C430.113 12.9691 433.123 20.6399 433.123 20.6399Z" fill="#666666"></path><path d="M447.917 46.602L445.726 45.8827C445.538 45.8208 445.335 45.9236 445.273 46.1124L437.208 70.7555C437.146 70.9443 437.249 71.1474 437.437 71.2093L439.628 71.9286C439.816 71.9905 440.019 71.8877 440.081 71.6989L448.146 47.0558C448.208 46.867 448.105 46.6639 447.917 46.602Z" fill="#2D2D2D"></path><path d="M457.514 133.068C456.829 136.286 455.401 139.127 454.653 139.996C452.713 142.252 447.354 138.577 443.836 124.606C440.505 111.381 443.584 87.7411 442.927 74.5354C442.769 71.4059 441.848 70.2008 441.593 67.4183C441.278 64.0301 444.494 61.8818 443.606 57.7175C442.743 53.681 442.333 50.4616 444.952 51.3308C450.993 53.3277 454.047 61.7414 453.007 64.5996C451.867 67.7322 449.165 70.9926 449.453 76.1569C449.741 81.3212 456.409 104.717 458.162 114.724C459.229 120.852 458.609 127.959 457.514 133.068Z" fill="#F5C5CE"></path></g><path d="M157.532 169.07C163.408 161.439 166.588 152.07 166.571 142.433C166.571 118.28 147.023 98.699 122.91 98.699C98.7967 98.699 79.2471 118.28 79.2471 142.433C79.2471 166.586 98.7967 186.164 122.913 186.164C129.942 186.172 136.868 184.473 143.097 181.213C151.472 188.713 166.575 188.35 166.575 188.35C160.411 184.337 158.275 175.032 157.532 169.07Z" fill="#EFEFEF"></path><path d="M157.532 169.07C163.408 161.439 166.588 152.07 166.571 142.433C166.571 118.28 147.023 98.699 122.91 98.699C98.7967 98.699 79.2471 118.28 79.2471 142.433C79.2471 166.586 98.7967 186.164 122.913 186.164C129.942 186.172 136.868 184.473 143.097 181.213C151.472 188.713 166.575 188.35 166.575 188.35C160.411 184.337 158.275 175.032 157.532 169.07Z" fill="#EFEFEF"></path><path d="M156.871 165.756C162.747 158.125 165.927 148.756 165.91 139.119C165.91 114.966 146.362 95.385 122.247 95.385C98.1324 95.385 78.5859 114.966 78.5859 139.119C78.5859 163.272 98.1355 182.852 122.247 182.852C129.277 182.861 136.204 181.161 142.433 177.899C150.808 185.401 165.91 185.036 165.91 185.036C159.748 181.023 157.613 171.719 156.871 165.756Z" fill="white"></path><path d="M156.871 165.756C162.747 158.125 165.927 148.756 165.91 139.119C165.91 114.966 146.362 95.385 122.247 95.385C98.1324 95.385 78.5859 114.966 78.5859 139.119C78.5859 163.272 98.1355 182.852 122.247 182.852C129.277 182.861 136.204 181.161 142.433 177.899C150.808 185.401 165.91 185.036 165.91 185.036C159.748 181.023 157.613 171.719 156.871 165.756Z" fill="#9ED04E"></path><path d="M150.608 122.161H94.1641V123.508H150.608V122.161Z" fill="white"></path><path d="M150.331 133.193H94.1641V134.54H150.331V133.193Z" fill="white"></path><path d="M112.081 144.225H94.1641V145.57H112.081V144.225Z" fill="white"></path><path d="M150.331 155.255H94.1641V156.603H150.331V155.255Z" fill="white"></path><path d="M413.328 145.088C412.673 147.612 410.711 155.831 395.533 155.929C395.605 156.798 395.651 157.691 395.651 158.611V186.874C395.651 195.21 392.525 201.969 388.671 201.969H284.128C280.273 201.969 277.148 195.21 277.148 186.874V158.606C277.148 150.268 280.273 143.509 284.128 143.509H388.676C390.155 143.509 391.523 144.512 392.652 146.209C403.515 152.039 413.328 145.088 413.328 145.088Z" fill="#05A9CC"></path><path d="M375.431 177.635H302.231V179.683H375.431V177.635Z" fill="white"></path><path d="M354.176 161.141H302.231V163.188H354.176V161.141Z" fill="white"></path><path d="M478.643 116.476C479.061 118.014 480.317 123.013 490.021 123.071C489.975 123.601 489.945 124.144 489.945 124.7V141.894C489.945 146.966 491.943 151.079 494.408 151.079H561.268C563.732 151.079 565.731 146.966 565.731 141.894V124.7C565.731 119.628 563.732 115.515 561.268 115.515H494.41C493.465 115.515 492.589 116.124 491.868 117.157C484.918 120.703 478.643 116.476 478.643 116.476Z" fill="#05A9CC"></path><path d="M549.692 136.278H502.879V137.524H549.692V136.278Z" fill="white"></path><path d="M549.69 126.243H516.471V127.489H549.69V126.243Z" fill="white"></path><path d="M384.902 67.486C381.28 69.3031 380.064 69.9088 368.132 72.3995C368.187 73.0951 368.222 73.8191 368.222 74.5431V97.1878C368.222 103.868 365.807 109.283 362.83 109.283H282.042C279.064 109.283 276.648 103.868 276.648 97.1878V74.5431C276.648 67.863 279.064 62.4479 282.042 62.4479H362.83C363.971 62.4479 365.034 63.2523 365.902 64.612C374.622 67.486 384.902 67.486 384.902 67.486Z" fill="#05A9CC"></path><path d="M352.594 89.79H296.03V91.4305H352.594V89.79Z" fill="white"></path><path d="M336.17 76.575H296.03V78.2154H336.17V76.575Z" fill="white"></path><path d="M543.257 378.78C550.386 366.068 546.745 349.717 549.227 335.086C551.134 323.841 556.911 313.417 565.174 306.304C570.361 301.84 577.646 298.651 583.506 301.998C584.777 302.722 586.285 303.743 587.507 302.927C588.238 302.441 588.531 301.462 588.703 300.552C590.188 292.651 586.682 284.021 589.547 276.576C591.09 272.569 594.281 269.577 597.66 267.244C604.177 262.744 611.802 260.146 619.523 259.813C621.571 259.723 623.708 259.813 625.541 260.803C628.848 262.603 630.369 267.074 629.925 271.056C629.481 275.039 627.451 278.61 625.2 281.8C617.714 292.401 606.745 301.552 605.3 314.808C605.117 316.481 605.115 318.256 605.826 319.754C606.512 321.202 607.789 322.236 608.503 323.666C610.808 328.256 606.355 333.462 602.004 335.719C598.057 337.771 593.758 339.06 589.334 339.516C586.315 339.822 582.903 339.901 580.849 342.317C577.059 346.776 581.413 353.908 580.619 359.908C580.123 363.654 577.615 366.678 575.096 369.301C570.457 374.142 565.347 378.507 559.843 382.332C555.415 385.404 550.728 388.121 546.804 391.911C542.879 395.701 539.709 400.844 539.449 406.522" fill="#E2EAF5"></path><path d="M552.652 366.556H552.625C552.59 366.549 552.559 366.529 552.538 366.5C552.517 366.47 552.508 366.434 552.513 366.399C553.688 360.178 556.365 354.442 558.954 348.89C563 340.214 567.182 331.257 573.423 323.994C575.867 321.155 578.631 318.578 581.297 316.089C583.768 313.789 586.322 311.41 588.612 308.833C592.044 304.956 594.924 300.623 597.173 295.957C597.445 295.394 597.715 294.815 597.974 294.253C598.896 292.266 599.85 290.21 601.155 288.445C602.492 286.642 604.181 285.166 605.814 283.738C606.612 283.041 607.437 282.319 608.211 281.57C611.423 278.422 613.952 274.644 615.639 270.471C615.646 270.454 615.656 270.439 615.669 270.425C615.682 270.412 615.698 270.402 615.715 270.395C615.732 270.388 615.75 270.384 615.769 270.384C615.787 270.384 615.805 270.388 615.822 270.395C615.839 270.402 615.855 270.412 615.868 270.425C615.881 270.438 615.892 270.454 615.899 270.471C615.906 270.488 615.909 270.506 615.909 270.525C615.909 270.543 615.906 270.561 615.899 270.578C614.198 274.789 611.647 278.601 608.406 281.778C607.628 282.532 606.8 283.256 606 283.956C604.378 285.376 602.692 286.839 601.382 288.619C600.092 290.354 599.144 292.404 598.233 294.376C597.971 294.939 597.702 295.52 597.43 296.084C595.17 300.772 592.275 305.124 588.826 309.019C586.526 311.61 583.966 313.994 581.492 316.298C578.825 318.783 576.067 321.346 573.634 324.185C567.417 331.419 563.241 340.364 559.204 349.018C556.623 354.548 553.954 360.267 552.785 366.455C552.777 366.485 552.759 366.51 552.735 366.528C552.711 366.546 552.682 366.556 552.652 366.556Z" fill="white"></path><path d="M92.8978 363.135C88.3215 357.472 84.0978 351.708 79.6522 346.158C76.7703 342.557 73.797 339.041 70.564 335.706C68.9592 334.04 67.3041 332.43 65.5577 330.862C55.2301 321.625 43.7041 313.956 31.3844 308.249C23.9529 304.804 16.1088 301.965 9.79389 296.471C3.47893 290.977 -1.05493 281.979 1.04428 273.518C2.57027 267.417 7.35609 262.671 12.8443 260.496C18.3325 258.32 24.397 258.505 30.0947 259.833C46.0002 263.548 59.2915 275.933 68.3214 290.585C68.4789 290.839 68.6474 291.108 68.8033 291.374C75.427 302.321 80.0553 314.495 84.0789 326.896C85.3687 330.879 86.5986 334.891 87.8065 338.884C89.6396 344.86 95.2459 357.218 92.8978 363.135Z" fill="#B6C5D8"></path><path d="M89.1433 352.157C86.9706 342.941 83.5756 334.059 79.0488 325.747C74.6202 317.573 69.0796 310.056 62.5858 303.41C49.6992 290.284 37.5259 277.888 20.1196 274.292L20.1511 274.134C37.6047 277.74 49.7936 290.154 62.6992 303.296C69.2035 309.953 74.7526 317.483 79.1873 325.67C83.7208 333.994 87.1206 342.889 89.296 352.117L89.1433 352.157Z" fill="white"></path></svg>