<svg xmlns="http://www.w3.org/2000/svg" width="630" height="570" viewBox="0 0 630 570" fill="none"><path d="M341.555 440.761C242.157 440.761 161.58 463.737 161.58 492.08V492.216C161.642 499.1 156.154 504.741 149.272 504.632C146.132 504.583 142.963 504.558 139.765 504.557C62.5746 504.557 0 519.208 0 537.278C0 555.349 62.5746 570 139.765 570C206.308 570 261.98 559.113 276.075 544.533C277.331 543.231 278.864 542.228 280.559 541.598C282.255 540.969 284.07 540.728 285.872 540.894C303.406 542.519 322.119 543.398 341.555 543.398C440.95 543.398 521.528 520.422 521.528 492.08C521.528 463.737 440.95 440.761 341.555 440.761Z" fill="#EDF2F5"></path><path d="M429.617 434.204V455.549L414.405 456.168L412.303 432.865L429.617 434.204Z" fill="#F5C5CE"></path><path d="M439.409 432.865L437.656 451.94L450.417 450.805L451.364 429.584L439.409 432.865Z" fill="#F5C5CE"></path><path d="M121.731 427.601H600.459C600.459 427.601 670.766 208.873 594.451 163.034C526.23 122.063 551.21 0.666325 455.23 14.6956C359.25 28.7248 353.378 69.7899 256.841 61.2123C113.323 48.473 25.1202 161.299 108.916 317.17C130.086 356.554 131.751 396.486 121.731 427.601Z" fill="#EDF2F5"></path><g style="mix-blend-mode:multiply"><g style="mix-blend-mode:multiply"><path d="M602.191 18.9235V302.75H221.889V21.0267C221.89 17.1901 223.415 13.5111 226.127 10.7989C228.839 8.0866 232.517 6.56316 236.352 6.5636H589.823C593.101 6.56316 596.245 7.8648 598.564 10.1825C600.883 12.5001 602.188 15.6441 602.191 18.9235Z" fill="#C9D8E4"></path></g></g><path d="M597.515 12.3715V296.198H217.213V14.4812C217.213 12.5812 217.587 10.6999 218.314 8.94453C219.041 7.18919 220.106 5.59426 221.449 4.25078C222.792 2.9073 224.386 1.84159 226.14 1.1145C227.895 0.387418 229.775 0.013184 231.674 0.013184H585.146C588.424 0.0123077 591.568 1.31353 593.887 3.63087C596.207 5.94821 597.511 9.09206 597.515 12.3715Z" fill="#F1F5F9"></path><path d="M254.829 0.00830078H229.571C226.291 0.00830078 223.146 1.31172 220.827 3.63182C218.508 5.95192 217.205 9.09865 217.205 12.3798V296.198H254.829V0.00830078Z" fill="white"></path><path d="M597.515 14.5148V38.3456H217.213V14.5148C217.213 11.2337 218.516 8.08699 220.835 5.76689C223.154 3.44679 226.299 2.14337 229.579 2.14337H585.146C586.77 2.14294 588.379 2.46261 589.879 3.08414C591.38 3.70567 592.743 4.61688 593.892 5.76572C595.04 6.91456 595.952 8.27853 596.573 9.77973C597.195 11.2809 597.515 12.8899 597.515 14.5148Z" fill="#C7D5E0"></path><path d="M597.515 12.3715V36.2022H217.213V12.3715C217.213 9.09035 218.516 5.94362 220.835 3.62352C223.154 1.30342 226.299 4.39926e-07 229.579 4.39926e-07H585.146C586.77 -0.000432873 588.379 0.319237 589.879 0.940768C591.38 1.5623 592.743 2.47351 593.892 3.62235C595.04 4.77119 595.952 6.13516 596.573 7.63635C597.195 9.13755 597.515 10.7465 597.515 12.3715Z" fill="white"></path><path d="M564.654 27.458C569.816 27.458 574.002 23.2706 574.002 18.1052C574.002 12.9398 569.816 8.75238 564.654 8.75238C559.491 8.75238 555.305 12.9398 555.305 18.1052C555.305 23.2706 559.491 27.458 564.654 27.458Z" fill="#D8E4EF"></path><path d="M538.348 20.1044V16.2098C538.346 14.8324 537.798 13.5122 536.824 12.5387C535.85 11.5652 534.53 11.018 533.153 11.0171H533.143C531.766 11.0184 530.446 11.5663 529.472 12.5404C528.498 13.5146 527.951 14.8354 527.949 16.2131V20.1076L526.136 22.7337H530.681C530.681 23.3877 530.941 24.015 531.403 24.4775C531.866 24.9399 532.492 25.1997 533.146 25.1997C533.8 25.1997 534.427 24.9399 534.889 24.4775C535.351 24.015 535.611 23.3877 535.611 22.7337H540.158L538.348 20.1044Z" fill="#D8E4EF"></path><path d="M513.399 16.6256H512.207C512.093 16.2159 511.93 15.8211 511.723 15.4495L512.564 14.6082C512.67 14.5012 512.73 14.3562 512.73 14.2049C512.73 14.0537 512.67 13.9086 512.564 13.8016L511.274 12.5018C511.167 12.3949 511.022 12.3349 510.871 12.3349C510.72 12.3349 510.575 12.3949 510.468 12.5018L509.627 13.343C509.256 13.1324 508.862 12.9662 508.452 12.8482V11.6605C508.452 11.5092 508.391 11.364 508.285 11.257C508.178 11.1499 508.032 11.0898 507.881 11.0898H506.048C505.896 11.0898 505.751 11.1499 505.644 11.257C505.537 11.364 505.477 11.5092 505.477 11.6605V12.8515C505.067 12.9696 504.673 13.1357 504.302 13.3463L503.461 12.5051C503.354 12.3982 503.209 12.3382 503.058 12.3382C502.907 12.3382 502.762 12.3982 502.655 12.5051L501.359 13.8016C501.252 13.9086 501.192 14.0537 501.192 14.2049C501.192 14.3562 501.252 14.5012 501.359 14.6082L502.2 15.4495C501.991 15.821 501.827 16.2157 501.712 16.6256H500.519C500.445 16.6256 500.371 16.6404 500.301 16.6691C500.232 16.6978 500.17 16.7399 500.117 16.7929C500.064 16.8459 500.022 16.9088 499.994 16.9781C499.965 17.0473 499.95 17.1215 499.951 17.1963V19.0306C499.95 19.1054 499.965 19.1795 499.994 19.2487C500.022 19.3178 500.064 19.3806 500.117 19.4335C500.17 19.4864 500.232 19.5283 500.302 19.5568C500.371 19.5854 500.445 19.5999 500.519 19.5997H501.712C501.826 20.01 501.989 20.4053 502.196 20.7775L501.355 21.6187C501.303 21.6716 501.261 21.7343 501.232 21.8034C501.203 21.8724 501.189 21.9465 501.189 22.0212C501.189 22.096 501.203 22.17 501.232 22.239C501.261 22.3081 501.303 22.3709 501.355 22.4237L502.651 23.7219C502.758 23.8288 502.903 23.8888 503.054 23.8888C503.206 23.8888 503.351 23.8288 503.458 23.7219L504.298 22.8806C504.67 23.0879 505.064 23.2507 505.474 23.3656V24.5433C505.474 24.6947 505.534 24.8399 505.641 24.9469C505.748 25.054 505.893 25.1141 506.044 25.1141H507.878C508.029 25.1141 508.174 25.054 508.281 24.9469C508.388 24.8399 508.448 24.6947 508.448 24.5433V23.3524C508.858 23.2375 509.252 23.0747 509.624 22.8674L510.465 23.7087C510.572 23.8156 510.717 23.8756 510.868 23.8756C511.019 23.8756 511.164 23.8156 511.271 23.7087L512.567 22.4105C512.62 22.3577 512.662 22.2949 512.69 22.2258C512.719 22.1568 512.734 22.0828 512.734 22.008C512.734 21.9333 512.719 21.8592 512.69 21.7902C512.662 21.7211 512.62 21.6584 512.567 21.6055L511.726 20.7643C511.933 20.3921 512.096 19.9968 512.211 19.5865H513.403C513.477 19.5867 513.552 19.5722 513.621 19.5436C513.69 19.5151 513.753 19.4732 513.805 19.4203C513.858 19.3674 513.9 19.3046 513.929 19.2355C513.957 19.1663 513.972 19.0922 513.972 19.0174V17.1881C513.97 17.0377 513.909 16.8942 513.801 16.7888C513.694 16.6834 513.55 16.6247 513.399 16.6256ZM506.958 20.9886C506.39 20.9886 505.834 20.8201 505.362 20.5043C504.889 20.1885 504.521 19.7397 504.303 19.2145C504.086 18.6893 504.028 18.1114 504.139 17.5538C504.25 16.9962 504.523 16.4838 504.925 16.0816C505.326 15.6794 505.838 15.4053 506.395 15.294C506.952 15.1827 507.53 15.2392 508.055 15.4563C508.58 15.6734 509.029 16.0414 509.346 16.5137C509.662 16.9861 509.831 17.5417 509.832 18.1102C509.83 18.8719 509.527 19.6019 508.988 20.14C508.449 20.6781 507.719 20.9804 506.958 20.9804V20.9886Z" fill="#D8E4EF"></path><path d="M234.843 20.9275L231.306 17.3893L229.211 19.4858L234.843 25.119L240.473 19.4858L238.378 17.3893L234.843 20.9275Z" fill="#D8E4EF"></path><path d="M240.473 13.1863L238.378 11.0914L234.843 14.628L231.306 11.0914L229.211 13.1863L234.843 18.8194L240.473 13.1863Z" fill="#D8E4EF"></path><path d="M584.425 49.062H564.309V69.1879H584.425V49.062Z" fill="white"></path><path fill-rule="evenodd" clip-rule="evenodd" d="M575.998 59.1239C575.999 59.4467 575.903 59.7622 575.724 60.0307C575.545 60.2992 575.291 60.5086 574.993 60.6323C574.695 60.756 574.367 60.7886 574.051 60.7258C573.734 60.6631 573.444 60.5078 573.215 60.2797C572.987 60.0516 572.832 59.761 572.769 59.4445C572.706 59.128 572.738 58.7999 572.861 58.5017C572.985 58.2035 573.194 57.9486 573.462 57.7693C573.73 57.5899 574.045 57.4942 574.368 57.4942C574.8 57.4942 575.214 57.6659 575.52 57.9714C575.826 58.277 575.998 58.6916 575.998 59.1239ZM570.891 59.124C570.891 59.4468 570.796 59.7624 570.617 60.0309C570.437 60.2994 570.183 60.5088 569.885 60.6325C569.587 60.7562 569.259 60.7886 568.942 60.7257C568.626 60.6628 568.335 60.5074 568.107 60.2792C567.879 60.0509 567.724 59.7601 567.661 59.4435C567.598 59.1269 567.63 58.7987 567.754 58.5005C567.877 58.2024 568.087 57.9476 568.355 57.7685C568.624 57.5893 568.939 57.4939 569.262 57.4942C569.694 57.4942 570.108 57.6659 570.414 57.9716C570.719 58.2772 570.891 58.6917 570.891 59.124ZM580.831 60.0307C581.01 59.7622 581.105 59.4467 581.105 59.1239C581.104 58.6916 580.932 58.277 580.626 57.9714C580.321 57.6659 579.906 57.4942 579.474 57.4942C579.151 57.4942 578.836 57.5899 578.568 57.7693C578.3 57.9486 578.091 58.2035 577.967 58.5017C577.844 58.7999 577.812 59.128 577.875 59.4445C577.938 59.761 578.093 60.0516 578.322 60.2797C578.55 60.5078 578.841 60.6631 579.157 60.7258C579.473 60.7886 579.801 60.756 580.099 60.6323C580.397 60.5086 580.652 60.2992 580.831 60.0307Z" fill="#DDE7EE"></path><path d="M287.149 49.062H267.033V69.1879H287.149V49.062Z" fill="white"></path><path d="M283.25 57.4945H276.751L278.657 55.5876L276.561 53.4911L272.56 57.4945H272.541V57.5126L270.931 59.1242L272.541 60.7358V60.7556H272.56L276.561 64.7574L278.657 62.6625L276.751 60.7556H283.25V57.4945Z" fill="#DDE7EE"></path><path d="M362.284 53.4911H297.7V62.5619H362.284V53.4911Z" fill="#BCD2E2"></path><path d="M375.418 79.6906H267.033V183.971H375.418V79.6906Z" fill="white"></path><path d="M423.093 196.141H267.033V282.995H423.093V196.141Z" fill="white"></path><path d="M584.427 196.141H435.71V282.995H584.427V196.141Z" fill="white"></path><path d="M544.213 209.221C527.462 209.221 513.876 222.81 513.876 239.573C513.876 256.335 527.46 269.924 544.213 269.924C552.259 269.924 559.975 266.726 565.664 261.034C571.353 255.342 574.55 247.622 574.55 239.573C574.546 222.817 560.964 209.221 544.213 209.221ZM560.674 258.282C556.4 262.05 550.964 264.24 545.273 264.485C539.581 264.731 533.977 263.017 529.395 259.63C524.813 256.244 521.529 251.388 520.091 245.873C518.653 240.358 519.147 234.517 521.491 229.322C523.836 224.127 527.889 219.893 532.975 217.326C538.061 214.758 543.873 214.012 549.442 215.211C555.012 216.41 560.002 219.483 563.582 223.917C567.162 228.351 569.115 233.878 569.115 239.578C569.121 243.117 568.371 246.617 566.915 249.843C565.46 253.068 563.332 255.946 560.674 258.282Z" fill="#D8D8D8"></path><path d="M574.546 239.569C574.551 243.822 573.661 248.028 571.932 251.913C570.204 255.799 567.677 259.276 564.515 262.118L560.673 258.273C564.47 254.926 567.157 250.501 568.378 245.588C569.599 240.675 569.296 235.506 567.509 230.769C565.722 226.033 562.536 221.953 558.374 219.072C554.212 216.192 549.273 214.648 544.212 214.645V209.221C560.964 209.221 574.546 222.817 574.546 239.569Z" fill="#9ED04E"></path><path d="M491.771 213.692C487.005 210.761 481.519 209.213 475.925 209.221C459.174 209.221 445.588 222.81 445.588 239.573C445.588 247.622 448.785 255.342 454.474 261.034C460.163 266.726 467.879 269.924 475.925 269.924C492.676 269.924 506.262 256.335 506.262 239.573C506.265 234.378 504.934 229.27 502.396 224.738C499.859 220.206 496.2 216.402 491.771 213.692ZM475.925 264.497C470.997 264.498 466.179 263.036 462.081 260.297C457.984 257.559 454.79 253.665 452.903 249.11C451.017 244.555 450.523 239.543 451.485 234.707C452.446 229.871 454.819 225.429 458.304 221.943C461.788 218.456 466.228 216.082 471.062 215.121C475.895 214.159 480.905 214.653 485.458 216.54C490.011 218.427 493.902 221.623 496.64 225.722C499.377 229.822 500.838 234.642 500.838 239.573C500.838 242.846 500.193 246.087 498.941 249.11C497.689 252.134 495.854 254.882 493.541 257.196C491.227 259.51 488.481 261.346 485.458 262.598C482.436 263.85 479.197 264.494 475.925 264.494V264.497Z" fill="#D8D8D8"></path><path d="M506.26 239.569C506.26 256.329 492.676 269.921 475.924 269.921C470.732 269.925 465.626 268.593 461.097 266.055C456.568 263.516 452.767 259.856 450.058 255.425L454.015 251.466C455.864 254.875 458.484 257.806 461.664 260.024C464.845 262.243 468.499 263.688 472.336 264.245C476.173 264.802 480.087 264.455 483.766 263.233C487.446 262.01 490.79 259.945 493.531 257.203C496.273 254.46 498.337 251.115 499.559 247.433C500.781 243.752 501.128 239.836 500.571 235.997C500.015 232.158 498.57 228.502 496.353 225.32C494.136 222.138 491.207 219.517 487.799 217.667L491.756 213.708C496.185 216.416 499.844 220.216 502.384 224.744C504.924 229.272 506.258 234.377 506.26 239.569Z" fill="#05A9CC"></path><path d="M289.806 261.812H280.919V206.896H289.806V261.812ZM306.862 225.106H297.977V261.812H306.862V225.106ZM323.92 241.707H315.033V261.812H323.92V241.707ZM340.976 215.287H332.091V261.812H340.976V215.287ZM358.034 230.718H349.147V261.812H358.034V230.718ZM375.088 220.43H366.203V261.812H375.088V220.43ZM392.146 206.896H383.259V261.812H392.146V206.896ZM409.202 213.182H400.314V261.812H409.199L409.202 213.182Z" fill="#80C867"></path><path d="M584.427 79.6906H387.497V183.971H584.427V79.6906Z" fill="white"></path><path d="M554.315 100.061L554.35 100.857C554.834 100.248 555.467 99.9434 556.249 99.9434C557.588 99.9434 558.264 100.699 558.276 102.211V106.4H557.192V102.205C557.188 101.748 557.083 101.41 556.875 101.191C556.672 100.973 556.354 100.863 555.92 100.863C555.569 100.863 555.26 100.957 554.995 101.145C554.729 101.332 554.522 101.578 554.374 101.883V106.4H553.29V100.061H554.315ZM553.823 120.4V114.898H552.821V114.061H553.823V113.41C553.823 112.731 554.004 112.205 554.368 111.834C554.731 111.463 555.245 111.277 555.909 111.277C556.159 111.277 556.407 111.311 556.653 111.377L556.594 112.256C556.411 112.221 556.215 112.203 556.008 112.203C555.657 112.203 555.385 112.307 555.194 112.514C555.002 112.717 554.907 113.01 554.907 113.393V114.061H556.26V114.898H554.907V120.4H553.823ZM553.002 131.172C553.002 130.551 553.124 129.992 553.366 129.496C553.612 129 553.952 128.617 554.385 128.348C554.823 128.078 555.321 127.943 555.879 127.943C556.743 127.943 557.44 128.242 557.971 128.84C558.506 129.438 558.774 130.232 558.774 131.225V131.301C558.774 131.918 558.655 132.473 558.417 132.965C558.182 133.453 557.844 133.834 557.403 134.107C556.965 134.381 556.461 134.518 555.891 134.518C555.032 134.518 554.334 134.219 553.799 133.621C553.268 133.023 553.002 132.232 553.002 131.248V131.172ZM554.092 131.301C554.092 132.004 554.254 132.568 554.579 132.994C554.907 133.42 555.344 133.633 555.891 133.633C556.442 133.633 556.879 133.418 557.204 132.988C557.528 132.555 557.69 131.949 557.69 131.172C557.69 130.477 557.524 129.914 557.192 129.484C556.864 129.051 556.426 128.834 555.879 128.834C555.344 128.834 554.913 129.047 554.584 129.473C554.256 129.898 554.092 130.508 554.092 131.301Z" fill="white"></path><path d="M574.546 90.9865H534.533V103.772H574.546V90.9865Z" fill="#80C867"></path><path d="M575.502 124.932H489.651V128.593H575.502V124.932Z" fill="#BCD2E2"></path><path d="M575.502 136.154H489.651V139.814H575.502V136.154Z" fill="#BCD2E2"></path><path d="M575.502 147.377H489.651V151.037H575.502V147.377Z" fill="#DDE7EE"></path><path d="M502.696 147.377H489.651V151.037H502.696V147.377Z" fill="#BCD2E2"></path><path d="M575.502 158.6H489.651V162.261H575.502V158.6Z" fill="#DDE7EE"></path><path d="M540.536 158.6H489.651V162.261H540.536V158.6Z" fill="#BCD2E2"></path><path d="M575.502 169.823H489.651V173.483H575.502V169.823Z" fill="#DDE7EE"></path><path d="M558.55 169.823H489.651V173.483H558.55V169.823Z" fill="#BCD2E2"></path><path d="M366.097 173.016H276.352V173.951H366.097V173.016Z" fill="#DDE7EE"></path><path fill-rule="evenodd" clip-rule="evenodd" d="M276.352 88.5073H366.097V89.4421H276.352V88.5073ZM366.097 92.3788H276.352V93.3136H366.097V92.3788ZM276.352 96.2503H366.097V97.1851H276.352V96.2503ZM366.097 100.122H276.352V101.057H366.097V100.122ZM366.097 103.993H276.352V104.928H366.097V103.993Z" fill="#DDE7EE"></path><path d="M344.506 150.318H344.421C343.574 150.311 342.751 150.03 342.076 149.518C341.4 149.005 340.907 148.289 340.671 147.475L335.099 129.081C335.027 128.827 334.877 128.603 334.669 128.441C334.462 128.278 334.209 128.186 333.945 128.177C333.684 128.158 333.424 128.222 333.2 128.359C332.977 128.495 332.802 128.698 332.699 128.939C332.392 129.655 331.88 130.265 331.228 130.692C330.575 131.119 329.811 131.343 329.032 131.337C328.252 131.342 327.487 131.116 326.835 130.688C326.182 130.259 325.671 129.647 325.365 128.929L322.614 122.595C322.304 121.882 321.644 121.864 321.443 121.826C321.194 121.823 320.95 121.894 320.741 122.03C320.533 122.167 320.37 122.362 320.272 122.591L316.241 131.789C315.94 132.477 315.452 133.067 314.832 133.491C314.212 133.914 313.485 134.155 312.735 134.185C311.985 134.216 311.241 134.034 310.589 133.662C309.937 133.289 309.403 132.741 309.048 132.08L307.539 129.275C307.433 129.072 307.272 128.901 307.075 128.783C306.878 128.664 306.653 128.602 306.423 128.604H306.415C306.186 128.601 305.961 128.661 305.764 128.778C305.568 128.894 305.406 129.062 305.298 129.264L299.017 140.551C298.654 141.203 298.116 141.741 297.464 142.104C296.813 142.466 296.072 142.64 295.327 142.604C294.582 142.569 293.862 142.326 293.248 141.903C292.633 141.48 292.149 140.894 291.85 140.21L283.83 121.866C283.735 121.648 283.582 121.461 283.387 121.326C283.192 121.191 282.964 121.113 282.727 121.101C282.49 121.089 282.255 121.142 282.047 121.257C281.839 121.371 281.667 121.54 281.55 121.747L278.722 126.717L276.352 125.368L279.179 120.398C279.546 119.751 280.086 119.22 280.737 118.863C281.389 118.506 282.127 118.337 282.869 118.376C283.611 118.415 284.328 118.66 284.939 119.083C285.549 119.506 286.031 120.091 286.328 120.772L294.346 139.105C294.441 139.323 294.596 139.51 294.792 139.645C294.988 139.781 295.217 139.858 295.455 139.87C295.693 139.881 295.929 139.826 296.137 139.71C296.345 139.595 296.517 139.423 296.633 139.215L302.914 127.928C303.264 127.3 303.776 126.777 304.396 126.415C305.017 126.053 305.723 125.865 306.442 125.87C307.16 125.875 307.864 126.073 308.479 126.444C309.095 126.815 309.599 127.344 309.94 127.977L311.447 130.781C311.561 130.992 311.731 131.167 311.939 131.286C312.147 131.405 312.384 131.463 312.624 131.454C312.863 131.446 313.096 131.369 313.294 131.234C313.492 131.098 313.647 130.909 313.742 130.689L317.773 121.491C318.08 120.775 318.592 120.165 319.244 119.738C319.897 119.311 320.66 119.087 321.44 119.093C322.22 119.088 322.984 119.314 323.636 119.743C324.289 120.172 324.8 120.784 325.105 121.503L327.858 127.835C327.955 128.065 328.118 128.26 328.326 128.397C328.534 128.534 328.778 128.606 329.027 128.604C329.276 128.607 329.52 128.535 329.729 128.399C329.937 128.263 330.1 128.068 330.198 127.839C330.527 127.089 331.077 126.457 331.776 126.03C332.474 125.603 333.286 125.4 334.103 125.448C334.921 125.497 335.703 125.795 336.346 126.302C336.989 126.81 337.46 127.502 337.698 128.286L343.269 146.679C343.347 146.937 343.505 147.164 343.72 147.327C343.935 147.489 344.196 147.58 344.465 147.585C344.735 147.591 344.999 147.511 345.22 147.357C345.442 147.203 345.609 146.983 345.698 146.729L349.834 134.842C350.113 134.038 350.641 133.343 351.342 132.86C352.042 132.376 352.879 132.128 353.729 132.152C354.58 132.176 355.401 132.471 356.073 132.993C356.745 133.516 357.233 134.24 357.466 135.059L358.025 137.017C358.1 137.278 358.256 137.508 358.47 137.674C358.685 137.841 358.947 137.935 359.218 137.942C359.489 137.95 359.756 137.871 359.979 137.716C360.203 137.562 360.371 137.341 360.46 137.084L363.511 128.254L366.089 129.145L363.039 137.975C362.761 138.78 362.233 139.475 361.533 139.96C360.833 140.445 359.996 140.694 359.145 140.671C358.294 140.647 357.472 140.354 356.8 139.831C356.127 139.309 355.638 138.586 355.404 137.767L354.845 135.809C354.77 135.548 354.614 135.317 354.4 135.151C354.186 134.984 353.924 134.89 353.653 134.883C353.381 134.875 353.114 134.954 352.891 135.108C352.668 135.262 352.499 135.483 352.41 135.74L348.273 147.626C348.009 148.415 347.503 149.101 346.826 149.584C346.149 150.068 345.337 150.325 344.506 150.318Z" fill="#BCD2E2"></path><path fill-rule="evenodd" clip-rule="evenodd" d="M395.998 95.3281H485.743V96.263H395.998V95.3281ZM395.998 99.9153H485.743V100.85H395.998V99.9153Z" fill="#DDE7EE"></path><path d="M484.571 126.295H394.825V127.229H484.571V126.295Z" fill="#91A2C6"></path><path d="M484.571 137.518H394.825V138.453H484.571V137.518Z" fill="#91A2C6"></path><path d="M484.571 148.74H394.825V149.675H484.571V148.74Z" fill="#91A2C6"></path><path d="M484.571 159.963H394.825V160.898H484.571V159.963Z" fill="#91A2C6"></path><path d="M484.571 171.187H394.825V172.121H484.571V171.187Z" fill="#91A2C6"></path><path fill-rule="evenodd" clip-rule="evenodd" d="M485.02 127.678H394.378V125.844H485.023L485.02 127.678ZM395.275 126.779H484.121V126.745H395.275V126.779ZM485.02 138.901H394.378V137.068H485.023L485.02 138.901ZM395.275 138.002H484.121V137.966H395.275V138.002ZM394.378 150.125H485.02L485.023 148.291H394.378V150.125ZM484.121 149.226H395.275V149.19H484.121V149.226ZM485.02 161.346H394.378V159.513H485.023L485.02 161.346ZM395.275 160.448H484.121V160.411H395.275V160.448ZM394.378 172.57H485.02L485.023 170.736H394.378V172.57ZM484.121 171.671H395.275V171.635H484.121V171.671Z" fill="#BCD2E2"></path><path d="M319.897 389.06H284.943C283.784 389.064 282.655 388.692 281.724 388C280.793 387.309 280.111 386.334 279.78 385.223L247.959 279.604C246.681 275.296 244.042 271.518 240.437 268.838C236.831 266.159 232.454 264.721 227.963 264.741H194.386C192.834 264.74 191.303 265.102 189.915 265.799C188.528 266.496 187.323 267.508 186.397 268.755C185.471 270.002 184.849 271.448 184.583 272.978C184.316 274.508 184.411 276.08 184.86 277.566L217.693 386.533C218.302 388.585 219.559 390.385 221.277 391.661C222.994 392.938 225.08 393.623 227.219 393.614H262.15C263.579 393.615 264.95 394.184 265.962 395.196C266.973 396.207 267.541 397.579 267.543 399.01V465.25H272.101V399.01C272.097 396.371 271.047 393.841 269.182 391.976C267.316 390.111 264.787 389.062 262.15 389.06H227.211C226.051 389.065 224.921 388.694 223.99 388.002C223.059 387.31 222.377 386.335 222.047 385.223L189.214 276.252C188.972 275.446 188.921 274.594 189.066 273.765C189.212 272.936 189.548 272.152 190.05 271.476C190.552 270.8 191.204 270.251 191.956 269.873C192.707 269.494 193.537 269.297 194.378 269.296H227.968C231.48 269.28 234.902 270.404 237.721 272.5C240.54 274.595 242.603 277.549 243.601 280.918L275.422 386.533C276.031 388.585 277.288 390.385 279.006 391.661C280.723 392.938 282.809 393.623 284.948 393.614H319.902C321.331 393.615 322.702 394.184 323.714 395.196C324.725 396.207 325.293 397.579 325.295 399.01V450.782H329.853V399.01C329.85 396.37 328.799 393.839 326.933 391.974C325.066 390.108 322.535 389.06 319.897 389.06Z" fill="#85A8CC"></path><path d="M329.849 447.552V454.195C329.846 456.834 328.797 459.365 326.931 461.232C325.065 463.098 322.535 464.147 319.897 464.15H216.991V459.595H319.897C321.327 459.593 322.699 459.023 323.71 458.011C324.721 456.998 325.289 455.626 325.29 454.195V447.552H329.849Z" fill="#85A8CC"></path><path d="M269.884 457.005C270.487 457.005 271.066 457.245 271.493 457.672C271.92 458.099 272.159 458.678 272.159 459.282V463.648C272.157 466.288 271.108 468.819 269.243 470.685C267.377 472.552 264.848 473.602 262.209 473.605H161.577C160.973 473.605 160.394 473.365 159.967 472.937C159.54 472.51 159.3 471.931 159.3 471.327C159.3 470.722 159.54 470.143 159.967 469.716C160.394 469.289 160.973 469.049 161.577 469.049H259.929C261.963 469.049 263.914 468.24 265.352 466.801C266.791 465.362 267.599 463.41 267.599 461.375V459.283C267.599 458.984 267.658 458.688 267.772 458.412C267.887 458.136 268.054 457.885 268.266 457.673C268.477 457.462 268.728 457.294 269.005 457.18C269.281 457.066 269.577 457.007 269.876 457.007L269.884 457.005Z" fill="#85A8CC"></path><path d="M256.198 338.805H211.553C209.794 338.806 208.081 338.239 206.669 337.188C205.257 336.138 204.222 334.659 203.717 332.972L188.713 283.232C188.482 282.455 188.435 281.634 188.575 280.834C188.716 280.035 189.041 279.28 189.525 278.628C190.008 277.976 190.636 277.446 191.36 277.08C192.084 276.714 192.883 276.521 193.694 276.517H238.375C240.134 276.52 241.845 277.089 243.255 278.139C244.666 279.189 245.702 280.666 246.21 282.35L261.184 332.091C261.418 332.87 261.468 333.692 261.328 334.493C261.188 335.293 260.863 336.05 260.378 336.703C259.894 337.355 259.263 337.885 258.537 338.25C257.812 338.615 257.01 338.805 256.198 338.805Z" fill="#33437C"></path><path d="M250.124 338.805H211.553C209.794 338.806 208.081 338.239 206.669 337.188C205.257 336.138 204.222 334.659 203.717 332.972L188.713 283.232C188.482 282.455 188.435 281.634 188.575 280.834C188.716 280.035 189.041 279.28 189.525 278.628C190.008 277.976 190.636 277.446 191.36 277.08C192.084 276.714 192.883 276.521 193.694 276.517H232.265C234.027 276.521 235.741 277.089 237.156 278.139C238.571 279.189 239.613 280.665 240.129 282.35L255.103 332.091C255.337 332.869 255.386 333.691 255.247 334.491C255.107 335.291 254.782 336.047 254.299 336.699C253.815 337.352 253.186 337.882 252.461 338.247C251.736 338.613 250.936 338.804 250.124 338.805Z" fill="#B0C6DE"></path><path d="M325.994 387.016H230.794V370.102C230.794 369.954 230.852 369.813 230.957 369.709C231.061 369.604 231.202 369.546 231.349 369.546H325.438C325.585 369.546 325.727 369.604 325.831 369.709C325.935 369.813 325.994 369.954 325.994 370.102V387.016Z" fill="#33437C"></path><path d="M226.769 390.805H330.017C330.154 390.805 330.266 390.693 330.266 390.556V380.853C330.266 380.716 330.154 380.604 330.017 380.604H226.769C226.632 380.604 226.52 380.716 226.52 380.853V390.556C226.52 390.693 226.632 390.805 226.769 390.805Z" fill="#E2EBF3"></path><path d="M399.466 123.777C399.466 123.777 402.531 114.571 410.602 122.545C418.672 130.519 406.124 138.42 406.124 138.42L399.466 123.777Z" fill="#091644"></path><path d="M396.309 305.518C396.309 305.518 391.066 296.152 394.062 288.908C397.058 281.665 391.94 270.426 391.94 270.426L410.165 252.568L448.734 252.817C448.734 252.817 472.079 333.266 472.079 341.509C472.079 349.751 450.884 436.548 450.884 436.548H432.504C432.504 436.548 440.835 341.147 445.827 327.91C445.827 327.91 432.507 300.147 427.266 290.532L426.018 332.242L396.309 305.518Z" fill="#1C2854"></path><path d="M473.327 193.585C473.327 193.585 475.62 188.995 475.714 186.748C475.808 184.501 479.74 181.689 480.863 181.362C481.986 181.036 485.732 177.146 485.358 175.977C484.983 174.807 489.102 174.806 487.511 178.781C485.92 182.756 485.45 182.809 485.45 182.809C485.45 182.809 491.395 183.558 492.8 184.729C494.205 185.9 504.049 185.961 504.923 185.338C505.797 184.714 505.485 189.333 503.05 189.77C500.615 190.207 491.941 190.207 491.941 190.207C491.941 190.207 483.697 190.146 482.891 192.022C482.085 193.897 477.78 196.581 477.78 196.581L473.327 193.585Z" fill="#F5C5CE"></path><path d="M485.45 182.814L482.736 183.609L487.178 179.601L485.45 182.814Z" fill="#F0A8B5"></path><path d="M475.287 192.677C475.287 192.677 478.09 193.272 481.894 191.212C485.697 189.152 487.17 190.494 487.17 190.494C487.17 190.494 483.47 190.252 482.085 193.167C480.7 196.081 477.163 196.175 477.163 196.175L475.287 192.677Z" fill="#F0A8B5"></path><path d="M427.827 280.978L427.254 290.906C427.254 290.906 439.104 317.559 445.827 327.91L436.377 395.989C454.302 377.81 455.979 342.004 458.47 329.141C460.961 316.278 427.827 280.978 427.827 280.978Z" fill="#0F1A42"></path><path d="M396.309 305.518C396.309 305.518 408.896 420.021 409.26 436.548C409.26 436.548 417.044 443.531 432.507 436.548L426.021 332.242L396.309 305.518Z" fill="#1C2854"></path><path d="M472.326 191.936L473.559 190.907L480.393 196.058L478.558 198.809L470.283 195.964L472.326 191.936Z" fill="white"></path><path d="M262.911 212.062C262.911 212.062 269.91 213.381 273.148 224.404C273.148 224.404 275.424 230.619 279.272 230.532C279.272 230.532 281.198 232.282 276.823 234.296C276.823 234.296 278.978 239.459 279.694 241.823C280.409 244.186 281.285 249.526 262.125 253.64C262.125 253.64 259.588 263.793 263.962 271.933C268.336 280.074 246.638 278.586 246.551 277.799C246.464 277.012 252.763 263.613 248.564 254.691C244.365 245.768 232.378 237.446 232.378 237.446C232.378 237.446 253.725 204.096 262.911 212.062Z" fill="#F5C5CE"></path><path d="M259.587 225.804C259.587 225.804 256.438 231.412 259.587 236.046C259.587 236.046 252.414 232.019 252.589 227.818C252.763 223.616 259.587 225.804 259.587 225.804Z" fill="#182651"></path><path d="M252.74 231.613C252.74 231.613 246.64 239.284 256.875 242.26C256.875 242.26 248.477 249.089 246.376 242.611C244.276 236.133 250.444 229.543 252.74 231.613Z" fill="#F0A8B5"></path><path d="M400.512 125.506C400.512 125.506 408.991 121.168 414.653 132C414.653 132 418.28 138.01 421.934 137.097C421.934 137.097 424.181 138.518 420.466 141.551C420.466 141.551 423.729 146.487 424.963 148.809C426.196 151.132 429.564 155.884 412.2 164.264C412.2 164.264 410.848 176.048 416.923 183.621C422.999 191.194 401.907 194.262 401.639 193.459C401.372 192.655 403.021 178.171 399.293 169.362C395.239 159.78 380.287 153.768 380.287 153.768C380.287 153.768 389.874 119.142 400.512 125.506Z" fill="#F5C5CE"></path><path d="M391.266 150.429C391.266 150.429 385.701 149.494 388.181 156.621C390.661 163.749 380.762 146.322 380.762 146.322L391.266 150.429Z" fill="#F1A080"></path><path d="M390.861 159.251C390.861 159.251 399.384 158.921 400.348 164.165C401.313 169.408 401.654 178.167 401.654 178.167L397.466 165.578L390.861 159.251Z" fill="#F0A8B5"></path><path d="M399.427 126.649C399.427 126.649 394.825 128.856 397.394 135.288C400.558 143.206 386.324 150.683 386.324 150.683C386.324 150.683 392.251 121.773 399.031 126.776" fill="#F0A8B5"></path><path d="M266.674 213.988C266.674 213.988 268.889 222.624 262.24 225.776C255.591 228.928 246.843 234.528 250.109 238.73C253.375 242.931 248.564 254.69 248.564 254.69C248.564 254.69 228.761 256.703 229.579 237.446C229.579 237.446 221.295 242.23 221.412 232.895C221.529 223.561 227.361 219.473 229.461 222.858C231.562 226.243 233.778 226.358 233.778 218.074C233.778 209.79 251.367 198.569 261.399 204.177C271.432 209.785 267.26 212.59 266.674 213.988Z" fill="#232F63"></path><path d="M265.175 267.661C265.175 267.661 277.424 269.848 287.835 266.96C298.247 264.072 298.158 283.503 299.212 297.422C300.265 311.341 304.112 325.87 300.262 327.443C296.412 329.017 265.525 325.418 265.525 325.418C265.525 325.418 242.607 336.191 228.517 330.414C214.427 324.637 225.366 276.494 225.366 276.494C225.366 276.494 226.067 271.504 233.241 271.768C240.414 272.032 248.149 268.586 248.149 268.586C248.149 268.586 254.239 279.12 259.576 274.22C264.913 269.319 265.175 267.661 265.175 267.661Z" fill="#F6DB54"></path><path d="M249.479 267.442C249.479 267.442 254.491 275.054 256.875 272.06C258.473 270.09 260.179 268.211 261.986 266.432L262.661 270.876L256.066 277.515L249.207 268.812L249.479 267.442Z" fill="#F0A8B5"></path><path d="M246.333 269.312C246.333 269.312 246.908 282.327 250.29 285.321C251.175 286.106 252.588 285.688 253.004 284.582C253.48 283.308 254.323 281.083 255.444 278.2C257.356 273.279 258.484 283.046 267.218 283.973C267.218 283.973 268.456 284.291 265.557 275.11L258.174 276.034C258.174 276.034 257.042 275.054 252.506 275.672C247.97 276.291 246.333 269.312 246.333 269.312Z" fill="#F2CE17"></path><path d="M284.859 289.017C284.859 289.017 287.397 311.164 286.523 312.127C286.523 312.127 266.75 305.999 250.214 311.776C250.214 311.776 255.259 307.634 272.232 306.167C289.204 304.701 284.859 289.017 284.859 289.017Z" fill="#F2CE17"></path><path d="M236.828 296.551C236.828 296.551 234.99 314.758 236.04 316.159C237.09 317.559 239.802 317.559 239.802 317.559C239.802 317.559 237.527 308.538 236.828 296.551Z" fill="#F2CE17"></path><path d="M250.215 311.776C250.215 311.776 251.176 319.479 250.651 320.442C250.651 320.442 244.089 318.516 239.803 317.554C239.803 317.554 246.254 312.929 250.215 311.776Z" fill="#EAEEFA"></path><path d="M265.525 325.418L250.651 320.436C250.83 318.88 250.83 317.309 250.651 315.753C250.651 315.753 275.697 326.709 301.927 323.324C301.932 323.331 309.882 334.871 265.525 325.418Z" fill="#F2CE17"></path><path d="M400.179 181.384C400.179 181.384 396.684 184.132 386.948 185.38C377.212 186.629 369.471 244.199 369.471 244.199C369.471 244.199 367.849 250.068 374.214 257.188C380.58 264.307 394.06 288.908 394.06 288.908L397.556 272.423C397.556 272.423 398.555 264.556 401.3 263.931C404.045 263.306 445.239 261.308 448.733 252.817C448.733 252.817 448.609 248.445 447.984 240.828C447.359 233.21 447.236 229.588 447.236 229.588C447.236 229.588 450.48 243.637 461.34 225.093C472.201 206.549 478.942 199.063 478.942 199.063C478.942 199.063 470.204 193.63 472.326 191.944C472.326 191.944 471.64 188.886 469.892 192.632C468.145 196.378 454.19 211.766 454.19 211.766C454.19 211.766 448.718 193.798 447.58 188.191C446.269 181.728 443.742 178.076 436.908 178.17C430.074 178.264 416.78 178.731 416.78 178.731L409.603 186.88L403.954 186.786L400.179 181.384Z" fill="#BF44EA"></path><path d="M440.873 198.368L447.239 229.588C447.239 229.588 450.07 238.606 455.519 232.85C455.517 232.85 449.422 230.276 440.873 198.368Z" fill="#A919DC"></path><path d="M448.869 253.188L450.198 256.864C450.198 256.864 436.628 268.434 408.917 267.309C408.917 267.309 400.616 266.179 397.557 272.423C397.557 272.423 395.561 262.87 404.673 259.934C413.786 256.998 448.869 253.188 448.869 253.188Z" fill="#0F1A42"></path><path d="M274.489 375.598C274.489 375.598 287.977 429.43 300.268 443.753C312.56 458.076 303.391 457.492 310.421 459.899C317.452 462.305 305.76 421.369 305.76 421.369L292.392 368.61L274.489 375.598Z" fill="#F5C5CE"></path><path d="M336.264 467.554C333.626 466.482 330.874 466.553 330.47 466.375C330.414 466.361 330.396 466.361 330.376 466.347C326.584 463.872 316.809 452.67 314.792 446.584C314.553 445.864 315.058 436.992 315.058 436.992C304.469 435.763 297.683 440.535 297.683 440.535C297.865 443.489 297.299 460.049 297.147 461.118C297.09 461.635 297.09 462.157 297.147 462.675C297.546 466.785 300.47 473.852 301.335 475.541L303.589 475.312C303.464 473.623 303.7 468.93 305.338 467.178C305.338 467.178 306.741 466.95 309.381 468.602C312.207 470.368 316.342 474.014 318.273 473.817L341.063 471.5C340.481 470.847 340.278 469.439 336.264 467.554Z" fill="#1C2854"></path><path d="M312.626 360.731L346.822 439.547L359.425 456.798L340.745 460.097L336.026 439.545C336.026 439.545 297.053 394.251 302.311 365.229C307.569 336.207 312.626 360.731 312.626 360.731Z" fill="#F5C5CE"></path><path d="M397.557 272.423L389.594 280.977L393.575 288.026L397.557 272.423Z" fill="white"></path><path d="M451.314 444.075C451.314 444.075 444.314 447.161 438.289 442.885C438.289 442.885 433.673 440.906 432.024 465.428C432.024 465.428 472.187 467.967 483.812 466.845C483.812 466.845 489.903 457.146 476.189 454.406C462.474 451.666 451.314 444.075 451.314 444.075Z" fill="#232F63"></path><path opacity="0.49" d="M484.878 460.532C484.878 460.532 433.399 457.477 433.318 453.363L432.659 462.005L485 463.887C485 463.887 485.224 461.469 484.878 460.532Z" fill="#111D49"></path><path d="M483.811 466.845C483.811 466.845 485.295 464.293 485.148 462.497L432.464 460.098L432.068 466.068C432.068 466.068 480.772 467.79 483.811 466.845Z" fill="#231F20"></path><path d="M432.115 447.826L432.853 466.096C432.853 466.096 419.715 471.21 399.621 474.751C389.63 476.515 387.493 474.761 386.55 472.707C385.591 470.616 385.714 467.543 390.042 463.614C390.042 463.614 409.212 455.755 412.51 449.98C412.51 449.98 422.41 453.796 427.254 448.847C430.542 445.487 432.115 447.826 432.115 447.826Z" fill="#232F63"></path><path d="M386.55 472.707C386.55 472.707 404.375 474.687 432.651 462.005L432.854 466.096C432.854 466.096 390.751 481.41 386.55 472.707Z" fill="#231F20"></path><path opacity="0.49" d="M386.25 469.37C386.25 469.37 404.376 471.312 432.651 458.625L432.854 462.714C432.854 462.714 383.189 485.295 386.25 469.37Z" fill="#111D49"></path><path d="M270.301 390.292L283.929 520.855C283.929 520.855 286.3 524.199 290.645 521.642L307.236 385.422L270.301 390.292Z" fill="#B0C6DE"></path><path d="M270.301 386.877L272.759 413.067C272.759 413.067 293.477 425.196 304.349 409.13L307.236 386.877H270.301Z" fill="#93B2D2"></path><path d="M126.5 360.343L141.045 495.776C141.045 495.776 143.414 499.119 147.76 496.563L164.351 360.343H126.5Z" fill="#93B2D2"></path><path d="M341.627 318.303L355.255 448.868C355.255 448.868 357.626 452.212 361.971 449.655L378.562 313.435L341.627 318.303Z" fill="#93B2D2"></path><path d="M454.211 342.203L467.839 472.767C467.839 472.767 470.21 476.112 474.555 473.554L491.146 337.335L454.211 342.203Z" fill="#B0C6DE"></path><path d="M454.063 337.335L456.518 363.522C456.518 363.522 477.238 375.651 488.108 359.584L490.996 337.332L454.063 337.335Z" fill="#93B2D2"></path><path d="M112.091 352.354L291.436 384.667L502.382 329.832L368.071 311.341L112.091 352.354Z" fill="#E2EBF3"></path><path d="M112.091 352.354V359.942L291.83 393.97V384.667L112.091 352.354Z" fill="#D4E0ED"></path><path d="M291.83 384.667L502.382 329.832V337.358L291.83 393.97V384.667Z" fill="#C6D6E7"></path><path d="M188.108 337.065L243.128 338.371L209.992 368.02L157.501 357.902L188.108 337.065Z" fill="#C6D6E7"></path><path d="M243.253 306.898L246.142 308.508L234.228 343.844L230.82 342.484L243.253 306.898Z" fill="#6EA5C4"></path><path d="M200.137 302.748L243.253 306.898L230.82 342.484L188.327 334.34L200.137 302.748Z" fill="#DDE7EE"></path><path d="M158.795 351.747L208.562 361.557L230.82 342.483L188.327 334.34L158.795 351.747Z" fill="#7FB9D3"></path><path d="M208.562 361.557L208.264 365.689L234.228 343.844L230.82 342.483L208.562 361.557Z" fill="#7BADC9"></path><path d="M158.795 351.748L208.562 361.557L208.264 365.689L158.531 355.39L158.795 351.748Z" fill="#6EA5C4"></path><path d="M200.137 302.748L230.663 305.686L202.33 337.024L188.327 334.34L200.137 302.748Z" fill="#EBF1F5"></path><path d="M188.327 334.34L189.196 332.017L231.583 340.298L230.82 342.484L188.327 334.34Z" fill="#6EA5C4"></path><path d="M182.897 490.991C182.897 490.991 183.371 501.723 181.517 509.078C179.662 516.433 186.944 520.351 209.481 516.776C232.017 513.202 241.222 513.82 240.879 502.96C240.879 502.96 240.81 495.88 237.1 495.811C233.391 495.741 214.427 500.828 207.694 495.261C200.96 489.694 186.268 480.534 182.897 490.991Z" fill="#111D44"></path><path d="M168.6 440.406L179.218 487.528C179.218 487.528 187.772 499.797 199.827 487.528C211.883 475.259 212.435 412.361 169.286 440.406" fill="#0F39F0"></path><path d="M113.329 279.823C113.329 279.823 120.44 261.678 101.374 269.305C82.3082 276.933 113.329 279.823 113.329 279.823Z" fill="#182651"></path><path d="M126.815 403.833L187.607 403.864C187.607 403.864 194.847 402 196.5 426.926C198.47 456.638 121.318 412.907 126.815 403.833Z" fill="#0F39F0"></path><path d="M103.745 275.287C103.435 275.493 110.752 267.552 120.956 283.638C120.956 283.638 126.521 291.371 131.262 292.608C131.262 292.608 134.148 294.258 127.965 299.206C127.965 299.206 127.863 303.949 129.305 310.238C130.748 316.528 116.216 320.343 116.216 320.343C116.216 320.343 117.04 331.788 118.999 335.189C120.958 338.59 102.818 340.242 102.818 340.242C102.818 340.242 107.148 327.56 101.788 320.238C96.4279 312.916 86.3294 306.319 89.7307 298.688C93.1321 291.058 103.745 275.287 103.745 275.287Z" fill="#F5C5CE"></path><path d="M95.1783 308.075C95.1783 308.075 99.465 312.75 104.906 309.518C104.906 309.518 99.9003 318.386 93.4422 310C86.9841 301.614 95.1783 308.075 95.1783 308.075Z" fill="#F0A8B5"></path><path d="M97.2593 298.291C97.2593 298.291 101.203 296.253 103.333 300.239L104.903 289.24L97.2593 298.291Z" fill="#182651"></path><path d="M114.383 275.932C114.383 275.932 113.021 268.387 108.073 270.139C103.125 271.89 112.299 283.543 108.795 289.318C105.292 295.093 89.6007 298.39 95.1784 308.083L102.472 321.304C102.472 321.304 94.6079 319.567 87.5695 317.436C68.9058 311.784 66.7459 282.718 86.4302 269.418C105.49 256.53 119.337 264.128 114.383 275.932Z" fill="#232F63"></path><path d="M116.215 320.345L110.489 321.892L117.362 329.587L116.215 320.345Z" fill="#F0A8B5"></path><path d="M146.489 375.642C146.489 375.642 166.716 373.447 175.165 368.601C183.615 363.754 191.758 354.474 195.262 355.505C198.765 356.536 204.744 358.599 204.744 360.249C204.744 361.898 200.553 370.491 200.553 370.491C200.553 370.491 200.691 371.659 196.225 371.591C191.758 371.524 192.446 369.323 189.422 370.834C186.398 372.345 162.145 391.25 142.908 389.119L146.489 375.642Z" fill="#F5C5CE"></path><path d="M151.052 379.481C151.052 379.481 157.618 386.422 167.955 383.474C167.955 383.474 159.535 387.943 149.16 389.287L151.052 379.481Z" fill="#F0A8B5"></path><path d="M198.764 501.728C198.764 501.728 199.24 512.459 197.385 519.815C195.53 527.17 202.813 531.087 225.348 527.513C247.883 523.938 257.091 524.557 256.748 513.696C256.748 513.696 256.679 506.617 252.969 506.547C249.259 506.478 230.296 511.565 223.562 505.998C216.829 500.431 202.135 491.271 198.764 501.728Z" fill="#1D2956"></path><path d="M198.762 502.841V508.258C198.762 508.258 206.491 513.495 219.357 502.841L214.081 497.96L198.762 502.841Z" fill="#111D44"></path><path d="M176.371 379.068C176.371 379.068 186.949 367.329 192.583 368.153C198.216 368.978 201.682 368.112 201.682 368.112L200.401 370.816C200.401 370.816 196.925 372.805 192.126 370.549C192.126 370.549 190.769 369.559 187.795 371.845C184.82 374.131 176.371 379.068 176.371 379.068Z" fill="#F0A8B5"></path><path d="M104.903 444.58C104.903 444.58 124.302 451.549 160.561 443.755C168.927 441.957 174.63 441.053 178.516 440.645C179.566 440.536 180.627 440.641 181.636 440.956C182.644 441.27 183.577 441.786 184.379 442.473C185.182 443.16 185.836 444.003 186.301 444.951C186.767 445.899 187.035 446.932 187.089 447.987C187.833 462.243 190.261 494.197 197.392 503.959C197.392 503.959 212.302 507.072 216.562 499.029C216.562 499.029 218.87 445.266 220.422 428.172C222.466 405.738 142.758 407.727 124.147 417.804C105.536 427.881 104.903 444.58 104.903 444.58Z" fill="#3F61F3"></path><path d="M90.1416 438.509C90.1416 438.509 98.2831 455.935 118.637 451.913C138.99 447.892 144.557 403.864 144.557 403.864L133.015 403.478L90.1416 438.509Z" fill="#0F39F0"></path><path d="M103.913 335.795C103.913 335.795 111.225 339.919 118.65 334.475C118.65 334.475 131.777 357.872 134.354 376.741L149.092 375.402C149.092 375.402 155.585 386.022 153.008 397.57L137.345 398.497C137.345 398.497 138.271 412.934 130.852 420.46C123.433 427.987 110.545 447.547 81.5548 444.575C81.5548 444.575 80.6661 423.657 78.6052 406.232C76.5443 388.806 89.9831 339.703 103.913 335.795Z" fill="#FF9344"></path><path d="M99.9316 369.116C99.9316 369.116 119.717 396.646 131.469 397.883L137.343 398.502L137.312 402.425C137.312 402.425 137.881 413.986 128.954 422.278C128.954 422.278 126.521 425.826 115.184 406.443C103.847 387.059 99.9316 369.116 99.9316 369.116Z" fill="#FF7D1F"></path><path d="M134.354 376.746C134.354 376.746 120.698 365.679 116 357.705C116 357.705 128.021 369.171 132.579 368.112L134.354 376.746Z" fill="#FF7D1F"></path><path d="M157.484 462.533H125.334C124.267 462.536 123.228 462.194 122.372 461.558C121.516 460.921 120.888 460.025 120.582 459.003L91.3039 361.829C90.1296 357.865 87.7018 354.39 84.3849 351.924C81.068 349.458 77.0411 348.136 72.9089 348.155H42C40.5718 348.154 39.1633 348.487 37.8871 349.129C36.6108 349.77 35.5024 350.701 34.6505 351.848C33.7987 352.995 33.227 354.325 32.9812 355.733C32.7354 357.14 32.8225 358.586 33.2353 359.954L63.4435 460.209C64.0032 462.097 65.16 463.753 66.7404 464.928C68.3207 466.103 70.2393 466.733 72.2082 466.725H104.359C105.674 466.725 106.935 467.249 107.866 468.179C108.796 469.11 109.319 470.372 109.32 471.688V532.633H113.514V471.688C113.511 469.26 112.545 466.933 110.828 465.217C109.112 463.5 106.785 462.535 104.359 462.533H72.2148C71.1478 462.538 70.108 462.197 69.2515 461.56C68.395 460.924 67.7681 460.027 67.4648 459.003L37.25 358.738C37.0265 357.997 36.9795 357.213 37.1127 356.45C37.2459 355.687 37.5557 354.966 38.0173 354.344C38.4789 353.722 39.0794 353.217 39.771 352.869C40.4625 352.521 41.2259 352.34 42 352.34H72.9056C76.1364 352.325 79.2848 353.359 81.8781 355.287C84.4714 357.215 86.3695 359.933 87.2876 363.032L116.566 460.209C117.126 462.097 118.283 463.753 119.863 464.928C121.443 466.103 123.362 466.733 125.331 466.725H157.481C158.796 466.725 160.058 467.249 160.988 468.179C161.918 469.11 162.441 470.372 162.442 471.688V533.71H166.636V471.688C166.633 469.261 165.667 466.934 163.952 465.218C162.236 463.502 159.91 462.536 157.484 462.533Z" fill="#85A8CC"></path><path d="M166.64 533.707V539.818C166.637 542.247 165.672 544.575 163.955 546.292C162.239 548.01 159.912 548.975 157.485 548.978H62.8057V544.787H157.485C158.8 544.784 160.062 544.26 160.992 543.329C161.922 542.397 162.445 541.135 162.446 539.818V533.707H166.64Z" fill="#58595B"></path><path d="M111.47 525.047C112.025 525.047 112.558 525.268 112.95 525.66C113.343 526.053 113.564 526.586 113.564 527.142V531.157C113.562 533.585 112.596 535.914 110.88 537.631C109.163 539.349 106.836 540.314 104.408 540.317H11.825C11.5499 540.317 11.2775 540.263 11.0232 540.158C10.769 540.052 10.538 539.898 10.3434 539.704C10.1488 539.509 9.99436 539.278 9.88903 539.024C9.7837 538.769 9.72949 538.497 9.72949 538.222C9.72949 537.946 9.7837 537.674 9.88903 537.42C9.99436 537.165 10.1488 536.934 10.3434 536.74C10.538 536.545 10.769 536.391 11.0232 536.286C11.2775 536.181 11.5499 536.127 11.825 536.127H102.314C103.241 536.127 104.159 535.944 105.015 535.589C105.871 535.235 106.649 534.715 107.304 534.059C107.959 533.403 108.479 532.625 108.834 531.769C109.189 530.912 109.371 529.994 109.371 529.067V527.142C109.371 526.867 109.425 526.594 109.53 526.34C109.635 526.086 109.789 525.855 109.984 525.66C110.178 525.465 110.409 525.311 110.663 525.206C110.918 525.101 111.19 525.047 111.465 525.047H111.47Z" fill="#85A8CC"></path><path d="M98.8765 416.307H57.8015C56.1825 416.307 54.6066 415.786 53.3079 414.819C52.0092 413.851 51.0571 412.491 50.5932 410.939L36.7899 365.171C36.5768 364.456 36.5332 363.7 36.6627 362.965C36.7921 362.23 37.0911 361.535 37.5357 360.935C37.9804 360.336 38.5586 359.848 39.2245 359.511C39.8903 359.174 40.6255 358.997 41.3718 358.994H82.4748C84.093 358.997 85.6673 359.52 86.9655 360.487C88.2637 361.453 89.217 362.812 89.6848 364.361L103.46 410.124C103.676 410.84 103.722 411.597 103.594 412.334C103.466 413.071 103.167 413.767 102.722 414.368C102.276 414.969 101.697 415.457 101.029 415.794C100.361 416.13 99.6241 416.306 98.8765 416.307Z" fill="#B0C6DE"></path><path d="M93.2889 416.307H57.8015C56.1825 416.307 54.6066 415.786 53.3079 414.819C52.0092 413.851 51.0571 412.491 50.5932 410.939L36.7899 365.171C36.5768 364.456 36.5332 363.7 36.6627 362.965C36.7921 362.23 37.0911 361.535 37.5357 360.935C37.9804 360.336 38.5586 359.848 39.2245 359.511C39.8903 359.174 40.6255 358.997 41.3718 358.994H76.8592C78.4804 358.997 80.0579 359.52 81.3602 360.486C82.6625 361.452 83.6212 362.81 84.0955 364.361L97.8708 410.124C98.087 410.84 98.1329 411.597 98.0048 412.333C97.8767 413.07 97.5781 413.767 97.1329 414.368C96.6876 414.968 96.1082 415.456 95.4407 415.793C94.7733 416.13 94.0364 416.306 93.2889 416.307Z" fill="#E2EBF3"></path><path d="M163.085 460.654H75.5042V445.137C75.5042 444.99 75.5627 444.848 75.6669 444.744C75.7711 444.64 75.9125 444.581 76.0598 444.581H162.536C162.684 444.581 162.825 444.64 162.929 444.744C163.033 444.848 163.092 444.99 163.092 445.137V460.654H163.085Z" fill="#B0C6DE"></path><path d="M71.8224 464.14H166.775C166.912 464.14 167.024 464.028 167.024 463.891V455.005C167.024 454.867 166.912 454.756 166.775 454.756H71.8224C71.6849 454.756 71.5735 454.867 71.5735 455.005V463.891C71.5735 464.028 71.6849 464.14 71.8224 464.14Z" fill="#E2EBF3"></path><path d="M157.484 548.978H62.8053C62.2495 548.978 61.7165 548.757 61.3235 548.364C60.9305 547.971 60.7097 547.437 60.7097 546.881C60.7097 546.325 60.9305 545.792 61.3235 545.399C61.7165 545.006 62.2495 544.785 62.8053 544.785H157.484C158.8 544.784 160.061 544.26 160.992 543.329C161.922 542.398 162.446 541.136 162.447 539.82V471.694C162.445 470.378 161.922 469.116 160.991 468.186C160.061 467.255 158.8 466.732 157.484 466.731H125.334C123.365 466.739 121.447 466.109 119.867 464.934C118.287 463.759 117.13 462.103 116.571 460.215L87.2923 363.043C86.374 359.944 84.4756 357.226 81.882 355.298C79.2885 353.37 76.1398 352.336 72.9088 352.351H41.9998C41.4441 352.351 40.9111 352.13 40.5181 351.737C40.1251 351.344 39.9043 350.81 39.9043 350.254C39.9043 349.698 40.1251 349.165 40.5181 348.772C40.9111 348.379 41.4441 348.158 41.9998 348.158H72.9055C77.0383 348.139 81.0656 349.462 84.3828 351.928C87.6999 354.395 90.1279 357.871 91.3021 361.836L120.58 459.006C120.884 460.029 121.511 460.927 122.367 461.564C123.224 462.2 124.263 462.542 125.33 462.538H157.481C159.907 462.54 162.234 463.506 163.95 465.222C165.666 466.939 166.632 469.266 166.635 471.694V539.82C166.632 542.247 165.667 544.575 163.952 546.292C162.236 548.008 159.91 548.974 157.484 548.978Z" fill="#85A8CC"></path><path d="M184.685 442.755C184.685 442.755 194.447 441.942 196.536 440.941C198.625 439.94 197.108 440.941 197.108 440.941C197.108 440.941 190.866 457.553 189.57 475.693C189.57 475.69 186.189 457.129 184.685 442.755Z" fill="#2349F1"></path><path d="M401.138 176.96C401.138 176.96 405.105 184.452 409.598 186.887C409.598 186.887 413.693 181.076 412.953 175.073L418.648 178.146C419.334 179.269 420.27 193.069 420.27 193.069L410.284 187.261C410.284 187.261 409.789 185.763 406.727 188.947C403.666 192.131 402.223 197.127 402.223 197.127C402.223 197.127 400.611 195.807 398.24 182.446L401.138 176.96Z" fill="white"></path><path d="M248.539 267.066C248.539 267.066 253.546 274.419 255.729 275.592C255.729 275.592 261.79 268.484 262.52 267.066C263.251 265.647 266.223 267.066 266.223 267.066C266.223 267.066 264.649 279.039 266.223 282.454C267.798 285.869 256.512 275.742 256.512 275.742C256.512 275.742 254.239 273.613 252.051 284.379C252.051 284.379 249.426 287.794 246.28 268.974L248.539 267.066Z" fill="#EAEEFA"></path><path d="M388.695 212.92C388.695 212.92 389.279 229.565 386.451 240.302C385.714 243.082 385.942 246.03 387.098 248.664L397.557 272.432C397.557 272.432 398.65 265.22 401.301 263.94C401.303 263.932 391.633 240.02 388.695 212.92Z" fill="#A919DC"></path><path d="M452.075 204.685C452.075 204.685 451.549 212.827 452.075 215.507L454.19 211.765L452.075 204.685Z" fill="#A919DC"></path><path d="M489.693 183.804L497.045 183.39C497.045 183.39 501.475 181.43 502.61 181.121C502.61 181.121 503.95 181.07 503.589 182.048C503.228 183.027 497.663 184.833 497.302 185.039C496.941 185.245 491.171 185.451 491.171 185.451L489.693 183.804Z" fill="#F0A8B5"></path><path d="M399.427 126.649C399.427 126.649 396.281 113.148 388.488 121.028C380.694 128.908 394.08 136.947 394.08 136.947L394.141 133.365C394.172 131.56 394.834 129.793 396.12 128.522C396.937 127.712 397.939 127.113 399.039 126.776L399.427 126.649Z" fill="#080F28"></path><path d="M392.1 143.294C392.1 143.294 392.031 150.498 394.825 153.764C394.825 153.764 390.618 147.463 386.324 150.684C382.031 153.906 392.1 143.294 392.1 143.294Z" fill="#080F28"></path><path d="M399.427 126.649C399.427 126.649 397.762 120.251 395.866 121.961C392.639 124.869 393.485 128.455 394.519 132.879C394.663 133.554 394.9 134.207 395.221 134.818C396.779 137.605 396.311 141.64 390.593 146.552C384.875 151.465 385.302 157.799 393.536 159.989C401.77 162.18 399.293 169.357 399.293 169.357C399.293 169.357 394.64 164.951 390.034 166.094C385.427 167.237 368.683 163.313 366.587 149.909C365.753 144.571 367.664 143.732 367.598 141.292C367.372 132.879 375.528 115.535 392.975 116.511C392.975 116.511 400.607 116.757 400.559 125.928L399.427 126.649Z" fill="#232F63"></path><path d="M386.959 151.851C386.959 151.851 382.227 158.49 392.07 162.761C392.07 162.761 396.641 165.284 396.438 167.325L399.292 169.359C399.292 169.359 401.834 161.868 393.534 159.991C393.536 159.991 386.661 158.902 386.959 151.851Z" fill="#0A1A49"></path><path d="M367.504 142.673C367.504 142.673 365.989 151.59 366.717 154.385C366.712 154.388 362.953 147.216 367.504 142.673Z" fill="#232F63"></path><path d="M94.9263 307.612C94.9263 307.612 95.266 317.6 88.1665 317.491C88.1665 317.491 101.317 319.984 102.786 321.879C102.786 321.879 102.875 315.383 100.031 314.029C97.1867 312.675 94.9263 307.612 94.9263 307.612Z" fill="#182651"></path><path d="M412.2 164.258C412.2 164.258 409.377 163.952 409.26 166.289C409.143 168.626 412.542 172.986 412.542 172.986C412.542 172.986 411.753 165.461 412.2 164.258Z" fill="#F0A8B5"></path><path d="M379.749 450.122C376.915 450.419 374.521 451.772 374.081 451.806C374.051 451.819 374.018 451.826 373.985 451.828C369.469 451.425 355.584 446.138 350.943 441.716C350.394 441.193 346.671 433.125 346.671 433.125C336.747 437.021 333.001 444.425 333.001 444.425C334.551 446.948 341.835 461.829 342.201 462.843C342.393 463.327 342.639 463.787 342.935 464.216C345.218 467.656 351.121 472.519 352.68 473.605L354.56 472.343C353.656 470.909 351.66 466.659 352.281 464.341C352.281 464.341 353.412 463.48 356.52 463.696C359.842 463.925 365.206 465.197 366.817 464.117L385.843 451.349C385.019 451.042 384.178 449.896 379.749 450.122Z" fill="#1C2854"></path><path d="M264.337 336.374L302.403 326.637L343.665 337.126L313.142 347.406L264.337 336.374Z" fill="#C6D6E7"></path><path d="M266.375 334.609L302.486 325.371L341.627 335.323L312.672 345.073L266.375 334.609Z" fill="white"></path><path d="M243.441 161.192H170.315C168.171 161.192 166.404 163.226 166.404 165.713V187.502C166.404 189.988 168.163 192.023 170.315 192.023H230.302L233.405 198.008L234.635 192.023H243.439C245.583 192.023 247.35 189.988 247.35 187.502V165.713C247.352 163.226 245.591 161.192 243.441 161.192Z" fill="#05A9CC"></path><path d="M234.073 168.933H171.324C171.084 168.933 170.889 169.128 170.889 169.369V171.074C170.889 171.315 171.084 171.51 171.324 171.51H234.073C234.314 171.51 234.509 171.315 234.509 171.074V169.369C234.509 169.128 234.314 168.933 234.073 168.933Z" fill="white"></path><path d="M234.073 173.857H171.324C171.084 173.857 170.889 174.052 170.889 174.293V175.998C170.889 176.239 171.084 176.434 171.324 176.434H234.073C234.314 176.434 234.509 176.239 234.509 175.998V174.293C234.509 174.052 234.314 173.857 234.073 173.857Z" fill="white"></path><path d="M209.535 178.779H171.324C171.084 178.779 170.889 178.974 170.889 179.215V180.92C170.889 181.161 171.084 181.356 171.324 181.356H209.535C209.776 181.356 209.97 181.161 209.97 180.92V179.215C209.97 178.974 209.776 178.779 209.535 178.779Z" fill="white"></path><path d="M94.1661 205.198H21.0412C18.8978 205.198 17.1304 207.369 17.1304 210.023V233.281C17.1304 235.936 18.8896 238.106 21.0412 238.106H81.0289L84.1318 244.495L85.3618 238.106H94.1661C96.3094 238.106 98.0769 235.936 98.0769 233.281V210.023C98.0769 207.369 96.316 205.198 94.1661 205.198Z" fill="#9ED04E"></path><path d="M84.7979 213.137H22.0485C21.8081 213.137 21.6133 213.332 21.6133 213.572V215.278C21.6133 215.519 21.8081 215.714 22.0485 215.714H84.7979C85.0383 215.714 85.2332 215.519 85.2332 215.278V213.572C85.2332 213.332 85.0383 213.137 84.7979 213.137Z" fill="white"></path><path d="M84.7979 218.06H22.0485C21.8081 218.06 21.6133 218.255 21.6133 218.495V220.201C21.6133 220.441 21.8081 220.636 22.0485 220.636H84.7979C85.0383 220.636 85.2332 220.441 85.2332 220.201V218.495C85.2332 218.255 85.0383 218.06 84.7979 218.06Z" fill="white"></path><path d="M60.2597 222.983H22.0485C21.8081 222.983 21.6133 223.178 21.6133 223.419V225.124C21.6133 225.365 21.8081 225.56 22.0485 225.56H60.2597C60.5001 225.56 60.695 225.365 60.695 225.124V223.419C60.695 223.178 60.5001 222.983 60.2597 222.983Z" fill="white"></path></svg>