<svg xmlns="http://www.w3.org/2000/svg" width="96" height="96" viewBox="0 0 96 96" fill="none"><path d="M59.9999 68C59.7367 68.0015 59.4757 67.9511 59.2321 67.8515C58.9884 67.752 58.7668 67.6054 58.5799 67.42L50.5799 59.42C50.2033 59.0434 49.9917 58.5326 49.9917 58C49.9917 57.4674 50.2033 56.9566 50.5799 56.58C50.9565 56.2034 51.4673 55.9918 51.9999 55.9918C52.5325 55.9918 53.0433 56.2034 53.4199 56.58L61.4199 64.58C61.6073 64.7659 61.7561 64.9871 61.8577 65.2309C61.9592 65.4746 62.0115 65.736 62.0115 66C62.0115 66.264 61.9592 66.5254 61.8577 66.7692C61.7561 67.0129 61.6073 67.2341 61.4199 67.42C61.233 67.6054 61.0114 67.752 60.7677 67.8515C60.524 67.9511 60.2631 68.0015 59.9999 68Z" fill="#3AB6A0"></path><path fill-rule="evenodd" clip-rule="evenodd" d="M12 86H84C84.5304 86 85.0391 85.7893 85.4142 85.4142C85.7893 85.0391 86 84.5304 86 84V24V12C86 11.4696 85.7893 10.9609 85.4142 10.5858C85.0391 10.2107 84.5304 10 84 10H12C11.4696 10 10.9609 10.2107 10.5858 10.5858C10.2107 10.9609 10 11.4696 10 12V28V84C10 84.5304 10.2107 85.0391 10.5858 85.4142C10.9609 85.7893 11.4696 86 12 86ZM14 26V14H82V22H50C49.7368 21.9985 49.4759 22.049 49.2322 22.1485C48.9885 22.248 48.7669 22.3947 48.58 22.58L45.18 26H14ZM14 30H46C46.2632 30.0016 46.5241 29.9511 46.7678 29.8516C47.0115 29.752 47.2331 29.6054 47.42 29.42L50.82 26H82V82H14V30ZM22 18H20C19.4696 18 18.9609 18.2107 18.5858 18.5858C18.2107 18.9609 18 19.4696 18 20C18 20.5304 18.2107 21.0391 18.5858 21.4142C18.9609 21.7893 19.4696 22 20 22H22C22.5304 22 23.0391 21.7893 23.4142 21.4142C23.7893 21.0391 24 20.5304 24 20C24 19.4696 23.7893 18.9609 23.4142 18.5858C23.0391 18.2107 22.5304 18 22 18ZM30 18H32C32.5304 18 33.0391 18.2107 33.4142 18.5858C33.7893 18.9609 34 19.4696 34 20C34 20.5304 33.7893 21.0391 33.4142 21.4142C33.0391 21.7893 32.5304 22 32 22H30C29.4696 22 28.9609 21.7893 28.5858 21.4142C28.2107 21.0391 28 20.5304 28 20C28 19.4696 28.2107 18.9609 28.5858 18.5858C28.9609 18.2107 29.4696 18 30 18ZM40 18H42C42.5304 18 43.0391 18.2107 43.4142 18.5858C43.7893 18.9609 44 19.4696 44 20C44 20.5304 43.7893 21.0391 43.4142 21.4142C43.0391 21.7893 42.5304 22 42 22H40C39.4696 22 38.9609 21.7893 38.5858 21.4142C38.2107 21.0391 38 20.5304 38 20C38 19.4696 38.2107 18.9609 38.5858 18.5858C38.9609 18.2107 39.4696 18 40 18ZM59.9999 49.56C59.9251 49.2316 59.7685 48.9275 59.5448 48.6757C59.321 48.424 59.0373 48.2328 58.7199 48.12L36.7199 40.12C36.3627 39.9912 35.9762 39.9667 35.6056 40.0494C35.235 40.1321 34.8956 40.3186 34.627 40.5871C34.3585 40.8556 34.172 41.1951 34.0893 41.5657C34.0066 41.9363 34.0311 42.3228 34.1599 42.68L42.1599 64.68C42.2728 64.9974 42.4639 65.2811 42.7156 65.5048C42.9674 65.7286 43.2715 65.8852 43.5999 65.96L43.9999 66C44.2631 66.0015 44.5241 65.9511 44.7677 65.8516C45.0114 65.752 45.233 65.6054 45.4199 65.42L59.4199 51.42C59.6672 51.1851 59.8502 50.891 59.9517 50.5654C60.0532 50.2399 60.0698 49.8938 59.9999 49.56ZM44.8399 60.36L39.3799 45.34L54.3999 50.8L44.8399 60.36Z" fill="#3AB6A0"></path><path opacity="0.2" fill-rule="evenodd" clip-rule="evenodd" d="M76 14H82V22H68C70.1217 22 72.1566 21.1571 73.6569 19.6569C75.1571 18.1566 76 16.1217 76 14ZM14 82H82V26H80.94C78.4676 39.6583 71.8555 52.2261 62 62C55.7122 68.3328 48.2345 73.36 39.9968 76.7923C31.7591 80.2247 22.9241 81.9945 14 82ZM42.26 53.4L44.8 60.36L54.36 50.8L47.4 48.26C47.6657 48.9776 47.72 49.7563 47.5564 50.5038C47.3929 51.2513 47.0184 51.9362 46.4773 52.4773C45.9362 53.0184 45.2513 53.3929 44.5038 53.5564C43.7563 53.72 42.9776 53.6657 42.26 53.4Z" fill="#3AB6A0"></path></svg>