<svg xmlns="http://www.w3.org/2000/svg" width="96" height="96" viewBox="0 0 96 96" fill="none"><path fill-rule="evenodd" clip-rule="evenodd" d="M15.3332 12.0224C17.3066 10.7038 19.6266 10 22 10C25.1826 10 28.2348 11.2643 30.4853 13.5147C32.7357 15.7652 34 18.8174 34 22C34 24.3734 33.2962 26.6935 31.9776 28.6668C31.9149 28.7607 31.8509 28.8536 31.7857 28.9456L37.9649 35.1247C40.2324 34.3781 42.6073 33.9975 45 34C48.9863 34.0035 52.8652 35.0408 56.2782 36.9633C56.3626 36.824 56.464 36.6952 56.5801 36.58L67.653 25.5071C66.9441 24.4326 66.4458 23.2259 66.1922 21.9509C65.8063 20.0111 66.0043 18.0004 66.7612 16.1732C67.5181 14.3459 68.7998 12.7841 70.4443 11.6853C72.0888 10.5865 74.0222 10 76 10C78.6522 10 81.1957 11.0536 83.0711 12.9289C84.9464 14.8043 86 17.3478 86 20C86 21.9778 85.4135 23.9112 84.3147 25.5557C83.2159 27.2002 81.6541 28.4819 79.8268 29.2388C77.9996 29.9957 75.9889 30.1937 74.0491 29.8079C72.7742 29.5543 71.5675 29.0559 70.4931 28.3471L59.6008 39.2393C60.1747 39.7112 60.7277 40.2125 61.2576 40.7424C65.5698 45.0546 67.9947 50.9017 68 57C68.0073 59.3978 67.633 61.7786 66.8936 64.0536L73.9443 71.1043C75.1712 70.3827 76.5711 70 78 70C80.1217 70 82.1566 70.8429 83.6569 72.3431C85.1571 73.8434 86 75.8783 86 78C86 79.5822 85.5308 81.129 84.6518 82.4446C83.7727 83.7602 82.5233 84.7855 81.0615 85.391C79.5997 85.9965 77.9911 86.155 76.4393 85.8463C74.8874 85.5376 73.462 84.7757 72.3432 83.6569C71.2243 82.538 70.4624 81.1126 70.1537 79.5607C69.845 78.0089 70.0035 76.4003 70.609 74.9385C70.7514 74.5947 70.9171 74.2626 71.1043 73.9443L65.1845 68.0245C63.7035 70.7382 61.6844 73.1341 59.24 75.06C59.2224 75.0737 59.2046 75.087 59.1866 75.1L59.14 75.14C55.1093 78.3075 50.1264 80.0201 45 80C39.9138 80.0221 34.9697 78.331 30.9635 75.2013C30.8931 75.1586 30.8251 75.1115 30.76 75.06C29.4664 74.0399 28.2918 72.8881 27.2531 71.6271L21.4308 77.4493C21.8022 78.24 22 79.1098 22 80C22 81.1867 21.6481 82.3467 20.9888 83.3334C20.3295 84.3201 19.3925 85.0891 18.2961 85.5433C17.1997 85.9974 15.9933 86.1162 14.8295 85.8847C13.6656 85.6532 12.5965 85.0817 11.7574 84.2426C10.9182 83.4035 10.3468 82.3344 10.1153 81.1705C9.88378 80.0067 10.0026 78.8003 10.4567 77.7039C10.9109 76.6075 11.6799 75.6705 12.6666 75.0112C13.6533 74.3519 14.8133 74 16 74C16.9005 74 17.7801 74.2024 18.578 74.5821L18.5801 74.58L24.919 68.207C24.4261 67.3231 23.9906 66.4048 23.6164 65.4573C22.1252 61.6816 21.6607 57.5782 22.2704 53.5648C22.88 49.5513 24.542 45.7709 27.0871 42.6083C28.9932 40.2398 31.3438 38.281 33.9962 36.8361L28.9457 31.7856C28.2161 32.3034 27.4273 32.7407 26.5922 33.0866C24.3995 33.9948 21.9867 34.2324 19.6589 33.7694C17.3311 33.3064 15.193 32.1635 13.5147 30.4853C11.8365 28.807 10.6936 26.6689 10.2306 24.3411C9.76756 22.0133 10.0052 19.6005 10.9135 17.4078C11.8217 15.2151 13.3598 13.3409 15.3332 12.0224ZM63.9539 55.6818C64.143 58.3913 63.7488 61.109 62.7992 63.6518C62.73 63.7845 62.6758 63.9246 62.6377 64.0696C61.951 65.7878 61.0099 67.3936 59.8457 68.833C59.6679 67.6053 59.3378 66.4017 58.8608 65.2505C58.3539 64.0269 57.6878 62.8787 56.8819 61.8348C55.6833 60.2815 54.1881 58.9774 52.48 58C53.4707 56.5216 53.9997 54.7822 54 53.0025C54 53.0017 54 53.0009 54 53V51C54.0074 49.8202 53.7775 48.651 53.324 47.5618C52.9082 46.5632 52.3121 45.6506 51.5664 44.8692C51.4964 44.7943 51.4251 44.7204 51.3523 44.6477C51.2801 44.5754 51.2067 44.5045 51.1323 44.435C50.3535 43.6928 49.4448 43.0987 48.4506 42.6829C47.358 42.2259 46.1844 41.9936 45 42C42.6147 42.0053 40.3285 42.9552 38.6419 44.6419C36.9552 46.3286 36.0053 48.6147 36 51V53C35.9998 54.7775 36.527 56.5149 37.5149 57.9924C35.6807 59.0486 34.0805 60.487 32.8299 62.2227C31.4137 64.1883 30.5011 66.4584 30.1558 68.835C29.8249 68.4336 29.5148 68.0156 29.2267 67.5826C29.174 67.4862 29.1136 67.3943 29.046 67.3077C27.0444 64.2448 25.9847 60.6609 26 57C26.0006 54.2096 26.6158 51.4537 27.8019 48.9279C28.988 46.4022 30.7159 44.1687 32.8627 42.3862C34.4174 41.0954 36.1642 40.064 38.0352 39.3268C38.0867 39.3105 38.1377 39.2921 38.1879 39.2715C38.2147 39.2606 38.2411 39.2491 38.2673 39.2371C38.9062 38.995 39.5591 38.787 40.2234 38.6145C42.9242 37.913 45.7463 37.8149 48.4892 38.3274C51.2321 38.8398 53.8285 39.9501 56.0938 41.5794C58.3591 43.2086 60.2378 45.3168 61.5963 47.7542C62.9547 50.1915 63.7597 52.8982 63.9539 55.6818ZM75.18 75.18C75.139 75.2206 75.0964 75.2593 75.0523 75.2961C74.5579 75.8351 74.22 76.5002 74.0769 77.2196C73.9225 77.9956 74.0017 78.7998 74.3045 79.5307C74.6072 80.2616 75.1199 80.8864 75.7777 81.3259C76.4355 81.7654 77.2089 82 78 82C79.0609 82 80.0783 81.5786 80.8284 80.8284C81.5786 80.0783 82 79.0609 82 78C82 77.2089 81.7654 76.4355 81.3259 75.7777C80.8864 75.1199 80.2616 74.6072 79.5307 74.3045C78.7998 74.0017 77.9956 73.9225 77.2196 74.0769C76.5038 74.2193 75.8417 74.5545 75.3042 75.0449C75.2649 75.0917 75.2235 75.1368 75.18 75.18ZM17.5554 28.6518C18.871 29.5308 20.4178 30 22 30C24.1217 30 26.1566 29.1571 27.6569 27.6569C29.1572 26.1566 30 24.1217 30 22C30 20.4177 29.5308 18.871 28.6518 17.5554C27.7727 16.2398 26.5233 15.2145 25.0615 14.609C23.5997 14.0035 21.9911 13.845 20.4393 14.1537C18.8874 14.4624 17.462 15.2243 16.3432 16.3431C15.2243 17.462 14.4624 18.8874 14.1537 20.4393C13.845 21.9911 14.0035 23.5997 14.609 25.0615C15.2145 26.5233 16.2399 27.7727 17.5554 28.6518ZM47.94 56.96C47.8215 57.043 47.7129 57.1381 47.6159 57.2435C46.8317 57.7276 45.9263 57.9859 45 57.9859C43.9514 57.9859 42.9295 57.6548 42.08 57.04C42.0224 56.9979 41.9628 56.959 41.9013 56.9235C41.3278 56.467 40.8603 55.8905 40.532 55.234C40.1857 54.5413 40.0037 53.7782 40 53.0039C40 53.0026 40 53.0013 40 53V51C40 50.9171 40.002 50.8345 40.0061 50.7521C40.0674 49.5163 40.5854 48.3436 41.4645 47.4645C41.5817 47.3473 41.7041 47.2365 41.8312 47.1323C42.7209 46.4033 43.8397 46 45 46C46.3071 46.0208 47.5546 46.5506 48.4772 47.4769C49.3997 48.4032 49.9245 49.6528 49.94 50.96V52.96C49.9369 53.7357 49.7548 54.5002 49.4079 55.194C49.061 55.8878 48.5587 56.4921 47.94 56.96ZM36.0661 64.5961C34.7285 66.4558 34.0062 68.6872 34 70.9776L34 71V72.48C37.2106 74.7705 41.0561 76.0017 45 76.0017C48.9439 76.0017 52.7894 74.7705 56 72.48V71C56.0019 68.0762 54.8438 65.271 52.78 63.2C52.6715 63.0932 52.561 62.9887 52.4485 62.8865C52.3249 62.7744 52.199 62.6651 52.0708 62.5588C51.2409 61.8706 50.3146 61.3047 49.32 60.88C49.2703 60.9071 49.2204 60.9337 49.1703 60.9599C47.8955 61.6307 46.4668 61.9935 45 62C43.4827 61.9966 42.0056 61.6111 40.6974 60.8968C38.8487 61.6799 37.2446 62.9575 36.0661 64.5961ZM76 26C74.8133 26 73.6533 25.6481 72.6666 24.9888C71.6799 24.3295 70.9109 23.3925 70.4567 22.2961C70.0026 21.1997 69.8838 19.9933 70.1153 18.8295C70.3468 17.6656 70.9183 16.5965 71.7574 15.7574C72.5965 14.9182 73.6656 14.3468 74.8295 14.1153C75.9933 13.8838 77.1997 14.0026 78.2961 14.4567C79.3925 14.9108 80.3295 15.6799 80.9888 16.6666C81.6481 17.6533 82 18.8133 82 20C82 21.5913 81.3679 23.1174 80.2426 24.2426C79.1174 25.3679 77.5913 26 76 26ZM14.8889 81.6629C15.2178 81.8827 15.6044 82 16 82C16.5304 82 17.0391 81.7893 17.4142 81.4142C17.7893 81.0391 18 80.5304 18 80C18 79.6044 17.8827 79.2178 17.6629 78.8889C17.4432 78.56 17.1308 78.3036 16.7654 78.1522C16.3999 78.0009 15.9978 77.9613 15.6098 78.0384C15.2219 78.1156 14.8655 78.3061 14.5858 78.5858C14.3061 78.8655 14.1156 79.2219 14.0384 79.6098C13.9613 79.9978 14.0009 80.3999 14.1522 80.7654C14.3036 81.1308 14.56 81.4432 14.8889 81.6629Z" fill="#3AB6A0"></path><path opacity="0.2" fill-rule="evenodd" clip-rule="evenodd" d="M79.9438 18.7086C80.1051 17.3762 79.8151 16.0282 79.12 14.88C79.8983 15.3512 80.5593 15.9932 81.0529 16.7574C81.5465 17.5217 81.8598 18.3882 81.9692 19.2914C82.0786 20.1946 81.9811 21.1108 81.6842 21.9708C81.3873 22.8308 80.8987 23.612 80.2554 24.2554C79.612 24.8987 78.8308 25.3873 77.9708 25.6842C77.1109 25.9811 76.1946 26.0786 75.2914 25.9692C74.3882 25.8598 73.5217 25.5465 72.7574 25.0529C71.9932 24.5593 71.3512 23.8983 70.88 23.12C72.0282 23.8151 73.3762 24.1051 74.7086 23.9438C76.041 23.7824 77.2809 23.179 78.2299 22.2299C79.179 21.2809 79.7824 20.041 79.9438 18.7086ZM29.0849 18.2978C29.6839 19.4401 29.9978 20.7102 29.9999 21.9999C29.9959 23.7007 29.45 25.3559 28.4414 26.7253C27.4328 28.0948 26.014 29.1071 24.3909 29.6154C22.7679 30.1237 21.0251 30.1016 19.4155 29.5521C17.806 29.0027 16.4134 27.9546 15.4399 26.5599C16.9799 27.6137 18.8398 28.096 20.6978 27.9233C22.5558 27.7507 24.295 26.934 25.6145 25.6145C26.934 24.295 27.7507 22.5558 27.9233 20.6978C28.096 18.8398 27.6137 16.9799 26.5599 15.4399C27.6197 16.1751 28.4859 17.1556 29.0849 18.2978ZM60 51.0001C59.9981 54.7698 58.8749 58.4538 56.7733 61.5834C54.6716 64.7129 51.6866 67.1466 48.1978 68.5747C44.709 70.0028 40.8743 70.3608 37.1814 69.6032C33.4886 68.8455 30.1046 67.0065 27.46 64.3201C28.5384 66.9049 30.1749 69.2194 32.2524 71.0978C34.3299 72.9762 36.797 74.372 39.4771 75.1854C42.1572 75.9988 44.984 76.2096 47.755 75.8028C50.5261 75.3959 53.173 74.3815 55.5061 72.8321C57.8393 71.2826 59.8011 69.2365 61.251 66.8402C62.7009 64.4439 63.6031 61.7567 63.893 58.971C64.1829 56.1853 63.8534 53.3699 62.9279 50.7264C62.0025 48.0829 60.5041 45.6767 58.54 43.6801C59.5048 45.9998 60.001 48.4876 60 51.0001ZM18 80C18 81.1046 17.1046 82 16 82C14.8954 82 14 81.1046 14 80C14 78.8954 14.8954 78 16 78C17.1046 78 18 78.8954 18 80ZM79.6401 74.36C79.8815 74.8727 80.0046 75.4332 80.0001 76C80.0001 77.0609 79.5787 78.0783 78.8285 78.8284C78.0784 79.5786 77.061 80 76.0001 80C75.4334 80.0045 74.8729 79.8814 74.3601 79.64C74.6238 80.2331 75.0279 80.7532 75.5375 81.1553C76.0471 81.5574 76.6469 81.8294 77.2852 81.9479C77.9234 82.0664 78.5809 82.0277 79.2008 81.8353C79.8208 81.6429 80.3846 81.3025 80.8436 80.8435C81.3026 80.3845 81.643 79.8207 81.8354 79.2007C82.0278 78.5807 82.0665 77.9233 81.948 77.285C81.8295 76.6468 81.5575 76.047 81.1554 75.5374C80.7533 75.0278 80.2333 74.6237 79.6401 74.36ZM43.411 55.9688C44.3434 55.9052 45.2398 55.5837 46 55.04C46.6264 54.5702 47.1337 53.9599 47.4811 53.2582C47.8285 52.5565 48.0062 51.783 48 51V49C48.0379 48.1857 47.873 47.3748 47.52 46.64C47.9447 46.8794 48.335 47.1755 48.68 47.52C49.1443 47.9808 49.5124 48.5293 49.7631 49.1336C50.0137 49.7378 50.1418 50.3858 50.14 51.04V53.04C50.1327 53.9655 49.8696 54.871 49.3799 55.6564C48.8902 56.4417 48.193 57.0764 47.3651 57.4904C46.5373 57.9043 45.6112 58.0813 44.6891 58.0018C43.767 57.9223 42.8848 57.5895 42.14 57.04C41.5491 56.6073 41.0637 56.0467 40.72 55.4C41.5469 55.8354 42.4786 56.0324 43.411 55.9688Z" fill="#3AB6A0"></path></svg>