<svg xmlns="http://www.w3.org/2000/svg" width="822" height="800" viewBox="0 0 822 800" fill="none"><circle cx="410.796" cy="467.964" r="329.536" stroke="#D6E2EB" stroke-width="5" stroke-dasharray="10 10"></circle><circle cx="410.796" cy="467.964" r="244.027" fill="#D6E2EB"></circle><circle cx="410.796" cy="467.964" r="244.027" fill="#F8FAFC"></circle><circle cx="410.796" cy="467.964" r="244.027" stroke="#D6E2EB" stroke-width="10"></circle><path d="M410.796 37.354L410.796 222.049" stroke="#D6E2EB" stroke-width="10"></path><path d="M195.851 584.023L32.1569 678.532" stroke="#D6E2EB" stroke-width="10"></path><path d="M787.441 237.599L612.667 338.505" stroke="#D6E2EB" stroke-width="10"></path><path d="M198.295 345.76L10.9542 237.599" stroke="#D6E2EB" stroke-width="10"></path><path d="M790.555 691.045L615.781 590.14" stroke="#D6E2EB" stroke-width="10"></path><path d="M326.058 339.347C308.084 339.242 293.651 353.913 293.545 371.899L293.575 590.612C293.928 598.47 300.425 605.049 308.436 604.897C315.531 604.819 317.901 601.642 317.901 601.642L378.705 529.136L500.977 529.097C518.951 529.203 533.384 514.532 533.49 496.545L533.545 371.835C533.45 354.007 518.99 339.405 501.016 339.3L326.058 339.347Z" fill="url(#paint0_linear_121_213)"></path><circle cx="93.3852" cy="643.385" r="93.3852" fill="#00AFF0"></circle><circle cx="727.268" cy="267.704" r="93.3852" fill="#C32AA3"></circle><path d="M727.269 246.729C715.595 246.729 706.293 256.214 706.293 267.704C706.293 279.377 715.595 288.679 727.269 288.679C738.759 288.679 748.244 279.377 748.244 267.704C748.244 256.214 738.759 246.729 727.269 246.729ZM727.269 281.384C719.79 281.384 713.589 275.365 713.589 267.704C713.589 260.226 719.608 254.207 727.269 254.207C734.747 254.207 740.766 260.226 740.766 267.704C740.766 275.365 734.747 281.384 727.269 281.384ZM753.898 246C753.898 243.264 751.709 241.075 748.973 241.075C746.237 241.075 744.049 243.264 744.049 246C744.049 248.735 746.237 250.924 748.973 250.924C751.709 250.924 753.898 248.735 753.898 246ZM767.76 250.924C767.395 244.358 765.936 238.521 761.194 233.779C756.451 229.037 750.615 227.578 744.049 227.213C737.3 226.848 717.055 226.848 710.306 227.213C703.74 227.578 698.086 229.037 693.161 233.779C688.419 238.521 686.96 244.358 686.595 250.924C686.23 257.673 686.23 277.918 686.595 284.667C686.96 291.233 688.419 296.887 693.161 301.812C698.086 306.554 703.74 308.013 710.306 308.378C717.055 308.743 737.3 308.743 744.049 308.378C750.615 308.013 756.451 306.554 761.194 301.812C765.936 296.887 767.395 291.233 767.76 284.667C768.125 277.918 768.125 257.673 767.76 250.924ZM759.005 291.78C757.728 295.428 754.81 298.164 751.344 299.623C745.873 301.812 733.105 301.265 727.269 301.265C721.25 301.265 708.482 301.812 703.193 299.623C699.545 298.164 696.809 295.428 695.35 291.78C693.161 286.491 693.708 273.723 693.708 267.704C693.708 261.868 693.161 249.1 695.35 243.628C696.809 240.163 699.545 237.427 703.193 235.968C708.482 233.779 721.25 234.326 727.269 234.326C733.105 234.326 745.873 233.779 751.344 235.968C754.81 237.245 757.546 240.163 759.005 243.628C761.194 249.1 760.646 261.868 760.646 267.704C760.646 273.723 761.194 286.491 759.005 291.78Z" fill="white"></path><circle cx="410.795" cy="93.3852" r="93.3852" fill="#25D366"></circle><path d="M439.249 64.567C431.771 56.9065 421.557 52.5291 410.613 52.5291C388.361 52.5291 370.122 70.7684 370.122 93.0203C370.122 100.316 372.128 107.247 375.594 113.266L369.939 134.241L391.279 128.769C397.298 131.87 403.865 133.694 410.613 133.694C433.047 133.694 451.652 115.455 451.652 93.2027C451.652 82.2591 446.909 72.2275 439.249 64.567ZM410.613 126.763C404.594 126.763 398.758 125.121 393.468 122.021L392.374 121.291L379.606 124.757L383.072 112.354L382.16 111.077C378.877 105.605 377.053 99.404 377.053 93.0203C377.053 74.5986 392.191 59.46 410.795 59.46C419.733 59.46 428.123 62.9255 434.507 69.3092C440.89 75.693 444.721 84.083 444.721 93.2027C444.721 111.624 429.217 126.763 410.613 126.763ZM429.217 101.593C428.123 101.046 423.198 98.6745 422.286 98.3097C421.374 97.9449 420.645 97.7625 419.915 98.8569C419.368 99.7688 417.362 102.14 416.814 102.87C416.085 103.417 415.538 103.599 414.626 103.052C408.607 100.134 404.777 97.7625 400.764 91.014C399.67 89.19 401.858 89.3724 403.682 85.5422C404.047 84.8126 403.865 84.2654 403.682 83.7183C403.5 83.1711 401.311 78.2465 400.581 76.2401C399.67 74.2338 398.94 74.4162 398.21 74.4162C397.663 74.4162 396.934 74.4162 396.386 74.4162C395.657 74.4162 394.563 74.5986 393.651 75.693C392.739 76.7873 390.185 79.1584 390.185 84.083C390.185 89.19 393.651 93.9323 394.198 94.6618C394.745 95.209 401.311 105.423 411.525 109.8C417.909 112.719 420.462 112.901 423.745 112.354C425.569 112.172 429.582 109.983 430.494 107.612C431.406 105.241 431.406 103.234 431.041 102.87C430.859 102.322 430.129 102.14 429.217 101.593Z" fill="white"></path><circle cx="94.3232" cy="267.704" r="93.3852" fill="#4267B2"></circle><path d="M139.557 267.704C139.557 242.716 119.311 222.471 94.3233 222.471C69.3355 222.471 49.0898 242.716 49.0898 267.704C49.0898 290.321 65.5052 309.107 87.21 312.39V280.836H75.7192V267.704H87.21V257.855C87.21 246.547 93.9585 240.163 104.173 240.163C109.28 240.163 114.387 241.075 114.387 241.075V252.201H108.732C103.078 252.201 101.254 255.666 101.254 259.314V267.704H113.839L111.833 280.836H101.254V312.39C122.959 309.107 139.557 290.321 139.557 267.704Z" fill="white"></path><circle cx="727.68" cy="643.687" r="93.3852" fill="#FB660A"></circle><path fill-rule="evenodd" clip-rule="evenodd" d="M728.051 603.22C738.967 603.22 749.215 607.471 756.936 615.193C764.658 622.914 768.925 633.16 768.925 644.078C768.925 654.997 764.676 665.238 756.954 672.96C749.076 680.841 738.604 684.932 728.033 684.932C721.451 684.932 714.815 683.343 708.754 680.08C703.311 684.002 697.99 684.848 694.378 684.848C693.032 684.848 691.924 684.729 691.148 684.605C689.488 684.348 688.209 683.051 687.949 681.395C687.693 679.734 688.536 678.127 690.039 677.383C693.167 675.847 695.275 672.774 696.59 670.131C683.197 654.01 684.234 630.118 699.165 615.193C706.887 607.471 717.13 603.22 728.051 603.22ZM710.4 674.133C724.076 682.169 741.457 679.938 752.683 668.709C766.273 655.121 766.273 633.032 752.67 619.443C739.093 605.855 716.987 605.855 703.396 619.443C690.389 632.451 689.757 653.407 701.934 667.164C702.252 667.532 702.432 667.979 702.486 668.426C702.598 668.895 702.566 669.391 702.364 669.874C701.117 672.721 698.99 676.378 695.612 678.84H695.63C698.56 678.84 702.984 678.109 707.488 674.616C707.538 674.567 707.605 674.518 707.672 674.483C708.39 673.766 709.503 673.602 710.4 674.133ZM730.91 644.084C730.91 642.499 729.627 641.215 728.043 641.215C726.459 641.215 725.172 642.499 725.172 644.084C725.172 645.665 726.459 646.949 728.043 646.949C729.627 646.949 730.91 645.665 730.91 644.084ZM742.841 641.215C744.425 641.215 745.713 642.499 745.713 644.084C745.713 645.665 744.425 646.949 742.841 646.949C741.257 646.949 739.974 645.665 739.974 644.084C739.974 642.499 741.257 641.215 742.841 641.215ZM716.108 644.084C716.108 642.499 714.82 641.215 713.236 641.215C711.652 641.215 710.369 642.499 710.369 644.084C710.369 645.665 711.652 646.949 713.236 646.949C714.82 646.949 716.108 645.665 716.108 644.084Z" fill="white"></path><path d="M126.948 663.56L110.688 648.776C109.92 648.077 108.91 647.705 107.871 647.737C106.833 647.769 105.848 648.203 105.124 648.948L95.5522 658.792C93.2482 658.352 88.6162 656.908 83.8482 652.152C79.0802 647.38 77.6362 642.736 77.2082 640.448L87.0442 630.872C87.7898 630.148 88.2247 629.163 88.2568 628.125C88.2889 627.086 87.9157 626.076 87.2162 625.308L72.4362 609.052C71.7363 608.281 70.7637 607.814 69.7248 607.749C68.6859 607.684 67.6625 608.027 66.8722 608.704L58.1922 616.148C57.5006 616.842 57.0878 617.766 57.0322 618.744C56.9722 619.744 55.8282 643.432 74.1962 661.808C90.2202 677.828 110.292 679 115.82 679C116.628 679 117.124 678.976 117.256 678.968C118.234 678.913 119.157 678.499 119.848 677.804L127.288 669.12C127.968 668.332 128.313 667.31 128.25 666.271C128.186 665.232 127.719 664.259 126.948 663.56Z" fill="white"></path><defs><linearGradient id="paint0_linear_121_213" x1="561.364" y1="317.28" x2="361.056" y2="475.493" gradientUnits="userSpaceOnUse"><stop stop-color="#00A7CF"></stop><stop offset="1" stop-color="#C8DA2B"></stop></linearGradient></defs></svg>